<svg width="108" height="16" viewBox="0 0 108 16" fill="none" xmlns="http://www.w3.org/2000/svg">
<line x1="1.26502" y1="6.30579" x2="1.26502" y2="8.71295" stroke="#D8D8D8" stroke-width="1.29567" stroke-linecap="round"/>
<line x1="20.7885" y1="6.30579" x2="20.7885" y2="8.71295" stroke="#D8D8D8" stroke-width="1.29567" stroke-linecap="round"/>
<line x1="31.5619" y1="6.30579" x2="31.5619" y2="8.71295" stroke="#D8D8D8" stroke-width="1.29567" stroke-linecap="round"/>
<line x1="38.9662" y1="6.30579" x2="38.9662" y2="8.71295" stroke="#D8D8D8" stroke-width="1.29567" stroke-linecap="round"/>
<line x1="14.7299" y1="6.30579" x2="14.7299" y2="8.71295" stroke="#D8D8D8" stroke-width="1.29567" stroke-linecap="round"/>
<line x1="52.431" y1="6.30579" x2="52.431" y2="8.71295" stroke="#D8D8D8" stroke-width="1.29567" stroke-linecap="round"/>
<line x1="4.63026" y1="4.82484" x2="4.63026" y2="11.6754" stroke="#D8D8D8" stroke-width="1.29567" stroke-linecap="round"/>
<line x1="23.4818" y1="5.56532" x2="23.4818" y2="10.1942" stroke="#D8D8D8" stroke-width="1.29567" stroke-linecap="round"/>
<line x1="26.1752" y1="4.08412" x2="26.1752" y2="11.6752" stroke="#D8D8D8" stroke-width="1.29567" stroke-linecap="round"/>
<line x1="28.8685" y1="5.56532" x2="28.8685" y2="10.1942" stroke="#D8D8D8" stroke-width="1.29567" stroke-linecap="round"/>
<line x1="59.1635" y1="6.30579" x2="59.1635" y2="8.71295" stroke="#D8D8D8" stroke-width="1.29567" stroke-linecap="round"/>
<line x1="69.9349" y1="6.30579" x2="69.9349" y2="8.71295" stroke="#D8D8D8" stroke-width="1.29567" stroke-linecap="round"/>
<line x1="61.8568" y1="5.56532" x2="61.8568" y2="10.1942" stroke="#D8D8D8" stroke-width="1.29567" stroke-linecap="round"/>
<line x1="64.5502" y1="4.08412" x2="64.5502" y2="11.6752" stroke="#D8D8D8" stroke-width="1.29567" stroke-linecap="round"/>
<line x1="67.2435" y1="5.56532" x2="67.2435" y2="10.1942" stroke="#D8D8D8" stroke-width="1.29567" stroke-linecap="round"/>
<line x1="96.4974" y1="6.30579" x2="96.4974" y2="8.71295" stroke="#D8D8D8" stroke-width="1.29567" stroke-linecap="round"/>
<line x1="107.269" y1="6.30579" x2="107.269" y2="8.71295" stroke="#D8D8D8" stroke-width="1.29567" stroke-linecap="round"/>
<line x1="99.1908" y1="5.56532" x2="99.1908" y2="10.1942" stroke="#D8D8D8" stroke-width="1.29567" stroke-linecap="round"/>
<line x1="101.884" y1="4.08412" x2="101.884" y2="11.6752" stroke="#D8D8D8" stroke-width="1.29567" stroke-linecap="round"/>
<line x1="104.578" y1="5.56532" x2="104.578" y2="10.1942" stroke="#D8D8D8" stroke-width="1.29567" stroke-linecap="round"/>
<line x1="42.3334" y1="4.82484" x2="42.3334" y2="11.6754" stroke="#D8D8D8" stroke-width="1.29567" stroke-linecap="round"/>
<line x1="11.3627" y1="4.82484" x2="11.3627" y2="11.6754" stroke="#D8D8D8" stroke-width="1.29567" stroke-linecap="round"/>
<line x1="49.0658" y1="4.82484" x2="49.0658" y2="11.6754" stroke="#D8D8D8" stroke-width="1.29567" stroke-linecap="round"/>
<line x1="7.9994" y1="1.12171" x2="7.9994" y2="14.6373" stroke="#D8D8D8" stroke-width="1.29567" stroke-linecap="round"/>
<line x1="76.4135" y1="6.30579" x2="76.4135" y2="8.71295" stroke="#D8D8D8" stroke-width="1.29567" stroke-linecap="round"/>
<line x1="89.8783" y1="6.30579" x2="89.8783" y2="8.71295" stroke="#D8D8D8" stroke-width="1.29567" stroke-linecap="round"/>
<line x1="79.7787" y1="4.82484" x2="79.7787" y2="11.6754" stroke="#D8D8D8" stroke-width="1.29567" stroke-linecap="round"/>
<line x1="86.5131" y1="4.82484" x2="86.5131" y2="11.6754" stroke="#D8D8D8" stroke-width="1.29567" stroke-linecap="round"/>
<line x1="83.1478" y1="1.12171" x2="83.1478" y2="14.6373" stroke="#D8D8D8" stroke-width="1.29567" stroke-linecap="round"/>
<line x1="45.6986" y1="1.12171" x2="45.6986" y2="14.6373" stroke="#D8D8D8" stroke-width="1.29567" stroke-linecap="round"/>
</svg>
