<?xml version="1.0" encoding="UTF-8" standalone="no"?>
<svg
   xmlns="http://www.w3.org/2000/svg"
   id="svg62"
   version="1.1"
   fill="none"
   viewBox="0 0 108 16"
   height="16"
   width="108">
  <defs
     id="defs66" />
  <path
     id="rect875"
     d="M 0.015625 -0.22460938 C 0.0073007067 -0.22460938 0 -0.21730867 0 -0.20898438 L 0 16.226562 C 0 16.234887 0.0073007067 16.242188 0.015625 16.242188 L 108.22656 16.242188 C 108.23489 16.242188 108.24219 16.234887 108.24219 16.226562 L 108.24219 -0.20898438 C 108.24219 -0.21730867 108.23489 -0.22460938 108.22656 -0.22460938 L 0.015625 -0.22460938 z M 7.9902344 0.46484375 A 0.6478998 0.6478998 0 0 1 8.6464844 1.1210938 L 8.6464844 14.636719 A 0.6478998 0.6478998 0 1 1 7.3515625 14.636719 L 7.3515625 1.1210938 A 0.6478998 0.6478998 0 0 1 7.9902344 0.46484375 z M 45.689453 0.46484375 A 0.6478998 0.6478998 0 0 1 46.345703 1.1210938 L 46.345703 14.636719 A 0.6478998 0.6478998 0 1 1 45.050781 14.636719 L 45.050781 1.1210938 A 0.6478998 0.6478998 0 0 1 45.689453 0.46484375 z M 83.138672 0.46484375 A 0.6478998 0.6478998 0 0 1 83.794922 1.1210938 L 83.794922 14.636719 A 0.6478998 0.6478998 0 1 1 82.5 14.636719 L 82.5 1.1210938 A 0.6478998 0.6478998 0 0 1 83.138672 0.46484375 z M 26.166016 3.4277344 A 0.6478998 0.6478998 0 0 1 26.822266 4.0839844 L 26.822266 11.675781 A 0.6478998 0.6478998 0 1 1 25.527344 11.675781 L 25.527344 4.0839844 A 0.6478998 0.6478998 0 0 1 26.166016 3.4277344 z M 64.541016 3.4277344 A 0.6478998 0.6478998 0 0 1 65.197266 4.0839844 L 65.197266 11.675781 A 0.6478998 0.6478998 0 1 1 63.902344 11.675781 L 63.902344 4.0839844 A 0.6478998 0.6478998 0 0 1 64.541016 3.4277344 z M 101.875 3.4277344 A 0.6478998 0.6478998 0 0 1 102.53125 4.0839844 L 102.53125 11.675781 A 0.6478998 0.6478998 0 1 1 101.23633 11.675781 L 101.23633 4.0839844 A 0.6478998 0.6478998 0 0 1 101.875 3.4277344 z M 4.6210938 4.1679688 A 0.6478998 0.6478998 0 0 1 5.2773438 4.8242188 L 5.2773438 11.675781 A 0.6478998 0.6478998 0 1 1 3.9824219 11.675781 L 3.9824219 4.8242188 A 0.6478998 0.6478998 0 0 1 4.6210938 4.1679688 z M 11.353516 4.1679688 A 0.6478998 0.6478998 0 0 1 12.009766 4.8242188 L 12.009766 11.675781 A 0.6478998 0.6478998 0 1 1 10.714844 11.675781 L 10.714844 4.8242188 A 0.6478998 0.6478998 0 0 1 11.353516 4.1679688 z M 42.324219 4.1679688 A 0.6478998 0.6478998 0 0 1 42.980469 4.8242188 L 42.980469 11.675781 A 0.6478998 0.6478998 0 1 1 41.685547 11.675781 L 41.685547 4.8242188 A 0.6478998 0.6478998 0 0 1 42.324219 4.1679688 z M 49.056641 4.1679688 A 0.6478998 0.6478998 0 0 1 49.712891 4.8242188 L 49.712891 11.675781 A 0.6478998 0.6478998 0 1 1 48.417969 11.675781 L 48.417969 4.8242188 A 0.6478998 0.6478998 0 0 1 49.056641 4.1679688 z M 79.769531 4.1679688 A 0.6478998 0.6478998 0 0 1 80.425781 4.8242188 L 80.425781 11.675781 A 0.6478998 0.6478998 0 1 1 79.130859 11.675781 L 79.130859 4.8242188 A 0.6478998 0.6478998 0 0 1 79.769531 4.1679688 z M 86.503906 4.1679688 A 0.6478998 0.6478998 0 0 1 87.160156 4.8242188 L 87.160156 11.675781 A 0.6478998 0.6478998 0 1 1 85.865234 11.675781 L 85.865234 4.8242188 A 0.6478998 0.6478998 0 0 1 86.503906 4.1679688 z M 23.472656 4.9082031 A 0.6478998 0.6478998 0 0 1 24.128906 5.5644531 L 24.128906 10.193359 A 0.6478998 0.6478998 0 1 1 22.833984 10.193359 L 22.833984 5.5644531 A 0.6478998 0.6478998 0 0 1 23.472656 4.9082031 z M 28.859375 4.9082031 A 0.6478998 0.6478998 0 0 1 29.515625 5.5644531 L 29.515625 10.193359 A 0.6478998 0.6478998 0 1 1 28.220703 10.193359 L 28.220703 5.5644531 A 0.6478998 0.6478998 0 0 1 28.859375 4.9082031 z M 61.847656 4.9082031 A 0.6478998 0.6478998 0 0 1 62.503906 5.5644531 L 62.503906 10.193359 A 0.6478998 0.6478998 0 1 1 61.208984 10.193359 L 61.208984 5.5644531 A 0.6478998 0.6478998 0 0 1 61.847656 4.9082031 z M 67.234375 4.9082031 A 0.6478998 0.6478998 0 0 1 67.890625 5.5644531 L 67.890625 10.193359 A 0.6478998 0.6478998 0 1 1 66.595703 10.193359 L 66.595703 5.5644531 A 0.6478998 0.6478998 0 0 1 67.234375 4.9082031 z M 99.181641 4.9082031 A 0.6478998 0.6478998 0 0 1 99.837891 5.5644531 L 99.837891 10.193359 A 0.6478998 0.6478998 0 1 1 98.542969 10.193359 L 98.542969 5.5644531 A 0.6478998 0.6478998 0 0 1 99.181641 4.9082031 z M 104.56836 4.9082031 A 0.6478998 0.6478998 0 0 1 105.22656 5.5644531 L 105.22656 10.193359 A 0.648435 0.648435 0 0 1 103.92969 10.193359 L 103.92969 5.5644531 A 0.6478998 0.6478998 0 0 1 104.56836 4.9082031 z M 1.2558594 5.6484375 A 0.6478998 0.6478998 0 0 1 1.9121094 6.3066406 L 1.9121094 8.7128906 A 0.6478998 0.6478998 0 1 1 0.6171875 8.7128906 L 0.6171875 6.3066406 A 0.6478998 0.6478998 0 0 1 1.2558594 5.6484375 z M 14.720703 5.6484375 A 0.6478998 0.6478998 0 0 1 15.376953 6.3066406 L 15.376953 8.7128906 A 0.6478998 0.6478998 0 1 1 14.082031 8.7128906 L 14.082031 6.3066406 A 0.6478998 0.6478998 0 0 1 14.720703 5.6484375 z M 20.779297 5.6484375 A 0.6478998 0.6478998 0 0 1 21.435547 6.3066406 L 21.435547 8.7128906 A 0.6478998 0.6478998 0 1 1 20.140625 8.7128906 L 20.140625 6.3066406 A 0.6478998 0.6478998 0 0 1 20.779297 5.6484375 z M 31.552734 5.6484375 A 0.6478998 0.6478998 0 0 1 32.208984 6.3066406 L 32.208984 8.7128906 A 0.6478998 0.6478998 0 1 1 30.914062 8.7128906 L 30.914062 6.3066406 A 0.6478998 0.6478998 0 0 1 31.552734 5.6484375 z M 38.957031 5.6484375 A 0.6478998 0.6478998 0 0 1 39.613281 6.3066406 L 39.613281 8.7128906 A 0.6478998 0.6478998 0 1 1 38.318359 8.7128906 L 38.318359 6.3066406 A 0.6478998 0.6478998 0 0 1 38.957031 5.6484375 z M 52.421875 5.6484375 A 0.6478998 0.6478998 0 0 1 53.078125 6.3066406 L 53.078125 8.7128906 A 0.6478998 0.6478998 0 1 1 51.783203 8.7128906 L 51.783203 6.3066406 A 0.6478998 0.6478998 0 0 1 52.421875 5.6484375 z M 59.154297 5.6484375 A 0.6478998 0.6478998 0 0 1 59.810547 6.3066406 L 59.810547 8.7128906 A 0.6478998 0.6478998 0 1 1 58.515625 8.7128906 L 58.515625 6.3066406 A 0.6478998 0.6478998 0 0 1 59.154297 5.6484375 z M 69.925781 5.6484375 A 0.6478998 0.6478998 0 0 1 70.582031 6.3066406 L 70.582031 8.7128906 A 0.6478998 0.6478998 0 1 1 69.287109 8.7128906 L 69.287109 6.3066406 A 0.6478998 0.6478998 0 0 1 69.925781 5.6484375 z M 76.404297 5.6484375 A 0.6478998 0.6478998 0 0 1 77.060547 6.3066406 L 77.060547 8.7128906 A 0.6478998 0.6478998 0 1 1 75.765625 8.7128906 L 75.765625 6.3066406 A 0.6478998 0.6478998 0 0 1 76.404297 5.6484375 z M 89.869141 5.6484375 A 0.6478998 0.6478998 0 0 1 90.525391 6.3066406 L 90.525391 8.7128906 A 0.6478998 0.6478998 0 1 1 89.230469 8.7128906 L 89.230469 6.3066406 A 0.6478998 0.6478998 0 0 1 89.869141 5.6484375 z M 96.488281 5.6484375 A 0.6478998 0.6478998 0 0 1 97.144531 6.3066406 L 97.144531 8.7128906 A 0.6478998 0.6478998 0 1 1 95.849609 8.7128906 L 95.849609 6.3066406 A 0.6478998 0.6478998 0 0 1 96.488281 5.6484375 z M 107.25977 5.6484375 A 0.6478998 0.6478998 0 0 1 107.91602 6.3066406 L 107.91602 8.7128906 A 0.6478998 0.6478998 0 1 1 106.62109 8.7128906 L 106.62109 6.3066406 A 0.6478998 0.6478998 0 0 1 107.25977 5.6484375 z "
     style="fill:#ffffff;fill-opacity:1;stroke:none;stroke-width:4.78110218;stroke-linecap:round;stroke-linejoin:round;stroke-miterlimit:4;stroke-dasharray:none;stroke-dashoffset:26.45999908;stroke-opacity:1" />
</svg>
