<svg width="217" height="204" viewBox="0 0 217 204" fill="none" xmlns="http://www.w3.org/2000/svg">
<path d="M76.8025 28.2953C59.8063 24.7307 45.9621 34.0298 40.033 50.5586C58.8707 53.6459 74.217 41.6153 76.8025 28.2953Z" fill="#3F1A6F"/>
<path d="M98.1735 20.9693C83.448 30.4553 79.9788 46.7044 75.1865 59.2648C95.1716 52.2408 104.147 34.4663 98.1735 20.9693Z" fill="#3F1A6F"/>
<path d="M56.1323 13.3228C75.0477 3.32708 94.3498 -1.82568 104.025 9.86291C90.516 15.425 76.14 19.6838 56.1323 13.3228Z" fill="#3F1A6F"/>
<path d="M77.5297 -17.8518C96.9051 -23.6834 116.363 -18.0715 126.042 -4.87097C110.942 0.324 90.7912 1.4509 77.5297 -17.8518Z" fill="#3F1A6F"/>
<path d="M97.2479 -38.5153C118.228 -47.0897 146.253 -42.4893 155.381 -28.2951C139.305 -23.8228 109.668 -17.8122 97.2479 -38.5153Z" fill="#3F1A6F"/>
<path d="M120.812 5.9942C109.294 20.1497 101.019 36.9425 109.338 50.6469C121.72 41.6879 133.406 25.3572 120.812 5.9942Z" fill="#3F1A6F"/>
<path d="M149.52 -11.3878C132.792 1.80485 131.165 23.0495 140.305 38.0555C153.855 28.2183 163.354 9.81305 149.52 -11.3878Z" fill="#3F1A6F"/>
<path d="M76.8025 28.2953C106.583 15.8776 155.907 -16.8102 179.756 -35.9904L175.481 -38.8041C151.683 -12.6974 103.87 13.9681 76.8025 28.2953Z" fill="#3F1A6F"/>
<path d="M190.312 116.327C204.598 126.893 207.453 143.915 199.646 159.857C184.433 147.551 182.508 127.494 190.312 116.327Z" fill="#3F1A6F"/>
<path d="M180.846 94.8984C184.174 112.724 174.872 126.589 169.137 138.923C160.41 118.765 167.012 99.6287 180.846 94.8984Z" fill="#3F1A6F"/>
<path d="M215.342 121.841C209.492 100.453 199.889 82.1081 184.804 82.7547C190.117 96.9428 196.966 110.896 215.342 121.841Z" fill="#3F1A6F"/>
<path d="M223.022 83.945C213.857 65.0759 196.399 54.0355 180.224 55.7225C186.899 70.8764 199.984 87.0947 223.022 83.945Z" fill="#3F1A6F"/>
<path d="M224.296 54.5846C215.998 32.5945 193.359 14.2912 176.849 17.0857C184.717 32.4893 200.83 59.345 224.296 54.5846Z" fill="#3F1A6F"/>
<path d="M176.011 67.2231C173.767 85.8116 167.387 103.733 151.787 106.81C149.696 91.1432 153.39 70.9262 176.011 67.2231Z" fill="#3F1A6F"/>
<path d="M168.723 33.2372C170.765 55.154 156.597 71.0519 139.493 74.3964C137.228 57.2289 143.924 37.2566 168.723 33.2372Z" fill="#3F1A6F"/>
<path d="M190.312 116.327C178.711 84.9428 168.22 24.6027 165.578 -6.89954L170.551 -5.564C168.174 30.6765 181.956 85.7046 190.312 116.327Z" fill="#3F1A6F"/>
<path d="M102.166 121.75C88.7547 108.412 92.3072 95.8657 97.0905 88.8886C105.67 93.4987 106.923 110.077 102.166 121.75Z" fill="#3F1A6F"/>
<path d="M157.045 158.165C144.776 154.821 142.616 146.126 143.043 140.327C149.572 140.129 155.877 149.577 157.045 158.165Z" fill="#3F1A6F"/>
</svg>
