<svg width="27" height="23" viewBox="0 0 27 23" fill="none" xmlns="http://www.w3.org/2000/svg">
<path d="M24.5 9.49902C22.5 13.499 23.5 13.499 13 20.999C7 16.499 1.5 14.298 1.5 8.49902C1.5 2.70003 7 1.5002 13.5 2.99999C21.5 0.5 25.5 4.49902 24.5 9.49902Z" fill="#F8C74B"/>
<path d="M18.9114 1.00049C16.8259 0.989183 14.8433 1.91846 13.5 3.53697C12.165 1.9074 10.177 0.975478 8.08857 1.00049C4.17365 1.00049 1 4.22049 1 8.19259C1 14.9995 12.7088 21.6457 13.1835 21.9026C13.3751 22.0325 13.6249 22.0325 13.8165 21.9026C14.2912 21.6457 26 15.0958 26 8.19259C26 4.22049 22.8263 1.00049 18.9114 1.00049ZM13.5 20.6183C11.6645 19.5267 2.26582 13.7152 2.26582 8.19259C2.26582 4.92982 4.87276 2.28474 8.08863 2.28474C10.0579 2.2585 11.9009 3.26632 12.962 4.94967C13.1775 5.25111 13.5931 5.31828 13.8902 5.09962C13.9469 5.05783 13.9968 5.00725 14.038 4.94967C15.7979 2.21886 19.4065 1.45262 22.098 3.23823C23.7456 4.33136 24.7374 6.19514 24.7341 8.19253C24.7342 13.7793 15.3354 19.5587 13.5 20.6183Z" fill="#F8C74B" stroke="#F8C74B" stroke-width="0.6"/>
</svg>
