<?xml version="1.0" encoding="UTF-8"?>
<svg fill="none" version="1.1" viewBox="0 0 1920 999">
<path d="m654.76 566.57c72.217-26.031 146.6 26.903 210.74 52.934l98.864 106.48c72.526 83.392 159.21 184.7 168.14 181.08l247.5 91.942 540-233.89v-765.11l-1920 2.0921e-4v567.5c53.371-21.778 256.58-33.642 363-36.5 133.03-3.573 219.55 61.597 291.76 35.566z" fill="none" fillOpacity="0.3"/>
<path d="m595.44 207.77c-0.145-0.141-0.381 0.013-0.31 0.203l1.33 3.562c0.026 0.069 9e-3 0.146-0.042 0.199l-2.651 2.728c-0.141 0.145 0.013 0.381 0.203 0.31l3.566-1.329c0.069-0.026 0.146-9e-3 0.199 0.042l2.73 2.648c0.146 0.141 0.382-0.013 0.311-0.202l-1.331-3.563c-0.025-0.069-9e-3 -0.146 0.042-0.198l2.651-2.729c0.141-0.145-0.013-0.38-0.203-0.31l-3.565 1.329c-0.069 0.026-0.147 0.01-0.199-0.041l-2.731-2.649z" fill="#FFE8AC"/>
<path d="m645.08 294.18c-4e-3 -0.202-0.28-0.258-0.363-0.073l-1.557 3.469c-0.03 0.067-0.096 0.111-0.169 0.112l-3.806 0.083c-0.202 4e-3 -0.258 0.28-0.073 0.363l3.473 1.555c0.067 0.03 0.11 0.096 0.112 0.169l0.082 3.802c5e-3 0.202 0.281 0.258 0.364 0.073l1.557-3.469c0.03-0.067 0.096-0.111 0.169-0.112l3.805-0.082c0.203-5e-3 0.259-0.281 0.074-0.364l-3.473-1.555c-0.067-0.03-0.111-0.096-0.112-0.169l-0.083-3.802z" fill="#FFE8AC"/>
<path d="m532.85 352.77c-0.045-0.197-0.326-0.197-0.371 0l-0.836 3.709c-0.016 0.072-0.072 0.128-0.144 0.144l-3.713 0.835c-0.198 0.045-0.198 0.326 0 0.371l3.713 0.835c0.072 0.017 0.128 0.072 0.144 0.144l0.836 3.709c0.045 0.198 0.326 0.198 0.371 0l0.836-3.709c0.017-0.072 0.072-0.127 0.144-0.144l3.713-0.835c0.198-0.045 0.198-0.326 0-0.371l-3.713-0.835c-0.072-0.016-0.127-0.072-0.144-0.144l-0.836-3.709z" fill="#FFE8AC"/>
<path d="m663.03 419.22c-0.045-0.198-0.326-0.198-0.371 0l-0.836 3.709c-0.016 0.072-0.072 0.127-0.144 0.144l-3.713 0.835c-0.197 0.045-0.197 0.326 0 0.371l3.713 0.835c0.072 0.016 0.128 0.072 0.144 0.144l0.836 3.709c0.045 0.197 0.326 0.197 0.371 0l0.836-3.709c0.016-0.072 0.072-0.128 0.144-0.144l3.713-0.835c0.198-0.045 0.198-0.326 0-0.371l-3.713-0.835c-0.072-0.017-0.128-0.072-0.144-0.144l-0.836-3.709z" fill="#FFE8AC"/>
<path d="m806.13 404.16c-0.096-0.178-0.367-0.101-0.357 0.101l0.2 3.797c4e-3 0.073-0.035 0.142-0.1 0.177l-3.348 1.808c-0.178 0.096-0.102 0.367 0.101 0.357l3.8-0.2c0.074-4e-3 0.143 0.035 0.178 0.099l1.81 3.345c0.096 0.178 0.367 0.102 0.357-0.1l-0.2-3.797c-4e-3 -0.073 0.035-0.142 0.099-0.177l3.348-1.808c0.179-0.097 0.102-0.368-0.1-0.357l-3.801 0.2c-0.073 3e-3 -0.142-0.035-0.177-0.1l-1.81-3.345z" fill="#FFE8AC"/>
<path d="m764.21 335.15c-0.045-0.197-0.327-0.197-0.371 0l-0.837 3.71c-0.016 0.071-0.072 0.127-0.143 0.143l-3.713 0.836c-0.198 0.044-0.198 0.326 0 0.37l3.713 0.836c0.071 0.016 0.127 0.072 0.143 0.143l0.837 3.709c0.044 0.198 0.326 0.198 0.371 0l0.836-3.709c0.016-0.071 0.072-0.127 0.144-0.143l3.712-0.836c0.198-0.044 0.198-0.326 0-0.37l-3.712-0.836c-0.072-0.016-0.128-0.072-0.144-0.143l-0.836-3.71z" fill="#FFE8AC"/>
<path d="m960.21 156.15c-0.045-0.197-0.327-0.197-0.371 0l-0.837 3.71c-0.016 0.071-0.072 0.127-0.143 0.143l-3.713 0.836c-0.198 0.044-0.198 0.326 0 0.37l3.713 0.836c0.071 0.016 0.127 0.072 0.143 0.143l0.837 3.709c0.044 0.198 0.326 0.198 0.371 0l0.836-3.709c0.016-0.071 0.072-0.127 0.144-0.143l3.712-0.836c0.198-0.044 0.198-0.326 0-0.37l-3.712-0.836c-0.072-0.016-0.128-0.072-0.144-0.143l-0.836-3.71z" fill="#FFE8AC"/>
<path d="m898.21 94.148c-0.045-0.1976-0.327-0.1976-0.371 0l-0.837 3.7093c-0.016 0.0715-0.072 0.1274-0.143 0.1435l-3.713 0.8355c-0.198 0.0445-0.198 0.326 0 0.3705l3.713 0.8359c0.071 0.016 0.127 0.072 0.143 0.143l0.837 3.709c0.044 0.198 0.326 0.198 0.371 0l0.836-3.709c0.016-0.071 0.072-0.127 0.144-0.143l3.712-0.8359c0.198-0.0445 0.198-0.326 0-0.3705l-3.712-0.8355c-0.072-0.0161-0.128-0.072-0.144-0.1435l-0.836-3.7093z" fill="#FFE8AC"/>
<path d="m486.21 82.148c-0.045-0.1975-0.327-0.1975-0.371 0l-0.837 3.7093c-0.016 0.0716-0.072 0.1274-0.143 0.1435l-3.713 0.8356c-0.198 0.0445-0.198 0.3259 0 0.3704l3.713 0.8356c0.071 0.0161 0.127 0.072 0.143 0.1435l0.837 3.7093c0.044 0.1975 0.326 0.1975 0.371 0l0.836-3.7093c0.016-0.0715 0.072-0.1274 0.144-0.1435l3.712-0.8356c0.198-0.0445 0.198-0.3259 0-0.3704l-3.712-0.8356c-0.072-0.0161-0.128-0.0719-0.144-0.1435l-0.836-3.7093z" fill="#FFE8AC"/>
<path d="m144.21 52.148c-0.045-0.1976-0.327-0.1976-0.371 0l-0.837 3.7093c-0.016 0.0715-0.072 0.1274-0.143 0.1435l-3.713 0.8355c-0.198 0.0445-0.198 0.326 0 0.3705l3.713 0.8356c0.071 0.0161 0.127 0.0719 0.143 0.1435l0.837 3.7093c0.044 0.1975 0.326 0.1975 0.371 0l0.836-3.7093c0.016-0.0716 0.072-0.1274 0.144-0.1435l3.712-0.8356c0.198-0.0445 0.198-0.326 0-0.3705l-3.712-0.8355c-0.072-0.0161-0.128-0.072-0.144-0.1435l-0.836-3.7093z" fill="#FFE8AC"/>
<path d="m632.21 162.15c-0.045-0.197-0.327-0.197-0.371 0l-0.837 3.709c-0.016 0.072-0.072 0.128-0.143 0.144l-3.713 0.835c-0.198 0.045-0.198 0.326 0 0.371l3.713 0.835c0.071 0.017 0.127 0.072 0.143 0.144l0.837 3.709c0.044 0.198 0.326 0.198 0.371 0l0.836-3.709c0.016-0.072 0.072-0.127 0.144-0.144l3.712-0.835c0.198-0.045 0.198-0.326 0-0.371l-3.712-0.835c-0.072-0.016-0.128-0.072-0.144-0.144l-0.836-3.709z" fill="#FFE8AC"/>
<path d="m756.21 121.15c-0.045-0.197-0.327-0.197-0.371 0l-0.837 3.71c-0.016 0.071-0.072 0.127-0.143 0.143l-3.713 0.836c-0.198 0.044-0.198 0.326 0 0.37l3.713 0.836c0.071 0.016 0.127 0.072 0.143 0.143l0.837 3.709c0.044 0.198 0.326 0.198 0.371 0l0.836-3.709c0.016-0.071 0.072-0.127 0.144-0.143l3.712-0.836c0.198-0.044 0.198-0.326 0-0.37l-3.712-0.836c-0.072-0.016-0.128-0.072-0.144-0.143l-0.836-3.71z" fill="#FFE8AC"/>
<path d="m948.21 351.15c-0.045-0.197-0.327-0.197-0.371 0l-0.837 3.71c-0.016 0.071-0.072 0.127-0.143 0.143l-3.713 0.836c-0.198 0.044-0.198 0.326 0 0.37l3.713 0.836c0.071 0.016 0.127 0.072 0.143 0.143l0.837 3.709c0.044 0.198 0.326 0.198 0.371 0l0.836-3.709c0.016-0.071 0.072-0.127 0.144-0.143l3.712-0.836c0.198-0.044 0.198-0.326 0-0.37l-3.712-0.836c-0.072-0.016-0.128-0.072-0.144-0.143l-0.836-3.71z" fill="#FFE8AC"/>
<path d="m938.21 229.15c-0.045-0.197-0.327-0.197-0.371 0l-0.837 3.71c-0.016 0.071-0.072 0.127-0.143 0.143l-3.713 0.836c-0.198 0.044-0.198 0.326 0 0.37l3.713 0.836c0.071 0.016 0.127 0.072 0.143 0.143l0.837 3.709c0.044 0.198 0.326 0.198 0.371 0l0.836-3.709c0.016-0.071 0.072-0.127 0.144-0.143l3.712-0.836c0.198-0.044 0.198-0.326 0-0.37l-3.712-0.836c-0.072-0.016-0.128-0.072-0.144-0.143l-0.836-3.71z" fill="#FFE8AC"/>
<path d="m795.21 26.148c-0.045-0.1976-0.327-0.1976-0.371 0l-0.837 3.7093c-0.016 0.0715-0.072 0.1274-0.143 0.1435l-3.713 0.8355c-0.198 0.0445-0.198 0.326 0 0.3705l3.713 0.8356c0.071 0.0161 0.127 0.0719 0.143 0.1435l0.837 3.7093c0.044 0.1975 0.326 0.1975 0.371 0l0.836-3.7093c0.016-0.0716 0.072-0.1274 0.144-0.1435l3.712-0.8356c0.198-0.0445 0.198-0.326 0-0.3705l-3.712-0.8355c-0.072-0.0161-0.128-0.072-0.144-0.1435l-0.836-3.7093z" fill="#FFE8AC"/>
<path d="m1079.2 133.15c-0.04-0.197-0.32-0.197-0.37 0l-0.84 3.71c-0.01 0.071-0.07 0.127-0.14 0.143l-3.71 0.836c-0.2 0.044-0.2 0.326 0 0.37l3.71 0.836c0.07 0.016 0.13 0.072 0.14 0.143l0.84 3.709c0.05 0.198 0.33 0.198 0.37 0l0.84-3.709c0.01-0.071 0.07-0.127 0.14-0.143l3.71-0.836c0.2-0.044 0.2-0.326 0-0.37l-3.71-0.836c-0.07-0.016-0.13-0.072-0.14-0.143l-0.84-3.71z" fill="#FFE8AC"/>
<path d="m1058.2 401.15c-0.04-0.197-0.32-0.197-0.37 0l-0.84 3.709c-0.01 0.072-0.07 0.128-0.14 0.144l-3.71 0.836c-0.2 0.044-0.2 0.325 0 0.37l3.71 0.836c0.07 0.016 0.13 0.072 0.14 0.143l0.84 3.709c0.05 0.198 0.33 0.198 0.37 0l0.84-3.709c0.01-0.071 0.07-0.127 0.14-0.143l3.71-0.836c0.2-0.045 0.2-0.326 0-0.37l-3.71-0.836c-0.07-0.016-0.13-0.072-0.14-0.144l-0.84-3.709z" fill="#FFE8AC"/>
<path d="m969.21 423.15c-0.045-0.197-0.327-0.197-0.371 0l-0.837 3.709c-0.016 0.072-0.072 0.128-0.143 0.144l-3.713 0.836c-0.198 0.044-0.198 0.325 0 0.37l3.713 0.836c0.071 0.016 0.127 0.072 0.143 0.143l0.837 3.709c0.044 0.198 0.326 0.198 0.371 0l0.836-3.709c0.016-0.071 0.072-0.127 0.144-0.143l3.712-0.836c0.198-0.045 0.198-0.326 0-0.37l-3.712-0.836c-0.072-0.016-0.128-0.072-0.144-0.144l-0.836-3.709z" fill="#FFE8AC"/>
<path d="m1063.2 516.15c-0.04-0.197-0.32-0.197-0.37 0l-0.84 3.71c-0.01 0.071-0.07 0.127-0.14 0.143l-3.71 0.836c-0.2 0.044-0.2 0.326 0 0.37l3.71 0.836c0.07 0.016 0.13 0.072 0.14 0.143l0.84 3.709c0.05 0.198 0.33 0.198 0.37 0l0.84-3.709c0.01-0.071 0.07-0.127 0.14-0.143l3.71-0.836c0.2-0.044 0.2-0.326 0-0.37l-3.71-0.836c-0.07-0.016-0.13-0.072-0.14-0.143l-0.84-3.71z" fill="#FFE8AC"/>
<path d="m732.74 474.29c-0.069-0.19-0.349-0.155-0.368 0.046l-0.368 3.785c-7e-3 0.073-0.055 0.135-0.124 0.16l-3.58 1.291c-0.191 0.069-0.156 0.348 0.046 0.368l3.788 0.367c0.073 7e-3 0.136 0.055 0.161 0.124l1.292 3.577c0.069 0.19 0.348 0.155 0.368-0.046l0.367-3.785c7e-3 -0.073 0.056-0.135 0.125-0.16l3.58-1.291c0.19-0.069 0.155-0.348-0.046-0.368l-3.789-0.367c-0.073-7e-3 -0.135-0.055-0.16-0.124l-1.292-3.577z" fill="#FFE8AC"/>
<path d="m890.07 509.51c-7e-3 -0.202-0.285-0.253-0.364-0.067l-1.499 3.495c-0.028 0.068-0.094 0.112-0.167 0.115l-3.803 0.147c-0.203 7e-3 -0.254 0.284-0.068 0.364l3.499 1.497c0.068 0.029 0.112 0.094 0.115 0.167l0.147 3.799c7e-3 0.203 0.285 0.254 0.364 0.068l1.499-3.495c0.028-0.068 0.094-0.113 0.167-0.115l3.803-0.147c0.203-8e-3 0.254-0.284 0.068-0.364l-3.499-1.497c-0.068-0.029-0.112-0.094-0.115-0.167l-0.147-3.8z" fill="#FFE8AC"/>
<path d="m888.23 435.36c-0.045-0.198-0.327-0.198-0.371 0l-0.837 3.709c-0.016 0.072-0.072 0.128-0.143 0.144l-3.713 0.835c-0.198 0.045-0.198 0.326 0 0.371l3.713 0.835c0.071 0.016 0.127 0.072 0.143 0.144l0.837 3.709c0.044 0.198 0.326 0.198 0.371 0l0.836-3.709c0.016-0.072 0.072-0.128 0.144-0.144l3.712-0.835c0.198-0.045 0.198-0.326 0-0.371l-3.712-0.835c-0.072-0.016-0.128-0.072-0.144-0.144l-0.836-3.709z" fill="#FFE8AC"/>
<path d="m515.24 413.78c0.015-0.202-0.255-0.283-0.355-0.107l-1.873 3.31c-0.036 0.064-0.106 0.101-0.179 0.096l-3.796-0.271c-0.202-0.015-0.284 0.255-0.107 0.354l3.313 1.872c0.064 0.036 0.101 0.105 0.096 0.178l-0.271 3.793c-0.015 0.202 0.255 0.283 0.355 0.107l1.873-3.31c0.036-0.064 0.105-0.101 0.179-0.096l3.796 0.271c0.202 0.015 0.283-0.255 0.107-0.354l-3.313-1.872c-0.064-0.036-0.102-0.105-0.096-0.178l0.271-3.793z" fill="#FFE8AC"/>
<path d="m711.45 251.51c-0.119-0.164-0.377-0.053-0.34 0.146l0.698 3.738c0.014 0.072-0.016 0.145-0.075 0.188l-3.081 2.233c-0.164 0.119-0.052 0.378 0.147 0.341l3.741-0.698c0.072-0.014 0.146 0.016 0.189 0.075l2.235 3.078c0.119 0.163 0.378 0.052 0.341-0.147l-0.699-3.737c-0.013-0.073 0.016-0.146 0.075-0.189l3.081-2.233c0.164-0.119 0.053-0.377-0.147-0.34l-3.741 0.698c-0.072 0.013-0.145-0.016-0.189-0.076l-2.235-3.077z" fill="#FFE8AC"/>
<path d="m452.08 462.89c-0.045-0.198-0.327-0.198-0.371 0l-0.836 3.709c-0.017 0.072-0.072 0.128-0.144 0.144l-3.713 0.835c-0.198 0.045-0.198 0.326 0 0.371l3.713 0.835c0.072 0.016 0.127 0.072 0.144 0.144l0.836 3.709c0.044 0.198 0.326 0.198 0.371 0l0.836-3.709c0.016-0.072 0.072-0.128 0.144-0.144l3.713-0.835c0.197-0.045 0.197-0.326 0-0.371l-3.713-0.835c-0.072-0.016-0.128-0.072-0.144-0.144l-0.836-3.709z" fill="#FFE8AC"/>
<path d="m519.54 199.93c-0.045-0.197-0.326-0.197-0.371 0l-0.836 3.709c-0.016 0.072-0.072 0.128-0.144 0.144l-3.713 0.836c-0.198 0.044-0.198 0.325 0 0.37l3.713 0.836c0.072 0.016 0.128 0.072 0.144 0.143l0.836 3.709c0.045 0.198 0.326 0.198 0.371 0l0.836-3.709c0.016-0.071 0.072-0.127 0.144-0.143l3.713-0.836c0.197-0.045 0.197-0.326 0-0.37l-3.713-0.836c-0.072-0.016-0.128-0.072-0.144-0.144l-0.836-3.709z" fill="#FFE8AC"/>
<path d="m444.48 227.46c-0.045-0.198-0.326-0.198-0.371 0l-0.836 3.709c-0.016 0.072-0.072 0.128-0.144 0.144l-3.713 0.835c-0.197 0.045-0.197 0.326 0 0.371l3.713 0.835c0.072 0.016 0.128 0.072 0.144 0.144l0.836 3.709c0.045 0.198 0.326 0.198 0.371 0l0.836-3.709c0.016-0.072 0.072-0.128 0.144-0.144l3.713-0.835c0.198-0.045 0.198-0.326 0-0.371l-3.713-0.835c-0.072-0.016-0.128-0.072-0.144-0.144l-0.836-3.709z" fill="#FFE8AC"/>
<path d="m444.48 145.82c-0.045-0.198-0.326-0.198-0.371 0l-0.836 3.709c-0.016 0.072-0.072 0.127-0.144 0.144l-3.713 0.835c-0.197 0.045-0.197 0.326 0 0.371l3.713 0.835c0.072 0.016 0.128 0.072 0.144 0.144l0.836 3.709c0.045 0.197 0.326 0.197 0.371 0l0.836-3.709c0.016-0.072 0.072-0.128 0.144-0.144l3.713-0.835c0.198-0.045 0.198-0.326 0-0.371l-3.713-0.835c-0.072-0.017-0.128-0.072-0.144-0.144l-0.836-3.709z" fill="#FFE8AC"/>
<path d="m590.62 359.54c0 0.524 0.426 0.949 0.951 0.949 0.524 0 0.95-0.425 0.95-0.949s-0.426-0.949-0.95-0.949c-0.525 0-0.951 0.425-0.951 0.949z" fill="#FFE8AC"/>
<path d="m538.36 301.63c0 0.524 0.425 0.95 0.95 0.95s0.95-0.426 0.95-0.95-0.425-0.949-0.95-0.949-0.95 0.425-0.95 0.949z" fill="#FFE8AC"/>
<path d="m564.97 424.09c0 0.525 0.426 0.95 0.95 0.95 0.525 0 0.951-0.425 0.951-0.95 0-0.524-0.426-0.949-0.951-0.949-0.524 0-0.95 0.425-0.95 0.949z" fill="#FFE8AC"/>
<path d="m655.24 370.93c0 0.524 0.425 0.949 0.95 0.949s0.95-0.425 0.95-0.949-0.425-0.949-0.95-0.949-0.95 0.425-0.95 0.949z" fill="#FFE8AC"/>
<path d="m617 252.95c0 0.525 0.425 0.95 0.95 0.95s0.95-0.425 0.95-0.95c0-0.524-0.425-0.949-0.95-0.949s-0.95 0.425-0.95 0.949z" fill="#FFE8AC"/>
<path d="m489.9 286.44c0 0.525 0.426 0.95 0.951 0.95 0.524 0 0.95-0.425 0.95-0.95 0-0.524-0.426-0.949-0.95-0.949-0.525 0-0.951 0.425-0.951 0.949z" fill="#FFE8AC"/>
<path d="m459.49 198.16c0 0.524 0.426 0.949 0.95 0.949 0.525 0 0.951-0.425 0.951-0.949 0-0.525-0.426-0.95-0.951-0.95-0.524 0-0.95 0.425-0.95 0.95z" fill="#FFE8AC"/>
<path d="m473.75 145.94c0 0.524 0.425 0.949 0.95 0.949s0.95-0.425 0.95-0.949-0.425-0.95-0.95-0.95-0.95 0.426-0.95 0.95z" fill="#FFE8AC"/>
<path d="m576 80.949c0 0.5243 0.425 0.9493 0.95 0.9493s0.95-0.425 0.95-0.9493-0.425-0.9493-0.95-0.9493-0.95 0.425-0.95 0.9493z" fill="#FFE8AC"/>
<path d="m662 81.949c0 0.5243 0.425 0.9493 0.95 0.9493s0.95-0.425 0.95-0.9493-0.425-0.9493-0.95-0.9493-0.95 0.425-0.95 0.9493z" fill="#FFE8AC"/>
<path d="m301 48.949c0 0.5243 0.425 0.9493 0.95 0.9493s0.95-0.425 0.95-0.9493-0.425-0.9493-0.95-0.9493-0.95 0.425-0.95 0.9493z" fill="#FFE8AC"/>
<path d="m195 83.949c0 0.5243 0.425 0.9493 0.95 0.9493s0.95-0.425 0.95-0.9493-0.425-0.9493-0.95-0.9493-0.95 0.425-0.95 0.9493z" fill="#FFE8AC"/>
<path d="m495.6 238.98c0 0.524 0.425 0.949 0.95 0.949s0.95-0.425 0.95-0.949c0-0.525-0.425-0.95-0.95-0.95s-0.95 0.425-0.95 0.95z" fill="#FFE8AC"/>
<path d="m431.94 211.45c0 0.524 0.426 0.949 0.951 0.949 0.524 0 0.95-0.425 0.95-0.949s-0.426-0.95-0.95-0.95c-0.525 0-0.951 0.426-0.951 0.95z" fill="#FFE8AC"/>
<path d="m488 382.32c0 0.524 0.425 0.949 0.95 0.949s0.95-0.425 0.95-0.949c0-0.525-0.425-0.95-0.95-0.95s-0.95 0.425-0.95 0.95z" fill="#FFE8AC"/>
<path d="m713.2 392.76c0 0.524 0.425 0.949 0.95 0.949s0.95-0.425 0.95-0.949-0.425-0.949-0.95-0.949-0.95 0.425-0.95 0.949z" fill="#FFE8AC"/>
<path d="m798.72 480.1c0 0.524 0.425 0.949 0.95 0.949s0.95-0.425 0.95-0.949c0-0.525-0.425-0.95-0.95-0.95s-0.95 0.425-0.95 0.95z" fill="#FFE8AC"/>
<path d="m693.25 457.32c0 0.524 0.425 0.949 0.95 0.949s0.95-0.425 0.95-0.949-0.425-0.949-0.95-0.949-0.95 0.425-0.95 0.949z" fill="#FFE8AC"/>
<path d="m698.95 474.41c0 0.524 0.426 0.949 0.95 0.949 0.525 0 0.951-0.425 0.951-0.949 0-0.525-0.426-0.95-0.951-0.95-0.524 0-0.95 0.425-0.95 0.95z" fill="#FFE8AC"/>
<path d="m619.13 453.52c0 0.524 0.426 0.949 0.95 0.949 0.525 0 0.95-0.425 0.95-0.949s-0.425-0.949-0.95-0.949c-0.524 0-0.95 0.425-0.95 0.949z" fill="#FFE8AC"/>
<path d="m617 393.95c0 0.525 0.425 0.95 0.95 0.95s0.95-0.425 0.95-0.95c0-0.524-0.425-0.949-0.95-0.949s-0.95 0.425-0.95 0.949z" fill="#FFE8AC"/>
<path d="m592 284.95c0 0.525 0.425 0.95 0.95 0.95s0.95-0.425 0.95-0.95c0-0.524-0.425-0.949-0.95-0.949s-0.95 0.425-0.95 0.949z" fill="#FFE8AC"/>
<path d="m545.01 225.69c0 0.525 0.425 0.95 0.95 0.95s0.95-0.425 0.95-0.95c0-0.524-0.425-0.949-0.95-0.949s-0.95 0.425-0.95 0.949z" fill="#FFE8AC"/>
<path d="m564.97 376.63c0 0.524 0.426 0.949 0.95 0.949 0.525 0 0.951-0.425 0.951-0.949s-0.426-0.95-0.951-0.95c-0.524 0-0.95 0.426-0.95 0.95z" fill="#FFE8AC"/>
<path d="m477.55 422.19c0 0.524 0.426 0.949 0.95 0.949 0.525 0 0.951-0.425 0.951-0.949 0-0.525-0.426-0.95-0.951-0.95-0.524 0-0.95 0.425-0.95 0.95z" fill="#FFE8AC"/>
<path d="m466.14 434.54c0 0.524 0.425 0.949 0.95 0.949s0.95-0.425 0.95-0.949c0-0.525-0.425-0.95-0.95-0.95s-0.95 0.425-0.95 0.95z" fill="#FFE8AC"/>
<path d="m486.1 491.49c0 0.525 0.426 0.95 0.951 0.95 0.524 0 0.95-0.425 0.95-0.95 0-0.524-0.426-0.949-0.95-0.949-0.525 0-0.951 0.425-0.951 0.949z" fill="#FFE8AC"/>
<path d="m851.94 410.8c0 0.524 0.426 0.949 0.951 0.949 0.524 0 0.95-0.425 0.95-0.949s-0.426-0.949-0.95-0.949c-0.525 0-0.951 0.425-0.951 0.949z" fill="#FFE8AC"/>
<path d="m754 403.95c0 0.525 0.425 0.95 0.95 0.95s0.95-0.425 0.95-0.95c0-0.524-0.425-0.949-0.95-0.949s-0.95 0.425-0.95 0.949z" fill="#FFE8AC"/>
<path d="m1064 216.95c0 0.525 0.43 0.95 0.95 0.95s0.95-0.425 0.95-0.95c0-0.524-0.43-0.949-0.95-0.949s-0.95 0.425-0.95 0.949z" fill="#FFE8AC"/>
<path d="m831.03 474.41c0 0.524 0.425 0.949 0.95 0.949s0.95-0.425 0.95-0.949c0-0.525-0.425-0.95-0.95-0.95s-0.95 0.425-0.95 0.95z" fill="#FFE8AC"/>
<path d="m910.85 474.41c0 0.524 0.425 0.949 0.95 0.949s0.95-0.425 0.95-0.949c0-0.525-0.425-0.95-0.95-0.95s-0.95 0.425-0.95 0.95z" fill="#FFE8AC"/>
<path d="m1011 536.95c0 0.524 0.43 0.949 0.95 0.949s0.95-0.425 0.95-0.949c0-0.525-0.43-0.95-0.95-0.95s-0.95 0.425-0.95 0.95z" fill="#FFE8AC"/>
<path d="m777.82 261.76c0 0.524 0.426 0.949 0.951 0.949 0.524 0 0.95-0.425 0.95-0.949s-0.426-0.949-0.95-0.949c-0.525 0-0.951 0.425-0.951 0.949z" fill="#FFE8AC"/>
<path d="m778 212.95c0 0.525 0.425 0.95 0.95 0.95s0.95-0.425 0.95-0.95c0-0.524-0.425-0.949-0.95-0.949s-0.95 0.425-0.95 0.949z" fill="#FFE8AC"/>
<path d="m749 196.95c0 0.525 0.425 0.95 0.95 0.95s0.95-0.425 0.95-0.95c0-0.524-0.425-0.949-0.95-0.949s-0.95 0.425-0.95 0.949z" fill="#FFE8AC"/>
<path d="m813 104.95c0 0.525 0.425 0.95 0.95 0.95s0.95-0.425 0.95-0.95c0-0.524-0.425-0.949-0.95-0.949s-0.95 0.425-0.95 0.949z" fill="#FFE8AC"/>
<path d="m829 171.95c0 0.525 0.425 0.95 0.95 0.95s0.95-0.425 0.95-0.95c0-0.524-0.425-0.949-0.95-0.949s-0.95 0.425-0.95 0.949z" fill="#FFE8AC"/>
<path d="m882 239.95c0 0.525 0.425 0.95 0.95 0.95s0.95-0.425 0.95-0.95c0-0.524-0.425-0.949-0.95-0.949s-0.95 0.425-0.95 0.949z" fill="#FFE8AC"/>
<path d="m899 176.95c0 0.525 0.425 0.95 0.95 0.95s0.95-0.425 0.95-0.95c0-0.524-0.425-0.949-0.95-0.949s-0.95 0.425-0.95 0.949z" fill="#FFE8AC"/>
<path d="m1009 268.95c0 0.525 0.43 0.95 0.95 0.95s0.95-0.425 0.95-0.95c0-0.524-0.43-0.949-0.95-0.949s-0.95 0.425-0.95 0.949z" fill="#FFE8AC"/>
<path d="m591 126.95c0 0.525 0.425 0.95 0.95 0.95s0.95-0.425 0.95-0.95c0-0.524-0.425-0.949-0.95-0.949s-0.95 0.425-0.95 0.949z" fill="#FFE8AC"/>
<path d="m851 298.38c0 16.777 13.614 30.378 30.407 30.378 16.794 0 30.407-13.601 30.407-30.378s-13.613-30.378-30.407-30.378c-16.793 0-30.407 13.601-30.407 30.378z" fill="none"/>
<path d="m853.85 292.68c0 13.107 10.636 23.733 23.756 23.733s23.755-10.626 23.755-23.733-10.635-23.733-23.755-23.733-23.756 10.626-23.756 23.733z" fill="none"/>
<path d="m519.16 205.25-75.397-54.481 0.111-0.154 75.688 54.69-75.711 27.592-0.065-0.179 75.374-27.468zm128.7-1.59-58.03 6.652 0.022 0.189 57.897-6.638 23.703 47.361-28.518 49.385 70.372 65.554 0.129-0.139-70.261-65.451 28.494-49.343-23.808-47.57zm-115.03 151.83-44.009 26.806 24.875 36.32 19.134-63.126zm-0.325 1.411-18.875 61.283-24.537-35.827 43.412-25.456zm274.34 52.313-73.746 70.348 0.131 0.137 73.539-70.15 24.695 65.001 56.02-34.148 1.422 73.88 0.19-3e-3 -1.428-74.212-56.107 34.202-24.716-65.055z" clip-rule="evenodd" fill="none" fill-rule="evenodd"/>
<path d="m1503 25.613-7.52 135.42 68.58 74.088 105.79-57.157-105.7-27.553-61.15-124.8zm0.16 0.7755 60.85 124.2 105.3 27.447-105.21 56.842-68.42-73.911 7.48-134.58zm-154.95 65.503-94.25 6.5171 8.51 52.067-39.97 53.465 0.16 0.12 39.98-53.468 74.02-13.505 11.55-45.196zm-85.55 58.493-8.46-51.792 93.75-6.4829-11.45 44.803-73.84 13.471zm-302.55 9.508-60.063-61.462-0.143 0.1398 60.111 61.511 104.63 57.302 15.56-80.509-120.1 23.018zm0.258 0.154 119.58-22.92-15.44 79.95-104.14-57.03z" clip-rule="evenodd" fill="none" fill-rule="evenodd"/>
<path d="m1135 885.16c0 1.43 0.3 2.589 1.73 2.589s2.59-1.159 2.59-2.589c0-1.429-0.73-2.157-2.16-2.157s-2.16 0.728-2.16 2.157z" fill="#D29E60"/>
<path d="m1814.2 597.15c-0.04-0.198-0.32-0.198-0.37 0l-0.84 3.709c-0.01 0.072-0.07 0.128-0.14 0.144l-3.71 0.835c-0.2 0.045-0.2 0.326 0 0.371l3.71 0.835c0.07 0.017 0.13 0.072 0.14 0.144l0.84 3.709c0.05 0.198 0.33 0.198 0.37 0l0.84-3.709c0.01-0.072 0.07-0.127 0.14-0.144l3.71-0.835c0.2-0.045 0.2-0.326 0-0.371l-3.71-0.835c-0.07-0.016-0.13-0.072-0.14-0.144l-0.84-3.709z" fill="#FFE8AC"/>
<path d="m1857.2 535.15c-0.04-0.198-0.32-0.198-0.37 0l-0.84 3.709c-0.01 0.072-0.07 0.128-0.14 0.144l-3.71 0.835c-0.2 0.045-0.2 0.326 0 0.371l3.71 0.835c0.07 0.017 0.13 0.072 0.14 0.144l0.84 3.709c0.05 0.198 0.33 0.198 0.37 0l0.84-3.709c0.01-0.072 0.07-0.127 0.14-0.144l3.71-0.835c0.2-0.045 0.2-0.326 0-0.371l-3.71-0.835c-0.07-0.016-0.13-0.072-0.14-0.144l-0.84-3.709z" fill="#FFE8AC"/>
<path d="m1738.2 471.15c-0.04-0.197-0.32-0.197-0.37 0l-0.84 3.71c-0.01 0.071-0.07 0.127-0.14 0.143l-3.71 0.836c-0.2 0.044-0.2 0.326 0 0.37l3.71 0.836c0.07 0.016 0.13 0.072 0.14 0.143l0.84 3.709c0.05 0.198 0.33 0.198 0.37 0l0.84-3.709c0.01-0.071 0.07-0.127 0.14-0.143l3.71-0.836c0.2-0.044 0.2-0.326 0-0.37l-3.71-0.836c-0.07-0.016-0.13-0.072-0.14-0.143l-0.84-3.71z" fill="#FFE8AC"/>
<path d="m1158 266.95c0 0.524 0.43 0.949 0.95 0.949s0.95-0.425 0.95-0.949-0.43-0.949-0.95-0.949-0.95 0.425-0.95 0.949z" fill="#FFE8AC"/>
<path d="m1112 50.949c0 0.5243 0.43 0.9493 0.95 0.9493s0.95-0.425 0.95-0.9493-0.43-0.9493-0.95-0.9493-0.95 0.425-0.95 0.9493z" fill="#FFE8AC"/>
<path d="m1251 237.95c0 0.524 0.43 0.949 0.95 0.949s0.95-0.425 0.95-0.949-0.43-0.949-0.95-0.949-0.95 0.425-0.95 0.949z" fill="#FFE8AC"/>
<path d="m1472 48.949c0 0.5243 0.43 0.9493 0.95 0.9493s0.95-0.425 0.95-0.9493-0.43-0.9493-0.95-0.9493-0.95 0.425-0.95 0.9493z" fill="#FFE8AC"/>
<path d="m1736 51.949c0 0.5243 0.43 0.9493 0.95 0.9493s0.95-0.425 0.95-0.9493-0.43-0.9493-0.95-0.9493-0.95 0.425-0.95 0.9493z" fill="#FFE8AC"/>
<path d="m1336 333.95c0 0.524 0.43 0.949 0.95 0.949s0.95-0.425 0.95-0.949-0.43-0.949-0.95-0.949-0.95 0.425-0.95 0.949z" fill="#FFE8AC"/>
<path d="m1334 131.95c0 0.525 0.43 0.95 0.95 0.95s0.95-0.425 0.95-0.95c0-0.524-0.43-0.949-0.95-0.949s-0.95 0.425-0.95 0.949z" fill="#FFE8AC"/>
<path d="m1250 97.949c0 0.5243 0.43 0.9493 0.95 0.9493s0.95-0.425 0.95-0.9493-0.43-0.9493-0.95-0.9493-0.95 0.425-0.95 0.9493z" fill="#FFE8AC"/>
<path d="m1487 248.95c0 0.524 0.43 0.949 0.95 0.949s0.95-0.425 0.95-0.949-0.43-0.949-0.95-0.949-0.95 0.425-0.95 0.949z" fill="#FFE8AC"/>
<path d="m1560 148.95c0 0.524 0.43 0.949 0.95 0.949s0.95-0.425 0.95-0.949-0.43-0.949-0.95-0.949-0.95 0.425-0.95 0.949z" fill="#FFE8AC"/>
<path d="m1711 167.95c0 0.524 0.43 0.949 0.95 0.949s0.95-0.425 0.95-0.949-0.43-0.949-0.95-0.949-0.95 0.425-0.95 0.949z" fill="#FFE8AC"/>
<path d="m1659 92.949c0 0.5243 0.43 0.9493 0.95 0.9493s0.95-0.425 0.95-0.9493-0.43-0.9493-0.95-0.9493-0.95 0.425-0.95 0.9493z" fill="#FFE8AC"/>
<path d="m1837 293.95c0 0.524 0.43 0.949 0.95 0.949s0.95-0.425 0.95-0.949-0.43-0.949-0.95-0.949-0.95 0.425-0.95 0.949z" fill="#FFE8AC"/>
<path d="m1856 99.949c0 0.5246 0.43 0.9496 0.95 0.9496s0.95-0.425 0.95-0.9496c0-0.5243-0.43-0.9493-0.95-0.9493s-0.95 0.425-0.95 0.9493z" fill="#FFE8AC"/>
<path d="m1817 323.95c0 0.524 0.43 0.949 0.95 0.949s0.95-0.425 0.95-0.949-0.43-0.949-0.95-0.949-0.95 0.425-0.95 0.949z" fill="#FFE8AC"/>
<path d="m1817 437.95c0 0.524 0.43 0.949 0.95 0.949s0.95-0.425 0.95-0.949-0.43-0.949-0.95-0.949-0.95 0.425-0.95 0.949z" fill="#FFE8AC"/>
<path d="m1786 481.95c0 0.524 0.43 0.949 0.95 0.949s0.95-0.425 0.95-0.949-0.43-0.949-0.95-0.949-0.95 0.425-0.95 0.949z" fill="#FFE8AC"/>
<path d="m1734 580.95c0 0.524 0.43 0.949 0.95 0.949s0.95-0.425 0.95-0.949-0.43-0.949-0.95-0.949-0.95 0.425-0.95 0.949z" fill="#FFE8AC"/>
<path d="m1736 523.95c0 0.524 0.43 0.949 0.95 0.949s0.95-0.425 0.95-0.949-0.43-0.949-0.95-0.949-0.95 0.425-0.95 0.949z" fill="#FFE8AC"/>
<path d="m1661 268.95c0 0.524 0.43 0.949 0.95 0.949s0.95-0.425 0.95-0.949-0.43-0.949-0.95-0.949-0.95 0.425-0.95 0.949z" fill="#FFE8AC"/>
<path d="m1135 155.95c0 0.524 0.43 0.949 0.95 0.949s0.95-0.425 0.95-0.949-0.43-0.949-0.95-0.949-0.95 0.425-0.95 0.949z" fill="#FFE8AC"/>
<path d="m1184 116.95c0 0.524 0.43 0.949 0.95 0.949s0.95-0.425 0.95-0.949-0.43-0.949-0.95-0.949-0.95 0.425-0.95 0.949z" fill="#FFE8AC"/>
<path d="m1265.2 144.15c-0.04-0.197-0.32-0.197-0.37 0l-0.84 3.71c-0.01 0.071-0.07 0.127-0.14 0.143l-3.71 0.836c-0.2 0.044-0.2 0.326 0 0.37l3.71 0.836c0.07 0.016 0.13 0.072 0.14 0.143l0.84 3.709c0.05 0.198 0.33 0.198 0.37 0l0.84-3.709c0.01-0.071 0.07-0.127 0.14-0.143l3.71-0.836c0.2-0.044 0.2-0.326 0-0.37l-3.71-0.836c-0.07-0.016-0.13-0.072-0.14-0.143l-0.84-3.71z" fill="#FFE8AC"/>
<path d="m1711.2 278.15c-0.04-0.198-0.32-0.198-0.37 0l-0.84 3.709c-0.01 0.072-0.07 0.128-0.14 0.144l-3.71 0.835c-0.2 0.045-0.2 0.326 0 0.371l3.71 0.835c0.07 0.017 0.13 0.072 0.14 0.144l0.84 3.709c0.05 0.198 0.33 0.198 0.37 0l0.84-3.709c0.01-0.072 0.07-0.127 0.14-0.144l3.71-0.835c0.2-0.045 0.2-0.326 0-0.371l-3.71-0.835c-0.07-0.016-0.13-0.072-0.14-0.144l-0.84-3.709z" fill="#FFE8AC"/>
<path d="m1793.2 176.15c-0.04-0.198-0.32-0.198-0.37 0l-0.84 3.709c-0.01 0.072-0.07 0.128-0.14 0.144l-3.71 0.835c-0.2 0.045-0.2 0.326 0 0.371l3.71 0.835c0.07 0.017 0.13 0.072 0.14 0.144l0.84 3.709c0.05 0.198 0.33 0.198 0.37 0l0.84-3.709c0.01-0.072 0.07-0.127 0.14-0.144l3.71-0.835c0.2-0.045 0.2-0.326 0-0.371l-3.71-0.835c-0.07-0.016-0.13-0.072-0.14-0.144l-0.84-3.709z" fill="#FFE8AC"/>
<path d="m1622.2 51.148c-0.04-0.1976-0.32-0.1976-0.37 0l-0.84 3.7093c-0.01 0.0715-0.07 0.1274-0.14 0.1435l-3.71 0.8355c-0.2 0.0445-0.2 0.326 0 0.3705l3.71 0.8356c0.07 0.0161 0.13 0.0719 0.14 0.1435l0.84 3.7093c0.05 0.1975 0.33 0.1975 0.37 0l0.84-3.7093c0.01-0.0716 0.07-0.1274 0.14-0.1435l3.71-0.8356c0.2-0.0445 0.2-0.326 0-0.3705l-3.71-0.8355c-0.07-0.0161-0.13-0.072-0.14-0.1435l-0.84-3.7093z" fill="#FFE8AC"/>
<path d="m1847.2 20.148c-0.04-0.1976-0.32-0.1976-0.37 0l-0.84 3.7093c-0.01 0.0715-0.07 0.1274-0.14 0.1435l-3.71 0.8355c-0.2 0.0445-0.2 0.326 0 0.3705l3.71 0.8356c0.07 0.0161 0.13 0.0719 0.14 0.1435l0.84 3.7093c0.05 0.1975 0.33 0.1975 0.37 0l0.84-3.7093c0.01-0.0716 0.07-0.1274 0.14-0.1435l3.71-0.8356c0.2-0.0445 0.2-0.326 0-0.3705l-3.71-0.8355c-0.07-0.0161-0.13-0.072-0.14-0.1435l-0.84-3.7093z" fill="#FFE8AC"/>
<path d="m1857.2 408.15c-0.04-0.198-0.32-0.198-0.37 0l-0.84 3.709c-0.01 0.072-0.07 0.128-0.14 0.144l-3.71 0.835c-0.2 0.045-0.2 0.326 0 0.371l3.71 0.835c0.07 0.017 0.13 0.072 0.14 0.144l0.84 3.709c0.05 0.198 0.33 0.198 0.37 0l0.84-3.709c0.01-0.072 0.07-0.127 0.14-0.144l3.71-0.835c0.2-0.045 0.2-0.326 0-0.371l-3.71-0.835c-0.07-0.016-0.13-0.072-0.14-0.144l-0.84-3.709z" fill="#FFE8AC"/>
<path d="m1495.2 155.15c-0.04-0.197-0.32-0.197-0.37 0l-0.84 3.71c-0.01 0.071-0.07 0.127-0.14 0.143l-3.71 0.836c-0.2 0.044-0.2 0.326 0 0.37l3.71 0.836c0.07 0.016 0.13 0.072 0.14 0.143l0.84 3.709c0.05 0.198 0.33 0.198 0.37 0l0.84-3.709c0.01-0.071 0.07-0.127 0.14-0.143l3.71-0.836c0.2-0.044 0.2-0.326 0-0.37l-3.71-0.836c-0.07-0.016-0.13-0.072-0.14-0.143l-0.84-3.71z" fill="#FFE8AC"/>
<path d="m1338.2 176.15c-0.04-0.198-0.32-0.198-0.37 0l-0.84 3.709c-0.01 0.072-0.07 0.128-0.14 0.144l-3.71 0.835c-0.2 0.045-0.2 0.326 0 0.371l3.71 0.835c0.07 0.017 0.13 0.072 0.14 0.144l0.84 3.709c0.05 0.198 0.33 0.198 0.37 0l0.84-3.709c0.01-0.072 0.07-0.127 0.14-0.144l3.71-0.835c0.2-0.045 0.2-0.326 0-0.371l-3.71-0.835c-0.07-0.016-0.13-0.072-0.14-0.144l-0.84-3.709z" fill="#FFE8AC"/>
<path d="m1223.2 199.15c-0.04-0.197-0.32-0.197-0.37 0l-0.84 3.71c-0.01 0.071-0.07 0.127-0.14 0.143l-3.71 0.836c-0.2 0.044-0.2 0.326 0 0.37l3.71 0.836c0.07 0.016 0.13 0.072 0.14 0.143l0.84 3.709c0.05 0.198 0.33 0.198 0.37 0l0.84-3.709c0.01-0.071 0.07-0.127 0.14-0.143l3.71-0.836c0.2-0.044 0.2-0.326 0-0.37l-3.71-0.836c-0.07-0.016-0.13-0.072-0.14-0.143l-0.84-3.71z" fill="#FFE8AC"/>
<path d="m1565.2 229.15c-0.04-0.197-0.32-0.197-0.37 0l-0.84 3.71c-0.01 0.071-0.07 0.127-0.14 0.143l-3.71 0.836c-0.2 0.044-0.2 0.326 0 0.37l3.71 0.836c0.07 0.016 0.13 0.072 0.14 0.143l0.84 3.709c0.05 0.198 0.33 0.198 0.37 0l0.84-3.709c0.01-0.071 0.07-0.127 0.14-0.143l3.71-0.836c0.2-0.044 0.2-0.326 0-0.37l-3.71-0.836c-0.07-0.016-0.13-0.072-0.14-0.143l-0.84-3.71z" fill="#FFE8AC"/>
<path d="m1348.2 87.148c-0.04-0.1976-0.32-0.1976-0.37 0l-0.84 3.7093c-0.01 0.0715-0.07 0.1274-0.14 0.1435l-3.71 0.8355c-0.2 0.0445-0.2 0.326 0 0.3705l3.71 0.8356c0.07 0.0161 0.13 0.0719 0.14 0.1435l0.84 3.7093c0.05 0.1975 0.33 0.1975 0.37 0l0.84-3.7093c0.01-0.0716 0.07-0.1274 0.14-0.1435l3.71-0.8356c0.2-0.0445 0.2-0.326 0-0.3705l-3.71-0.8355c-0.07-0.0161-0.13-0.072-0.14-0.1435l-0.84-3.7093z" fill="#FFE8AC"/>
<path d="m1668.2 176.15c-0.04-0.197-0.32-0.197-0.37 0l-0.84 3.71c-0.01 0.071-0.07 0.127-0.14 0.143l-3.71 0.836c-0.2 0.044-0.2 0.326 0 0.37l3.71 0.836c0.07 0.016 0.13 0.072 0.14 0.143l0.84 3.709c0.05 0.198 0.33 0.198 0.37 0l0.84-3.709c0.01-0.071 0.07-0.127 0.14-0.143l3.71-0.836c0.2-0.044 0.2-0.326 0-0.37l-3.71-0.836c-0.07-0.016-0.13-0.072-0.14-0.143l-0.84-3.71z" fill="#FFE8AC"/>
<path d="m1505.3 20.148c-0.04-0.1976-0.33-0.1976-0.37 0l-0.84 3.7093c-0.01 0.0715-0.07 0.1274-0.14 0.1435l-3.71 0.8355c-0.2 0.0445-0.2 0.326 0 0.3705l3.71 0.8356c0.07 0.0161 0.13 0.0719 0.14 0.1435l0.84 3.7093c0.04 0.1975 0.33 0.1975 0.37 0l0.84-3.7093c0.01-0.0716 0.07-0.1274 0.14-0.1435l3.71-0.8356c0.2-0.0445 0.2-0.326 0-0.3705l-3.71-0.8355c-0.07-0.0161-0.13-0.072-0.14-0.1435l-0.84-3.7093z" fill="#FFE8AC"/>
<path d="m1391.2 90.148c-0.04-0.1976-0.32-0.1976-0.37 0l-0.84 3.7093c-0.01 0.0715-0.07 0.1274-0.14 0.1435l-3.71 0.8355c-0.2 0.0445-0.2 0.326 0 0.3705l3.71 0.8356c0.07 0.0161 0.13 0.0719 0.14 0.1435l0.84 3.7093c0.05 0.1975 0.33 0.1975 0.37 0l0.84-3.7093c0.01-0.0716 0.07-0.1274 0.14-0.1435l3.71-0.8356c0.2-0.0445 0.2-0.326 0-0.3705l-3.71-0.8355c-0.07-0.0161-0.13-0.072-0.14-0.1435l-0.84-3.7093z" fill="#FFE8AC"/>
</svg>
