<?xml version="1.0" encoding="UTF-8" standalone="no"?>
<svg
   xmlns:dc="http://purl.org/dc/elements/1.1/"
   xmlns:cc="http://creativecommons.org/ns#"
   xmlns:rdf="http://www.w3.org/1999/02/22-rdf-syntax-ns#"
   xmlns:svg="http://www.w3.org/2000/svg"
   xmlns="http://www.w3.org/2000/svg"
   xmlns:sodipodi="http://sodipodi.sourceforge.net/DTD/sodipodi-0.dtd"
   xmlns:inkscape="http://www.inkscape.org/namespaces/inkscape"
   width="1920"
   height="999"
   viewBox="0 0 1920 999"
   fill="none"
   version="1.1"
   id="svg239"
   sodipodi:docname="Sky_max_stars.svg"
   inkscape:version="0.92.5 (2060ec1f9f, 2020-04-08)">
  <metadata
     id="metadata243">
    <rdf:RDF>
      <cc:Work
         rdf:about="">
        <dc:format>image/svg+xml</dc:format>
        <dc:type
           rdf:resource="http://purl.org/dc/dcmitype/StillImage" />
      </cc:Work>
    </rdf:RDF>
  </metadata>
  <sodipodi:namedview
     pagecolor="#ffffff"
     bordercolor="#666666"
     borderopacity="1"
     objecttolerance="10"
     gridtolerance="10"
     guidetolerance="10"
     inkscape:pageopacity="0"
     inkscape:pageshadow="2"
     inkscape:window-width="1280"
     inkscape:window-height="1001"
     id="namedview241"
     showgrid="false"
     inkscape:zoom="0.32851003"
     inkscape:cx="1069.7562"
     inkscape:cy="445.9171"
     inkscape:window-x="0"
     inkscape:window-y="0"
     inkscape:window-maximized="1"
     inkscape:current-layer="svg239" />
  <path
     d="M654.765 566.566C726.982 540.535 801.36 593.469 865.5 619.5L964.364 725.976C1036.89 809.368 1123.57 910.672 1132.5 907.058L1380 999L1920 765.111V0.00012207L0 0.000331279V567.5C53.3711 545.722 256.575 533.858 363 531C496.032 527.427 582.547 592.597 654.765 566.566Z"
     fill="url(#paint0_linear_235_9)"
     fill-opacity="0.3"
     id="path2"
     style="fill:none" />
  <path
     d="M595.444 207.769C595.299 207.628 595.063 207.782 595.134 207.972L596.464 211.534C596.49 211.603 596.473 211.68 596.422 211.733L593.771 214.461C593.63 214.606 593.784 214.842 593.974 214.771L597.54 213.442C597.609 213.416 597.686 213.433 597.739 213.484L600.469 216.132C600.615 216.273 600.851 216.119 600.78 215.93L599.449 212.367C599.424 212.298 599.44 212.221 599.491 212.169L602.142 209.44C602.283 209.295 602.129 209.06 601.939 209.13L598.374 210.459C598.305 210.485 598.227 210.469 598.175 210.418L595.444 207.769Z"
     fill="#FFE8AC"
     id="path4" />
  <path
     d="M645.075 294.179C645.071 293.977 644.795 293.921 644.712 294.106L643.155 297.575C643.125 297.642 643.059 297.686 642.986 297.687L639.18 297.77C638.978 297.774 638.922 298.05 639.107 298.133L642.58 299.688C642.647 299.718 642.69 299.784 642.692 299.857L642.774 303.659C642.779 303.861 643.055 303.917 643.138 303.732L644.695 300.263C644.725 300.196 644.791 300.152 644.864 300.151L648.669 300.069C648.872 300.064 648.928 299.788 648.743 299.705L645.27 298.15C645.203 298.12 645.159 298.054 645.158 297.981L645.075 294.179Z"
     fill="#FFE8AC"
     id="path6" />
  <path
     d="M532.846 352.767C532.801 352.57 532.52 352.57 532.475 352.767L531.639 356.476C531.623 356.548 531.567 356.604 531.495 356.62L527.782 357.455C527.584 357.5 527.584 357.781 527.782 357.826L531.495 358.661C531.567 358.678 531.623 358.733 531.639 358.805L532.475 362.514C532.52 362.712 532.801 362.712 532.846 362.514L533.682 358.805C533.699 358.733 533.754 358.678 533.826 358.661L537.539 357.826C537.737 357.781 537.737 357.5 537.539 357.455L533.826 356.62C533.754 356.604 533.699 356.548 533.682 356.476L532.846 352.767Z"
     fill="#FFE8AC"
     id="path8" />
  <path
     d="M663.027 419.219C662.982 419.021 662.701 419.021 662.656 419.219L661.82 422.928C661.804 423 661.748 423.055 661.676 423.072L657.963 423.907C657.766 423.952 657.766 424.233 657.963 424.278L661.676 425.113C661.748 425.129 661.804 425.185 661.82 425.257L662.656 428.966C662.701 429.163 662.982 429.163 663.027 428.966L663.863 425.257C663.879 425.185 663.935 425.129 664.007 425.113L667.72 424.278C667.918 424.233 667.918 423.952 667.72 423.907L664.007 423.072C663.935 423.055 663.879 423 663.863 422.928L663.027 419.219Z"
     fill="#FFE8AC"
     id="path10" />
  <path
     d="M806.134 404.161C806.038 403.983 805.767 404.06 805.777 404.262L805.977 408.059C805.981 408.132 805.942 408.201 805.877 408.236L802.529 410.044C802.351 410.14 802.427 410.411 802.63 410.401L806.43 410.201C806.504 410.197 806.573 410.236 806.608 410.3L808.418 413.645C808.514 413.823 808.785 413.747 808.775 413.545L808.575 409.748C808.571 409.675 808.61 409.606 808.674 409.571L812.022 407.763C812.201 407.666 812.124 407.395 811.922 407.406L808.121 407.606C808.048 407.609 807.979 407.571 807.944 407.506L806.134 404.161Z"
     fill="#FFE8AC"
     id="path12" />
  <path
     d="M764.212 335.148C764.167 334.951 763.885 334.951 763.841 335.148L763.004 338.858C762.988 338.929 762.932 338.985 762.861 339.001L759.148 339.837C758.95 339.881 758.95 340.163 759.148 340.207L762.861 341.043C762.932 341.059 762.988 341.115 763.004 341.186L763.841 344.895C763.885 345.093 764.167 345.093 764.212 344.895L765.048 341.186C765.064 341.115 765.12 341.059 765.192 341.043L768.904 340.207C769.102 340.163 769.102 339.881 768.904 339.837L765.192 339.001C765.12 338.985 765.064 338.929 765.048 338.858L764.212 335.148Z"
     fill="#FFE8AC"
     id="path14" />
  <path
     d="M960.212 156.148C960.167 155.951 959.885 155.951 959.841 156.148L959.004 159.858C958.988 159.929 958.932 159.985 958.861 160.001L955.148 160.837C954.95 160.881 954.95 161.163 955.148 161.207L958.861 162.043C958.932 162.059 958.988 162.115 959.004 162.186L959.841 165.895C959.885 166.093 960.167 166.093 960.212 165.895L961.048 162.186C961.064 162.115 961.12 162.059 961.192 162.043L964.904 161.207C965.102 161.163 965.102 160.881 964.904 160.837L961.192 160.001C961.12 159.985 961.064 159.929 961.048 159.858L960.212 156.148Z"
     fill="#FFE8AC"
     id="path16" />
  <path
     d="M898.212 94.1483C898.167 93.9507 897.885 93.9507 897.841 94.1483L897.004 97.8576C896.988 97.9291 896.932 97.985 896.861 98.0011L893.148 98.8366C892.95 98.8811 892.95 99.1626 893.148 99.2071L896.861 100.043C896.932 100.059 896.988 100.115 897.004 100.186L897.841 103.895C897.885 104.093 898.167 104.093 898.212 103.895L899.048 100.186C899.064 100.115 899.12 100.059 899.192 100.043L902.904 99.2071C903.102 99.1626 903.102 98.8811 902.904 98.8366L899.192 98.0011C899.12 97.985 899.064 97.9291 899.048 97.8576L898.212 94.1483Z"
     fill="#FFE8AC"
     id="path18" />
  <path
     d="M486.212 82.148C486.167 81.9505 485.885 81.9505 485.841 82.148L485.004 85.8573C484.988 85.9289 484.932 85.9847 484.861 86.0008L481.148 86.8364C480.95 86.8809 480.95 87.1623 481.148 87.2068L484.861 88.0424C484.932 88.0585 484.988 88.1144 485.004 88.1859L485.841 91.8952C485.885 92.0927 486.167 92.0927 486.212 91.8952L487.048 88.1859C487.064 88.1144 487.12 88.0585 487.192 88.0424L490.904 87.2068C491.102 87.1623 491.102 86.8809 490.904 86.8364L487.192 86.0008C487.12 85.9847 487.064 85.9289 487.048 85.8573L486.212 82.148Z"
     fill="#FFE8AC"
     id="path20" />
  <path
     d="M144.212 52.1483C144.167 51.9507 143.885 51.9507 143.841 52.1483L143.004 55.8576C142.988 55.9291 142.932 55.985 142.861 56.0011L139.148 56.8366C138.95 56.8811 138.95 57.1626 139.148 57.2071L142.861 58.0427C142.932 58.0588 142.988 58.1146 143.004 58.1862L143.841 61.8955C143.885 62.093 144.167 62.093 144.212 61.8955L145.048 58.1862C145.064 58.1146 145.12 58.0588 145.192 58.0427L148.904 57.2071C149.102 57.1626 149.102 56.8811 148.904 56.8366L145.192 56.0011C145.12 55.985 145.064 55.9291 145.048 55.8576L144.212 52.1483Z"
     fill="#FFE8AC"
     id="path22" />
  <path
     d="M632.212 162.148C632.167 161.951 631.885 161.951 631.841 162.148L631.004 165.857C630.988 165.929 630.932 165.985 630.861 166.001L627.148 166.836C626.95 166.881 626.95 167.162 627.148 167.207L630.861 168.042C630.932 168.059 630.988 168.114 631.004 168.186L631.841 171.895C631.885 172.093 632.167 172.093 632.212 171.895L633.048 168.186C633.064 168.114 633.12 168.059 633.192 168.042L636.904 167.207C637.102 167.162 637.102 166.881 636.904 166.836L633.192 166.001C633.12 165.985 633.064 165.929 633.048 165.857L632.212 162.148Z"
     fill="#FFE8AC"
     id="path24" />
  <path
     d="M756.212 121.148C756.167 120.951 755.885 120.951 755.841 121.148L755.004 124.858C754.988 124.929 754.932 124.985 754.861 125.001L751.148 125.837C750.95 125.881 750.95 126.163 751.148 126.207L754.861 127.043C754.932 127.059 754.988 127.115 755.004 127.186L755.841 130.895C755.885 131.093 756.167 131.093 756.212 130.895L757.048 127.186C757.064 127.115 757.12 127.059 757.192 127.043L760.904 126.207C761.102 126.163 761.102 125.881 760.904 125.837L757.192 125.001C757.12 124.985 757.064 124.929 757.048 124.858L756.212 121.148Z"
     fill="#FFE8AC"
     id="path26" />
  <path
     d="M948.212 351.148C948.167 350.951 947.885 350.951 947.841 351.148L947.004 354.858C946.988 354.929 946.932 354.985 946.861 355.001L943.148 355.837C942.95 355.881 942.95 356.163 943.148 356.207L946.861 357.043C946.932 357.059 946.988 357.115 947.004 357.186L947.841 360.895C947.885 361.093 948.167 361.093 948.212 360.895L949.048 357.186C949.064 357.115 949.12 357.059 949.192 357.043L952.904 356.207C953.102 356.163 953.102 355.881 952.904 355.837L949.192 355.001C949.12 354.985 949.064 354.929 949.048 354.858L948.212 351.148Z"
     fill="#FFE8AC"
     id="path28" />
  <path
     d="M938.212 229.148C938.167 228.951 937.885 228.951 937.841 229.148L937.004 232.858C936.988 232.929 936.932 232.985 936.861 233.001L933.148 233.837C932.95 233.881 932.95 234.163 933.148 234.207L936.861 235.043C936.932 235.059 936.988 235.115 937.004 235.186L937.841 238.895C937.885 239.093 938.167 239.093 938.212 238.895L939.048 235.186C939.064 235.115 939.12 235.059 939.192 235.043L942.904 234.207C943.102 234.163 943.102 233.881 942.904 233.837L939.192 233.001C939.12 232.985 939.064 232.929 939.048 232.858L938.212 229.148Z"
     fill="#FFE8AC"
     id="path30" />
  <path
     d="M795.212 26.1483C795.167 25.9507 794.885 25.9507 794.841 26.1483L794.004 29.8576C793.988 29.9291 793.932 29.985 793.861 30.0011L790.148 30.8366C789.95 30.8811 789.95 31.1626 790.148 31.2071L793.861 32.0427C793.932 32.0588 793.988 32.1146 794.004 32.1862L794.841 35.8955C794.885 36.093 795.167 36.093 795.212 35.8955L796.048 32.1862C796.064 32.1146 796.12 32.0588 796.192 32.0427L799.904 31.2071C800.102 31.1626 800.102 30.8811 799.904 30.8366L796.192 30.0011C796.12 29.985 796.064 29.9291 796.048 29.8576L795.212 26.1483Z"
     fill="#FFE8AC"
     id="path32" />
  <path
     d="M1079.21 133.148C1079.17 132.951 1078.89 132.951 1078.84 133.148L1078 136.858C1077.99 136.929 1077.93 136.985 1077.86 137.001L1074.15 137.837C1073.95 137.881 1073.95 138.163 1074.15 138.207L1077.86 139.043C1077.93 139.059 1077.99 139.115 1078 139.186L1078.84 142.895C1078.89 143.093 1079.17 143.093 1079.21 142.895L1080.05 139.186C1080.06 139.115 1080.12 139.059 1080.19 139.043L1083.9 138.207C1084.1 138.163 1084.1 137.881 1083.9 137.837L1080.19 137.001C1080.12 136.985 1080.06 136.929 1080.05 136.858L1079.21 133.148Z"
     fill="#FFE8AC"
     id="path34" />
  <path
     d="M1058.21 401.148C1058.17 400.951 1057.89 400.951 1057.84 401.148L1057 404.857C1056.99 404.929 1056.93 404.985 1056.86 405.001L1053.15 405.837C1052.95 405.881 1052.95 406.162 1053.15 406.207L1056.86 407.043C1056.93 407.059 1056.99 407.115 1057 407.186L1057.84 410.895C1057.89 411.093 1058.17 411.093 1058.21 410.895L1059.05 407.186C1059.06 407.115 1059.12 407.059 1059.19 407.043L1062.9 406.207C1063.1 406.162 1063.1 405.881 1062.9 405.837L1059.19 405.001C1059.12 404.985 1059.06 404.929 1059.05 404.857L1058.21 401.148Z"
     fill="#FFE8AC"
     id="path36" />
  <path
     d="M969.212 423.148C969.167 422.951 968.885 422.951 968.841 423.148L968.004 426.857C967.988 426.929 967.932 426.985 967.861 427.001L964.148 427.837C963.95 427.881 963.95 428.162 964.148 428.207L967.861 429.043C967.932 429.059 967.988 429.115 968.004 429.186L968.841 432.895C968.885 433.093 969.167 433.093 969.212 432.895L970.048 429.186C970.064 429.115 970.12 429.059 970.192 429.043L973.904 428.207C974.102 428.162 974.102 427.881 973.904 427.837L970.192 427.001C970.12 426.985 970.064 426.929 970.048 426.857L969.212 423.148Z"
     fill="#FFE8AC"
     id="path38" />
  <path
     d="M1063.21 516.148C1063.17 515.951 1062.89 515.951 1062.84 516.148L1062 519.858C1061.99 519.929 1061.93 519.985 1061.86 520.001L1058.15 520.837C1057.95 520.881 1057.95 521.163 1058.15 521.207L1061.86 522.043C1061.93 522.059 1061.99 522.115 1062 522.186L1062.84 525.895C1062.89 526.093 1063.17 526.093 1063.21 525.895L1064.05 522.186C1064.06 522.115 1064.12 522.059 1064.19 522.043L1067.9 521.207C1068.1 521.163 1068.1 520.881 1067.9 520.837L1064.19 520.001C1064.12 519.985 1064.06 519.929 1064.05 519.858L1063.21 516.148Z"
     fill="#FFE8AC"
     id="path40" />
  <path
     d="M732.735 474.293C732.666 474.103 732.386 474.138 732.367 474.339L731.999 478.124C731.992 478.197 731.944 478.259 731.875 478.284L728.295 479.575C728.104 479.644 728.139 479.923 728.341 479.943L732.129 480.31C732.202 480.317 732.265 480.365 732.29 480.434L733.582 484.011C733.651 484.201 733.93 484.166 733.95 483.965L734.317 480.18C734.324 480.107 734.373 480.045 734.442 480.02L738.022 478.729C738.212 478.66 738.177 478.381 737.976 478.361L734.187 477.994C734.114 477.987 734.052 477.939 734.027 477.87L732.735 474.293Z"
     fill="#FFE8AC"
     id="path42" />
  <path
     d="M890.073 509.51C890.066 509.308 889.788 509.257 889.709 509.443L888.21 512.938C888.182 513.006 888.116 513.05 888.043 513.053L884.24 513.2C884.037 513.207 883.986 513.484 884.172 513.564L887.671 515.061C887.739 515.09 887.783 515.155 887.786 515.228L887.933 519.027C887.94 519.23 888.218 519.281 888.297 519.095L889.796 515.6C889.824 515.532 889.89 515.487 889.963 515.485L893.766 515.338C893.969 515.33 894.02 515.054 893.834 514.974L890.335 513.477C890.267 513.448 890.223 513.383 890.22 513.31L890.073 509.51Z"
     fill="#FFE8AC"
     id="path44" />
  <path
     d="M888.231 435.357C888.186 435.159 887.904 435.159 887.86 435.357L887.023 439.066C887.007 439.138 886.951 439.194 886.88 439.21L883.167 440.045C882.969 440.09 882.969 440.371 883.167 440.416L886.88 441.251C886.951 441.267 887.007 441.323 887.023 441.395L887.86 445.104C887.904 445.302 888.186 445.302 888.231 445.104L889.067 441.395C889.083 441.323 889.139 441.267 889.211 441.251L892.923 440.416C893.121 440.371 893.121 440.09 892.923 440.045L889.211 439.21C889.139 439.194 889.083 439.138 889.067 439.066L888.231 435.357Z"
     fill="#FFE8AC"
     id="path46" />
  <path
     d="M515.242 413.784C515.257 413.582 514.987 413.501 514.887 413.677L513.014 416.987C512.978 417.051 512.908 417.088 512.835 417.083L509.039 416.812C508.837 416.797 508.755 417.067 508.932 417.166L512.245 419.038C512.309 419.074 512.346 419.143 512.341 419.216L512.07 423.009C512.055 423.211 512.325 423.292 512.425 423.116L514.298 419.806C514.334 419.742 514.403 419.705 514.477 419.71L518.273 419.981C518.475 419.996 518.556 419.726 518.38 419.627L515.067 417.755C515.003 417.719 514.965 417.65 514.971 417.577L515.242 413.784Z"
     fill="#FFE8AC"
     id="path48" />
  <path
     d="M711.446 251.514C711.327 251.35 711.069 251.461 711.106 251.66L711.804 255.398C711.818 255.47 711.788 255.543 711.729 255.586L708.648 257.819C708.484 257.938 708.596 258.197 708.795 258.16L712.536 257.462C712.608 257.448 712.682 257.478 712.725 257.537L714.96 260.615C715.079 260.778 715.338 260.667 715.301 260.468L714.602 256.731C714.589 256.658 714.618 256.585 714.677 256.542L717.758 254.309C717.922 254.19 717.811 253.932 717.611 253.969L713.87 254.667C713.798 254.68 713.725 254.651 713.681 254.591L711.446 251.514Z"
     fill="#FFE8AC"
     id="path50" />
  <path
     d="M452.077 462.887C452.032 462.689 451.75 462.689 451.706 462.887L450.87 466.596C450.853 466.668 450.798 466.724 450.726 466.74L447.013 467.575C446.815 467.62 446.815 467.901 447.013 467.946L450.726 468.781C450.798 468.797 450.853 468.853 450.87 468.925L451.706 472.634C451.75 472.832 452.032 472.832 452.077 472.634L452.913 468.925C452.929 468.853 452.985 468.797 453.057 468.781L456.77 467.946C456.967 467.901 456.967 467.62 456.77 467.575L453.057 466.74C452.985 466.724 452.929 466.668 452.913 466.596L452.077 462.887Z"
     fill="#FFE8AC"
     id="path52" />
  <path
     d="M519.543 199.928C519.498 199.731 519.217 199.731 519.172 199.928L518.336 203.637C518.32 203.709 518.264 203.765 518.192 203.781L514.479 204.617C514.281 204.661 514.281 204.942 514.479 204.987L518.192 205.823C518.264 205.839 518.32 205.895 518.336 205.966L519.172 209.675C519.217 209.873 519.498 209.873 519.543 209.675L520.379 205.966C520.395 205.895 520.451 205.839 520.523 205.823L524.236 204.987C524.433 204.942 524.433 204.661 524.236 204.617L520.523 203.781C520.451 203.765 520.395 203.709 520.379 203.637L519.543 199.928Z"
     fill="#FFE8AC"
     id="path54" />
  <path
     d="M444.475 227.458C444.43 227.26 444.149 227.26 444.104 227.458L443.268 231.167C443.252 231.239 443.196 231.295 443.124 231.311L439.411 232.146C439.214 232.191 439.214 232.472 439.411 232.517L443.124 233.352C443.196 233.368 443.252 233.424 443.268 233.496L444.104 237.205C444.149 237.403 444.43 237.403 444.475 237.205L445.311 233.496C445.327 233.424 445.383 233.368 445.455 233.352L449.168 232.517C449.366 232.472 449.366 232.191 449.168 232.146L445.455 231.311C445.383 231.295 445.327 231.239 445.311 231.167L444.475 227.458Z"
     fill="#FFE8AC"
     id="path56" />
  <path
     d="M444.475 145.818C444.43 145.62 444.149 145.62 444.104 145.818L443.268 149.527C443.252 149.599 443.196 149.654 443.124 149.671L439.411 150.506C439.214 150.551 439.214 150.832 439.411 150.877L443.124 151.712C443.196 151.728 443.252 151.784 443.268 151.856L444.104 155.565C444.149 155.762 444.43 155.762 444.475 155.565L445.311 151.856C445.327 151.784 445.383 151.728 445.455 151.712L449.168 150.877C449.366 150.832 449.366 150.551 449.168 150.506L445.455 149.671C445.383 149.654 445.327 149.599 445.311 149.527L444.475 145.818Z"
     fill="#FFE8AC"
     id="path58" />
  <path
     d="M590.624 359.539C590.624 360.063 591.05 360.488 591.575 360.488C592.099 360.488 592.525 360.063 592.525 359.539C592.525 359.015 592.099 358.59 591.575 358.59C591.05 358.59 590.624 359.015 590.624 359.539Z"
     fill="#FFE8AC"
     id="path60" />
  <path
     d="M538.362 301.631C538.362 302.155 538.787 302.581 539.312 302.581C539.837 302.581 540.262 302.155 540.262 301.631C540.262 301.107 539.837 300.682 539.312 300.682C538.787 300.682 538.362 301.107 538.362 301.631Z"
     fill="#FFE8AC"
     id="path62" />
  <path
     d="M564.968 424.092C564.968 424.617 565.394 425.042 565.918 425.042C566.443 425.042 566.869 424.617 566.869 424.092C566.869 423.568 566.443 423.143 565.918 423.143C565.394 423.143 564.968 423.568 564.968 424.092Z"
     fill="#FFE8AC"
     id="path64" />
  <path
     d="M655.24 370.931C655.24 371.455 655.665 371.88 656.19 371.88C656.715 371.88 657.14 371.455 657.14 370.931C657.14 370.407 656.715 369.982 656.19 369.982C655.665 369.982 655.24 370.407 655.24 370.931Z"
     fill="#FFE8AC"
     id="path66" />
  <path
     d="M617 252.949C617 253.474 617.425 253.899 617.95 253.899C618.475 253.899 618.9 253.474 618.9 252.949C618.9 252.425 618.475 252 617.95 252C617.425 252 617 252.425 617 252.949Z"
     fill="#FFE8AC"
     id="path68" />
  <path
     d="M489.9 286.442C489.9 286.967 490.326 287.392 490.851 287.392C491.375 287.392 491.801 286.967 491.801 286.442C491.801 285.918 491.375 285.493 490.851 285.493C490.326 285.493 489.9 285.918 489.9 286.442Z"
     fill="#FFE8AC"
     id="path70" />
  <path
     d="M459.493 198.157C459.493 198.681 459.919 199.106 460.443 199.106C460.968 199.106 461.394 198.681 461.394 198.157C461.394 197.632 460.968 197.207 460.443 197.207C459.919 197.207 459.493 197.632 459.493 198.157Z"
     fill="#FFE8AC"
     id="path72" />
  <path
     d="M473.746 145.945C473.746 146.469 474.171 146.894 474.696 146.894C475.221 146.894 475.646 146.469 475.646 145.945C475.646 145.421 475.221 144.995 474.696 144.995C474.171 144.995 473.746 145.421 473.746 145.945Z"
     fill="#FFE8AC"
     id="path74" />
  <path
     d="M576 80.9494C576 81.4737 576.425 81.8987 576.95 81.8987C577.475 81.8987 577.9 81.4737 577.9 80.9494C577.9 80.4251 577.475 80.0001 576.95 80.0001C576.425 80.0001 576 80.4251 576 80.9494Z"
     fill="#FFE8AC"
     id="path76" />
  <path
     d="M662 81.9494C662 82.4737 662.425 82.8987 662.95 82.8987C663.475 82.8987 663.9 82.4737 663.9 81.9494C663.9 81.4251 663.475 81.0001 662.95 81.0001C662.425 81.0001 662 81.4251 662 81.9494Z"
     fill="#FFE8AC"
     id="path78" />
  <path
     d="M301 48.9494C301 49.4737 301.425 49.8987 301.95 49.8987C302.475 49.8987 302.9 49.4737 302.9 48.9494C302.9 48.4251 302.475 48.0001 301.95 48.0001C301.425 48.0001 301 48.4251 301 48.9494Z"
     fill="#FFE8AC"
     id="path80" />
  <path
     d="M195 83.9494C195 84.4737 195.425 84.8987 195.95 84.8987C196.475 84.8987 196.9 84.4737 196.9 83.9494C196.9 83.4251 196.475 83.0001 195.95 83.0001C195.425 83.0001 195 83.4251 195 83.9494Z"
     fill="#FFE8AC"
     id="path82" />
  <path
     d="M495.602 238.977C495.602 239.501 496.027 239.926 496.552 239.926C497.077 239.926 497.502 239.501 497.502 238.977C497.502 238.452 497.077 238.027 496.552 238.027C496.027 238.027 495.602 238.452 495.602 238.977Z"
     fill="#FFE8AC"
     id="path84" />
  <path
     d="M431.936 211.447C431.936 211.971 432.362 212.396 432.887 212.396C433.411 212.396 433.837 211.971 433.837 211.447C433.837 210.923 433.411 210.497 432.887 210.497C432.362 210.497 431.936 210.923 431.936 211.447Z"
     fill="#FFE8AC"
     id="path86" />
  <path
     d="M488 382.323C488 382.847 488.425 383.272 488.95 383.272C489.475 383.272 489.9 382.847 489.9 382.323C489.9 381.798 489.475 381.373 488.95 381.373C488.425 381.373 488 381.798 488 382.323Z"
     fill="#FFE8AC"
     id="path88" />
  <path
     d="M713.204 392.765C713.204 393.289 713.629 393.714 714.154 393.714C714.679 393.714 715.104 393.289 715.104 392.765C715.104 392.241 714.679 391.816 714.154 391.816C713.629 391.816 713.204 392.241 713.204 392.765Z"
     fill="#FFE8AC"
     id="path90" />
  <path
     d="M798.724 480.102C798.724 480.626 799.149 481.051 799.674 481.051C800.199 481.051 800.624 480.626 800.624 480.102C800.624 479.577 800.199 479.152 799.674 479.152C799.149 479.152 798.724 479.577 798.724 480.102Z"
     fill="#FFE8AC"
     id="path92" />
  <path
     d="M693.249 457.318C693.249 457.842 693.674 458.267 694.199 458.267C694.724 458.267 695.149 457.842 695.149 457.318C695.149 456.794 694.724 456.369 694.199 456.369C693.674 456.369 693.249 456.794 693.249 457.318Z"
     fill="#FFE8AC"
     id="path94" />
  <path
     d="M698.95 474.406C698.95 474.93 699.376 475.355 699.9 475.355C700.425 475.355 700.851 474.93 700.851 474.406C700.851 473.881 700.425 473.456 699.9 473.456C699.376 473.456 698.95 473.881 698.95 474.406Z"
     fill="#FFE8AC"
     id="path96" />
  <path
     d="M619.131 453.521C619.131 454.045 619.557 454.47 620.081 454.47C620.606 454.47 621.031 454.045 621.031 453.521C621.031 452.997 620.606 452.572 620.081 452.572C619.557 452.572 619.131 452.997 619.131 453.521Z"
     fill="#FFE8AC"
     id="path98" />
  <path
     d="M617 393.949C617 394.474 617.425 394.899 617.95 394.899C618.475 394.899 618.9 394.474 618.9 393.949C618.9 393.425 618.475 393 617.95 393C617.425 393 617 393.425 617 393.949Z"
     fill="#FFE8AC"
     id="path100" />
  <path
     d="M592 284.949C592 285.474 592.425 285.899 592.95 285.899C593.475 285.899 593.9 285.474 593.9 284.949C593.9 284.425 593.475 284 592.95 284C592.425 284 592 284.425 592 284.949Z"
     fill="#FFE8AC"
     id="path102" />
  <path
     d="M545.014 225.686C545.014 226.211 545.439 226.636 545.964 226.636C546.489 226.636 546.914 226.211 546.914 225.686C546.914 225.162 546.489 224.737 545.964 224.737C545.439 224.737 545.014 225.162 545.014 225.686Z"
     fill="#FFE8AC"
     id="path104" />
  <path
     d="M564.968 376.627C564.968 377.151 565.394 377.576 565.918 377.576C566.443 377.576 566.869 377.151 566.869 376.627C566.869 376.103 566.443 375.677 565.918 375.677C565.394 375.677 564.968 376.103 564.968 376.627Z"
     fill="#FFE8AC"
     id="path106" />
  <path
     d="M477.547 422.194C477.547 422.718 477.973 423.143 478.497 423.143C479.022 423.143 479.448 422.718 479.448 422.194C479.448 421.669 479.022 421.244 478.497 421.244C477.973 421.244 477.547 421.669 477.547 422.194Z"
     fill="#FFE8AC"
     id="path108" />
  <path
     d="M466.145 434.535C466.145 435.059 466.57 435.484 467.095 435.484C467.62 435.484 468.045 435.059 468.045 434.535C468.045 434.01 467.62 433.585 467.095 433.585C466.57 433.585 466.145 434.01 466.145 434.535Z"
     fill="#FFE8AC"
     id="path110" />
  <path
     d="M486.099 491.493C486.099 492.018 486.525 492.443 487.05 492.443C487.574 492.443 488 492.018 488 491.493C488 490.969 487.574 490.544 487.05 490.544C486.525 490.544 486.099 490.969 486.099 491.493Z"
     fill="#FFE8AC"
     id="path112" />
  <path
     d="M851.936 410.802C851.936 411.326 852.362 411.751 852.887 411.751C853.411 411.751 853.837 411.326 853.837 410.802C853.837 410.278 853.411 409.853 852.887 409.853C852.362 409.853 851.936 410.278 851.936 410.802Z"
     fill="#FFE8AC"
     id="path114" />
  <path
     d="M754 403.949C754 404.474 754.425 404.899 754.95 404.899C755.475 404.899 755.9 404.474 755.9 403.949C755.9 403.425 755.475 403 754.95 403C754.425 403 754 403.425 754 403.949Z"
     fill="#FFE8AC"
     id="path116" />
  <path
     d="M1064 216.949C1064 217.474 1064.43 217.899 1064.95 217.899C1065.47 217.899 1065.9 217.474 1065.9 216.949C1065.9 216.425 1065.47 216 1064.95 216C1064.43 216 1064 216.425 1064 216.949Z"
     fill="#FFE8AC"
     id="path118" />
  <path
     d="M831.032 474.406C831.032 474.93 831.457 475.355 831.982 475.355C832.507 475.355 832.932 474.93 832.932 474.406C832.932 473.881 832.507 473.456 831.982 473.456C831.457 473.456 831.032 473.881 831.032 474.406Z"
     fill="#FFE8AC"
     id="path120" />
  <path
     d="M910.851 474.406C910.851 474.93 911.276 475.355 911.801 475.355C912.326 475.355 912.751 474.93 912.751 474.406C912.751 473.881 912.326 473.456 911.801 473.456C911.276 473.456 910.851 473.881 910.851 474.406Z"
     fill="#FFE8AC"
     id="path122" />
  <path
     d="M1011 536.95C1011 537.474 1011.43 537.899 1011.95 537.899C1012.47 537.899 1012.9 537.474 1012.9 536.95C1012.9 536.425 1012.47 536 1011.95 536C1011.43 536 1011 536.425 1011 536.95Z"
     fill="#FFE8AC"
     id="path124" />
  <path
     d="M777.818 261.76C777.818 262.284 778.244 262.709 778.769 262.709C779.293 262.709 779.719 262.284 779.719 261.76C779.719 261.236 779.293 260.811 778.769 260.811C778.244 260.811 777.818 261.236 777.818 261.76Z"
     fill="#FFE8AC"
     id="path126" />
  <path
     d="M778 212.949C778 213.474 778.425 213.899 778.95 213.899C779.475 213.899 779.9 213.474 779.9 212.949C779.9 212.425 779.475 212 778.95 212C778.425 212 778 212.425 778 212.949Z"
     fill="#FFE8AC"
     id="path128" />
  <path
     d="M749 196.949C749 197.474 749.425 197.899 749.95 197.899C750.475 197.899 750.9 197.474 750.9 196.949C750.9 196.425 750.475 196 749.95 196C749.425 196 749 196.425 749 196.949Z"
     fill="#FFE8AC"
     id="path130" />
  <path
     d="M813 104.949C813 105.474 813.425 105.899 813.95 105.899C814.475 105.899 814.9 105.474 814.9 104.949C814.9 104.425 814.475 104 813.95 104C813.425 104 813 104.425 813 104.949Z"
     fill="#FFE8AC"
     id="path132" />
  <path
     d="M829 171.949C829 172.474 829.425 172.899 829.95 172.899C830.475 172.899 830.9 172.474 830.9 171.949C830.9 171.425 830.475 171 829.95 171C829.425 171 829 171.425 829 171.949Z"
     fill="#FFE8AC"
     id="path134" />
  <path
     d="M882 239.949C882 240.474 882.425 240.899 882.95 240.899C883.475 240.899 883.9 240.474 883.9 239.949C883.9 239.425 883.475 239 882.95 239C882.425 239 882 239.425 882 239.949Z"
     fill="#FFE8AC"
     id="path136" />
  <path
     d="M899 176.949C899 177.474 899.425 177.899 899.95 177.899C900.475 177.899 900.9 177.474 900.9 176.949C900.9 176.425 900.475 176 899.95 176C899.425 176 899 176.425 899 176.949Z"
     fill="#FFE8AC"
     id="path138" />
  <path
     d="M1009 268.949C1009 269.474 1009.43 269.899 1009.95 269.899C1010.47 269.899 1010.9 269.474 1010.9 268.949C1010.9 268.425 1010.47 268 1009.95 268C1009.43 268 1009 268.425 1009 268.949Z"
     fill="#FFE8AC"
     id="path140" />
  <path
     d="M591 126.949C591 127.474 591.425 127.899 591.95 127.899C592.475 127.899 592.9 127.474 592.9 126.949C592.9 126.425 592.475 126 591.95 126C591.425 126 591 126.425 591 126.949Z"
     fill="#FFE8AC"
     id="path142" />
  <path
     d="M851 298.378C851 315.155 864.614 328.756 881.407 328.756C898.201 328.756 911.814 315.155 911.814 298.378C911.814 281.601 898.201 268 881.407 268C864.614 268 851 281.601 851 298.378Z"
     fill="#FFE8AC"
     id="path144"
     style="fill:none" />
  <path
     d="M853.85 292.682C853.85 305.789 864.486 316.415 877.606 316.415C890.726 316.415 901.361 305.789 901.361 292.682C901.361 279.575 890.726 268.949 877.606 268.949C864.486 268.949 853.85 279.575 853.85 292.682Z"
     fill="#B37DEA"
     id="path146"
     style="fill:none" />
  <path
     fill-rule="evenodd"
     clip-rule="evenodd"
     d="M519.156 205.249L443.759 150.768L443.87 150.614L519.558 205.304L443.847 232.896L443.782 232.717L519.156 205.249ZM647.856 203.659L589.826 210.311L589.848 210.5L647.745 203.862L671.448 251.223L642.93 300.608L713.302 366.162L713.431 366.023L643.17 300.572L671.664 251.229L647.856 203.659ZM532.823 355.486L488.814 382.292L513.689 418.612L532.823 355.486ZM532.498 356.897L513.623 418.18L489.086 382.353L532.498 356.897ZM806.839 409.21L733.093 479.558L733.224 479.695L806.763 409.545L831.458 474.546L887.478 440.398L888.9 514.278L889.09 514.275L887.662 440.063L831.555 474.265L806.839 409.21Z"
     fill="#FFF1CC"
     id="path148"
     style="fill:none" />
  <path
     fill-rule="evenodd"
     clip-rule="evenodd"
     d="M1503.02 25.6126L1495.5 161.037L1564.08 235.125L1669.87 177.968L1564.17 150.415L1503.02 25.6126ZM1503.18 26.3881L1564.03 150.586L1669.33 178.033L1564.12 234.875L1495.7 160.964L1503.18 26.3881ZM1348.23 91.891L1253.98 98.4081L1262.49 150.475L1222.52 203.94L1222.68 204.06L1262.66 150.592L1336.68 137.087L1348.23 91.891ZM1262.68 150.384L1254.22 98.5925L1347.97 92.1096L1336.52 136.913L1262.68 150.384ZM960.134 159.892L900.071 98.4304L899.928 98.5702L960.039 160.081L1064.67 217.383L1080.23 136.874L960.134 159.892ZM960.392 160.046L1079.97 137.126L1064.53 217.076L960.392 160.046Z"
     fill="#FFE8AC"
     id="path150"
     style="fill:none" />
  <path
     d="M1135 885.157C1135 886.587 1135.3 887.746 1136.73 887.746C1138.16 887.746 1139.32 886.587 1139.32 885.157C1139.32 883.728 1138.59 883 1137.16 883C1135.73 883 1135 883.728 1135 885.157Z"
     fill="#D29E60"
     id="path152" />
  <path
     d="M1814.21 597.148C1814.17 596.95 1813.89 596.95 1813.84 597.148L1813 600.857C1812.99 600.929 1812.93 600.985 1812.86 601.001L1809.15 601.836C1808.95 601.881 1808.95 602.162 1809.15 602.207L1812.86 603.042C1812.93 603.059 1812.99 603.114 1813 603.186L1813.84 606.895C1813.89 607.093 1814.17 607.093 1814.21 606.895L1815.05 603.186C1815.06 603.114 1815.12 603.059 1815.19 603.042L1818.9 602.207C1819.1 602.162 1819.1 601.881 1818.9 601.836L1815.19 601.001C1815.12 600.985 1815.06 600.929 1815.05 600.857L1814.21 597.148Z"
     fill="#FFE8AC"
     id="path154" />
  <path
     d="M1857.21 535.148C1857.17 534.95 1856.89 534.95 1856.84 535.148L1856 538.857C1855.99 538.929 1855.93 538.985 1855.86 539.001L1852.15 539.836C1851.95 539.881 1851.95 540.162 1852.15 540.207L1855.86 541.042C1855.93 541.059 1855.99 541.114 1856 541.186L1856.84 544.895C1856.89 545.093 1857.17 545.093 1857.21 544.895L1858.05 541.186C1858.06 541.114 1858.12 541.059 1858.19 541.042L1861.9 540.207C1862.1 540.162 1862.1 539.881 1861.9 539.836L1858.19 539.001C1858.12 538.985 1858.06 538.929 1858.05 538.857L1857.21 535.148Z"
     fill="#FFE8AC"
     id="path156" />
  <path
     d="M1738.21 471.148C1738.17 470.951 1737.89 470.951 1737.84 471.148L1737 474.858C1736.99 474.929 1736.93 474.985 1736.86 475.001L1733.15 475.837C1732.95 475.881 1732.95 476.163 1733.15 476.207L1736.86 477.043C1736.93 477.059 1736.99 477.115 1737 477.186L1737.84 480.895C1737.89 481.093 1738.17 481.093 1738.21 480.895L1739.05 477.186C1739.06 477.115 1739.12 477.059 1739.19 477.043L1742.9 476.207C1743.1 476.163 1743.1 475.881 1742.9 475.837L1739.19 475.001C1739.12 474.985 1739.06 474.929 1739.05 474.858L1738.21 471.148Z"
     fill="#FFE8AC"
     id="path158" />
  <path
     d="M1158 266.949C1158 267.473 1158.43 267.898 1158.95 267.898C1159.47 267.898 1159.9 267.473 1159.9 266.949C1159.9 266.425 1159.47 266 1158.95 266C1158.43 266 1158 266.425 1158 266.949Z"
     fill="#FFE8AC"
     id="path160" />
  <path
     d="M1112 50.9494C1112 51.4737 1112.43 51.8987 1112.95 51.8987C1113.47 51.8987 1113.9 51.4737 1113.9 50.9494C1113.9 50.4251 1113.47 50.0001 1112.95 50.0001C1112.43 50.0001 1112 50.4251 1112 50.9494Z"
     fill="#FFE8AC"
     id="path162" />
  <path
     d="M1251 237.949C1251 238.473 1251.43 238.898 1251.95 238.898C1252.47 238.898 1252.9 238.473 1252.9 237.949C1252.9 237.425 1252.47 237 1251.95 237C1251.43 237 1251 237.425 1251 237.949Z"
     fill="#FFE8AC"
     id="path164" />
  <path
     d="M1472 48.9494C1472 49.4737 1472.43 49.8987 1472.95 49.8987C1473.47 49.8987 1473.9 49.4737 1473.9 48.9494C1473.9 48.4251 1473.47 48.0001 1472.95 48.0001C1472.43 48.0001 1472 48.4251 1472 48.9494Z"
     fill="#FFE8AC"
     id="path166" />
  <path
     d="M1736 51.9494C1736 52.4737 1736.43 52.8987 1736.95 52.8987C1737.47 52.8987 1737.9 52.4737 1737.9 51.9494C1737.9 51.4251 1737.47 51.0001 1736.95 51.0001C1736.43 51.0001 1736 51.4251 1736 51.9494Z"
     fill="#FFE8AC"
     id="path168" />
  <path
     d="M1336 333.949C1336 334.473 1336.43 334.898 1336.95 334.898C1337.47 334.898 1337.9 334.473 1337.9 333.949C1337.9 333.425 1337.47 333 1336.95 333C1336.43 333 1336 333.425 1336 333.949Z"
     fill="#FFE8AC"
     id="path170" />
  <path
     d="M1334 131.949C1334 132.474 1334.43 132.899 1334.95 132.899C1335.47 132.899 1335.9 132.474 1335.9 131.949C1335.9 131.425 1335.47 131 1334.95 131C1334.43 131 1334 131.425 1334 131.949Z"
     fill="#FFE8AC"
     id="path172" />
  <path
     d="M1250 97.9494C1250 98.4737 1250.43 98.8987 1250.95 98.8987C1251.47 98.8987 1251.9 98.4737 1251.9 97.9494C1251.9 97.4251 1251.47 97.0001 1250.95 97.0001C1250.43 97.0001 1250 97.4251 1250 97.9494Z"
     fill="#FFE8AC"
     id="path174" />
  <path
     d="M1487 248.949C1487 249.473 1487.43 249.898 1487.95 249.898C1488.47 249.898 1488.9 249.473 1488.9 248.949C1488.9 248.425 1488.47 248 1487.95 248C1487.43 248 1487 248.425 1487 248.949Z"
     fill="#FFE8AC"
     id="path176" />
  <path
     d="M1560 148.949C1560 149.473 1560.43 149.898 1560.95 149.898C1561.47 149.898 1561.9 149.473 1561.9 148.949C1561.9 148.425 1561.47 148 1560.95 148C1560.43 148 1560 148.425 1560 148.949Z"
     fill="#FFE8AC"
     id="path178" />
  <path
     d="M1711 167.949C1711 168.473 1711.43 168.898 1711.95 168.898C1712.47 168.898 1712.9 168.473 1712.9 167.949C1712.9 167.425 1712.47 167 1711.95 167C1711.43 167 1711 167.425 1711 167.949Z"
     fill="#FFE8AC"
     id="path180" />
  <path
     d="M1659 92.9494C1659 93.4737 1659.43 93.8987 1659.95 93.8987C1660.47 93.8987 1660.9 93.4737 1660.9 92.9494C1660.9 92.4251 1660.47 92.0001 1659.95 92.0001C1659.43 92.0001 1659 92.4251 1659 92.9494Z"
     fill="#FFE8AC"
     id="path182" />
  <path
     d="M1837 293.949C1837 294.473 1837.43 294.898 1837.95 294.898C1838.47 294.898 1838.9 294.473 1838.9 293.949C1838.9 293.425 1838.47 293 1837.95 293C1837.43 293 1837 293.425 1837 293.949Z"
     fill="#FFE8AC"
     id="path184" />
  <path
     d="M1856 99.9494C1856 100.474 1856.43 100.899 1856.95 100.899C1857.47 100.899 1857.9 100.474 1857.9 99.9494C1857.9 99.4251 1857.47 99.0001 1856.95 99.0001C1856.43 99.0001 1856 99.4251 1856 99.9494Z"
     fill="#FFE8AC"
     id="path186" />
  <path
     d="M1817 323.949C1817 324.473 1817.43 324.898 1817.95 324.898C1818.47 324.898 1818.9 324.473 1818.9 323.949C1818.9 323.425 1818.47 323 1817.95 323C1817.43 323 1817 323.425 1817 323.949Z"
     fill="#FFE8AC"
     id="path188" />
  <path
     d="M1817 437.949C1817 438.473 1817.43 438.898 1817.95 438.898C1818.47 438.898 1818.9 438.473 1818.9 437.949C1818.9 437.425 1818.47 437 1817.95 437C1817.43 437 1817 437.425 1817 437.949Z"
     fill="#FFE8AC"
     id="path190" />
  <path
     d="M1786 481.949C1786 482.473 1786.43 482.898 1786.95 482.898C1787.47 482.898 1787.9 482.473 1787.9 481.949C1787.9 481.425 1787.47 481 1786.95 481C1786.43 481 1786 481.425 1786 481.949Z"
     fill="#FFE8AC"
     id="path192" />
  <path
     d="M1734 580.949C1734 581.473 1734.43 581.898 1734.95 581.898C1735.47 581.898 1735.9 581.473 1735.9 580.949C1735.9 580.425 1735.47 580 1734.95 580C1734.43 580 1734 580.425 1734 580.949Z"
     fill="#FFE8AC"
     id="path194" />
  <path
     d="M1736 523.949C1736 524.473 1736.43 524.898 1736.95 524.898C1737.47 524.898 1737.9 524.473 1737.9 523.949C1737.9 523.425 1737.47 523 1736.95 523C1736.43 523 1736 523.425 1736 523.949Z"
     fill="#FFE8AC"
     id="path196" />
  <path
     d="M1661 268.949C1661 269.473 1661.43 269.898 1661.95 269.898C1662.47 269.898 1662.9 269.473 1662.9 268.949C1662.9 268.425 1662.47 268 1661.95 268C1661.43 268 1661 268.425 1661 268.949Z"
     fill="#FFE8AC"
     id="path198" />
  <path
     d="M1135 155.949C1135 156.473 1135.43 156.898 1135.95 156.898C1136.47 156.898 1136.9 156.473 1136.9 155.949C1136.9 155.425 1136.47 155 1135.95 155C1135.43 155 1135 155.425 1135 155.949Z"
     fill="#FFE8AC"
     id="path200" />
  <path
     d="M1184 116.949C1184 117.473 1184.43 117.898 1184.95 117.898C1185.47 117.898 1185.9 117.473 1185.9 116.949C1185.9 116.425 1185.47 116 1184.95 116C1184.43 116 1184 116.425 1184 116.949Z"
     fill="#FFE8AC"
     id="path202" />
  <path
     d="M1265.21 144.148C1265.17 143.951 1264.89 143.951 1264.84 144.148L1264 147.858C1263.99 147.929 1263.93 147.985 1263.86 148.001L1260.15 148.837C1259.95 148.881 1259.95 149.163 1260.15 149.207L1263.86 150.043C1263.93 150.059 1263.99 150.115 1264 150.186L1264.84 153.895C1264.89 154.093 1265.17 154.093 1265.21 153.895L1266.05 150.186C1266.06 150.115 1266.12 150.059 1266.19 150.043L1269.9 149.207C1270.1 149.163 1270.1 148.881 1269.9 148.837L1266.19 148.001C1266.12 147.985 1266.06 147.929 1266.05 147.858L1265.21 144.148Z"
     fill="#FFE8AC"
     id="path204" />
  <path
     d="M1711.21 278.148C1711.17 277.95 1710.89 277.95 1710.84 278.148L1710 281.857C1709.99 281.929 1709.93 281.985 1709.86 282.001L1706.15 282.836C1705.95 282.881 1705.95 283.162 1706.15 283.207L1709.86 284.042C1709.93 284.059 1709.99 284.114 1710 284.186L1710.84 287.895C1710.89 288.093 1711.17 288.093 1711.21 287.895L1712.05 284.186C1712.06 284.114 1712.12 284.059 1712.19 284.042L1715.9 283.207C1716.1 283.162 1716.1 282.881 1715.9 282.836L1712.19 282.001C1712.12 281.985 1712.06 281.929 1712.05 281.857L1711.21 278.148Z"
     fill="#FFE8AC"
     id="path206" />
  <path
     d="M1793.21 176.148C1793.17 175.95 1792.89 175.95 1792.84 176.148L1792 179.857C1791.99 179.929 1791.93 179.985 1791.86 180.001L1788.15 180.836C1787.95 180.881 1787.95 181.162 1788.15 181.207L1791.86 182.042C1791.93 182.059 1791.99 182.114 1792 182.186L1792.84 185.895C1792.89 186.093 1793.17 186.093 1793.21 185.895L1794.05 182.186C1794.06 182.114 1794.12 182.059 1794.19 182.042L1797.9 181.207C1798.1 181.162 1798.1 180.881 1797.9 180.836L1794.19 180.001C1794.12 179.985 1794.06 179.929 1794.05 179.857L1793.21 176.148Z"
     fill="#FFE8AC"
     id="path208" />
  <path
     d="M1622.21 51.1483C1622.17 50.9507 1621.89 50.9507 1621.84 51.1483L1621 54.8576C1620.99 54.9291 1620.93 54.985 1620.86 55.0011L1617.15 55.8366C1616.95 55.8811 1616.95 56.1626 1617.15 56.2071L1620.86 57.0427C1620.93 57.0588 1620.99 57.1146 1621 57.1862L1621.84 60.8955C1621.89 61.093 1622.17 61.093 1622.21 60.8955L1623.05 57.1862C1623.06 57.1146 1623.12 57.0588 1623.19 57.0427L1626.9 56.2071C1627.1 56.1626 1627.1 55.8811 1626.9 55.8366L1623.19 55.0011C1623.12 54.985 1623.06 54.9291 1623.05 54.8576L1622.21 51.1483Z"
     fill="#FFE8AC"
     id="path210" />
  <path
     d="M1847.21 20.1483C1847.17 19.9507 1846.89 19.9507 1846.84 20.1483L1846 23.8576C1845.99 23.9291 1845.93 23.985 1845.86 24.0011L1842.15 24.8366C1841.95 24.8811 1841.95 25.1626 1842.15 25.2071L1845.86 26.0427C1845.93 26.0588 1845.99 26.1146 1846 26.1862L1846.84 29.8955C1846.89 30.093 1847.17 30.093 1847.21 29.8955L1848.05 26.1862C1848.06 26.1146 1848.12 26.0588 1848.19 26.0427L1851.9 25.2071C1852.1 25.1626 1852.1 24.8811 1851.9 24.8366L1848.19 24.0011C1848.12 23.985 1848.06 23.9291 1848.05 23.8576L1847.21 20.1483Z"
     fill="#FFE8AC"
     id="path212" />
  <path
     d="M1857.21 408.148C1857.17 407.95 1856.89 407.95 1856.84 408.148L1856 411.857C1855.99 411.929 1855.93 411.985 1855.86 412.001L1852.15 412.836C1851.95 412.881 1851.95 413.162 1852.15 413.207L1855.86 414.042C1855.93 414.059 1855.99 414.114 1856 414.186L1856.84 417.895C1856.89 418.093 1857.17 418.093 1857.21 417.895L1858.05 414.186C1858.06 414.114 1858.12 414.059 1858.19 414.042L1861.9 413.207C1862.1 413.162 1862.1 412.881 1861.9 412.836L1858.19 412.001C1858.12 411.985 1858.06 411.929 1858.05 411.857L1857.21 408.148Z"
     fill="#FFE8AC"
     id="path214" />
  <path
     d="M1495.21 155.148C1495.17 154.951 1494.89 154.951 1494.84 155.148L1494 158.858C1493.99 158.929 1493.93 158.985 1493.86 159.001L1490.15 159.837C1489.95 159.881 1489.95 160.163 1490.15 160.207L1493.86 161.043C1493.93 161.059 1493.99 161.115 1494 161.186L1494.84 164.895C1494.89 165.093 1495.17 165.093 1495.21 164.895L1496.05 161.186C1496.06 161.115 1496.12 161.059 1496.19 161.043L1499.9 160.207C1500.1 160.163 1500.1 159.881 1499.9 159.837L1496.19 159.001C1496.12 158.985 1496.06 158.929 1496.05 158.858L1495.21 155.148Z"
     fill="#FFE8AC"
     id="path216" />
  <path
     d="M1338.21 176.148C1338.17 175.95 1337.89 175.95 1337.84 176.148L1337 179.857C1336.99 179.929 1336.93 179.985 1336.86 180.001L1333.15 180.836C1332.95 180.881 1332.95 181.162 1333.15 181.207L1336.86 182.042C1336.93 182.059 1336.99 182.114 1337 182.186L1337.84 185.895C1337.89 186.093 1338.17 186.093 1338.21 185.895L1339.05 182.186C1339.06 182.114 1339.12 182.059 1339.19 182.042L1342.9 181.207C1343.1 181.162 1343.1 180.881 1342.9 180.836L1339.19 180.001C1339.12 179.985 1339.06 179.929 1339.05 179.857L1338.21 176.148Z"
     fill="#FFE8AC"
     id="path218" />
  <path
     d="M1223.21 199.148C1223.17 198.951 1222.89 198.951 1222.84 199.148L1222 202.858C1221.99 202.929 1221.93 202.985 1221.86 203.001L1218.15 203.837C1217.95 203.881 1217.95 204.163 1218.15 204.207L1221.86 205.043C1221.93 205.059 1221.99 205.115 1222 205.186L1222.84 208.895C1222.89 209.093 1223.17 209.093 1223.21 208.895L1224.05 205.186C1224.06 205.115 1224.12 205.059 1224.19 205.043L1227.9 204.207C1228.1 204.163 1228.1 203.881 1227.9 203.837L1224.19 203.001C1224.12 202.985 1224.06 202.929 1224.05 202.858L1223.21 199.148Z"
     fill="#FFE8AC"
     id="path220" />
  <path
     d="M1565.21 229.148C1565.17 228.951 1564.89 228.951 1564.84 229.148L1564 232.858C1563.99 232.929 1563.93 232.985 1563.86 233.001L1560.15 233.837C1559.95 233.881 1559.95 234.163 1560.15 234.207L1563.86 235.043C1563.93 235.059 1563.99 235.115 1564 235.186L1564.84 238.895C1564.89 239.093 1565.17 239.093 1565.21 238.895L1566.05 235.186C1566.06 235.115 1566.12 235.059 1566.19 235.043L1569.9 234.207C1570.1 234.163 1570.1 233.881 1569.9 233.837L1566.19 233.001C1566.12 232.985 1566.06 232.929 1566.05 232.858L1565.21 229.148Z"
     fill="#FFE8AC"
     id="path222" />
  <path
     d="M1348.21 87.1483C1348.17 86.9507 1347.89 86.9507 1347.84 87.1483L1347 90.8576C1346.99 90.9291 1346.93 90.985 1346.86 91.0011L1343.15 91.8366C1342.95 91.8811 1342.95 92.1626 1343.15 92.2071L1346.86 93.0427C1346.93 93.0588 1346.99 93.1146 1347 93.1862L1347.84 96.8955C1347.89 97.093 1348.17 97.093 1348.21 96.8955L1349.05 93.1862C1349.06 93.1146 1349.12 93.0588 1349.19 93.0427L1352.9 92.2071C1353.1 92.1626 1353.1 91.8811 1352.9 91.8366L1349.19 91.0011C1349.12 90.985 1349.06 90.9291 1349.05 90.8576L1348.21 87.1483Z"
     fill="#FFE8AC"
     id="path224" />
  <path
     d="M1668.21 176.148C1668.17 175.951 1667.89 175.951 1667.84 176.148L1667 179.858C1666.99 179.929 1666.93 179.985 1666.86 180.001L1663.15 180.837C1662.95 180.881 1662.95 181.163 1663.15 181.207L1666.86 182.043C1666.93 182.059 1666.99 182.115 1667 182.186L1667.84 185.895C1667.89 186.093 1668.17 186.093 1668.21 185.895L1669.05 182.186C1669.06 182.115 1669.12 182.059 1669.19 182.043L1672.9 181.207C1673.1 181.163 1673.1 180.881 1672.9 180.837L1669.19 180.001C1669.12 179.985 1669.06 179.929 1669.05 179.858L1668.21 176.148Z"
     fill="#FFE8AC"
     id="path226" />
  <path
     d="M1505.31 20.1483C1505.27 19.9507 1504.98 19.9507 1504.94 20.1483L1504.1 23.8576C1504.09 23.9291 1504.03 23.985 1503.96 24.0011L1500.25 24.8366C1500.05 24.8811 1500.05 25.1626 1500.25 25.2071L1503.96 26.0427C1504.03 26.0588 1504.09 26.1146 1504.1 26.1862L1504.94 29.8955C1504.98 30.093 1505.27 30.093 1505.31 29.8955L1506.15 26.1862C1506.16 26.1146 1506.22 26.0588 1506.29 26.0427L1510 25.2071C1510.2 25.1626 1510.2 24.8811 1510 24.8366L1506.29 24.0011C1506.22 23.985 1506.16 23.9291 1506.15 23.8576L1505.31 20.1483Z"
     fill="#FFE8AC"
     id="path228" />
  <path
     d="M1391.21 90.1483C1391.17 89.9507 1390.89 89.9507 1390.84 90.1483L1390 93.8576C1389.99 93.9291 1389.93 93.985 1389.86 94.0011L1386.15 94.8366C1385.95 94.8811 1385.95 95.1626 1386.15 95.2071L1389.86 96.0427C1389.93 96.0588 1389.99 96.1146 1390 96.1862L1390.84 99.8955C1390.89 100.093 1391.17 100.093 1391.21 99.8955L1392.05 96.1862C1392.06 96.1146 1392.12 96.0588 1392.19 96.0427L1395.9 95.2071C1396.1 95.1626 1396.1 94.8811 1395.9 94.8366L1392.19 94.0011C1392.12 93.985 1392.06 93.9291 1392.05 93.8576L1391.21 90.1483Z"
     fill="#FFE8AC"
     id="path230" />
  <defs
     id="defs237">
    <linearGradient
       id="paint0_linear_235_9"
       x1="625.501"
       y1="546.817"
       x2="677.082"
       y2="129.981"
       gradientUnits="userSpaceOnUse">
      <stop
         stop-color="#E09EFF"
         id="stop232" />
      <stop
         offset="1"
         stop-color="#D261FA"
         stop-opacity="0"
         id="stop234" />
    </linearGradient>
  </defs>
</svg>
