<svg width="1920" height="999" viewBox="0 0 1920 999" fill="none" xmlns="http://www.w3.org/2000/svg">
<path d="M654.765 566.566C726.982 540.535 801.36 593.469 865.5 619.5L964.364 725.976C1036.89 809.368 1123.57 910.672 1132.5 907.058L1380 999L1920 765.111V0.00012207L0 0.000331279V567.5C53.3711 545.722 256.575 533.858 363 531C496.032 527.427 582.547 592.597 654.765 566.566Z" fill="url(#paint0_linear_753_3)" fill-opacity="0.3"/>
<path d="M597.044 206.654C596.957 206.57 596.816 206.662 596.858 206.775L597.653 208.902C597.668 208.943 597.659 208.99 597.628 209.021L596.045 210.65C595.96 210.737 596.052 210.878 596.166 210.836L598.295 210.042C598.337 210.027 598.383 210.036 598.414 210.067L600.045 211.649C600.132 211.733 600.273 211.641 600.231 211.528L599.436 209.4C599.421 209.359 599.43 209.313 599.461 209.281L601.044 207.652C601.129 207.565 601.036 207.425 600.923 207.467L598.793 208.261C598.752 208.276 598.706 208.266 598.675 208.236L597.044 206.654Z" fill="#FFE8AC"/>
<path d="M646.998 294.508C646.995 294.387 646.83 294.353 646.78 294.464L645.85 296.536C645.832 296.576 645.793 296.602 645.749 296.603L643.476 296.652C643.355 296.655 643.322 296.82 643.432 296.869L645.507 297.799C645.547 297.816 645.573 297.856 645.574 297.9L645.623 300.17C645.626 300.291 645.79 300.325 645.84 300.214L646.77 298.142C646.788 298.102 646.828 298.076 646.871 298.075L649.144 298.026C649.265 298.023 649.299 297.858 649.188 297.809L647.114 296.88C647.074 296.862 647.048 296.822 647.047 296.779L646.998 294.508Z" fill="#FFE8AC"/>
<path d="M534.795 352.707C534.768 352.589 534.6 352.589 534.574 352.707L534.074 354.923C534.064 354.966 534.031 354.999 533.988 355.009L531.77 355.508C531.652 355.535 531.652 355.703 531.77 355.73L533.988 356.229C534.031 356.238 534.064 356.272 534.074 356.314L534.574 358.53C534.6 358.648 534.768 358.648 534.795 358.53L535.295 356.314C535.304 356.272 535.338 356.238 535.381 356.229L537.599 355.73C537.717 355.703 537.717 355.535 537.599 355.508L535.381 355.009C535.338 354.999 535.304 354.966 535.295 354.923L534.795 352.707Z" fill="#FFE8AC"/>
<path d="M664.976 419.159C664.949 419.041 664.781 419.041 664.754 419.159L664.255 421.375C664.245 421.418 664.212 421.451 664.169 421.461L661.951 421.96C661.833 421.986 661.833 422.155 661.951 422.181L664.169 422.68C664.212 422.69 664.245 422.723 664.255 422.766L664.754 424.982C664.781 425.1 664.949 425.1 664.976 424.982L665.476 422.766C665.485 422.723 665.519 422.69 665.561 422.68L667.78 422.181C667.898 422.155 667.898 421.986 667.78 421.96L665.561 421.461C665.519 421.451 665.485 421.418 665.476 421.375L664.976 419.159Z" fill="#FFE8AC"/>
<path d="M807.995 403.577C807.937 403.471 807.775 403.516 807.781 403.637L807.901 405.905C807.903 405.949 807.88 405.99 807.841 406.011L805.841 407.091C805.735 407.149 805.78 407.31 805.901 407.304L808.172 407.185C808.215 407.183 808.257 407.206 808.277 407.244L809.359 409.242C809.416 409.349 809.578 409.303 809.572 409.182L809.453 406.914C809.45 406.87 809.473 406.829 809.512 406.808L811.512 405.728C811.618 405.671 811.573 405.509 811.452 405.515L809.182 405.634C809.138 405.637 809.097 405.614 809.076 405.575L807.995 403.577Z" fill="#FFE8AC"/>
<path d="M766.161 335.089C766.134 334.971 765.966 334.971 765.939 335.089L765.439 337.305C765.43 337.347 765.396 337.381 765.354 337.39L763.136 337.889C763.017 337.916 763.017 338.084 763.136 338.111L765.354 338.61C765.396 338.62 765.43 338.653 765.439 338.696L765.939 340.912C765.966 341.03 766.134 341.03 766.161 340.912L766.66 338.696C766.67 338.653 766.703 338.62 766.746 338.61L768.964 338.111C769.082 338.084 769.082 337.916 768.964 337.889L766.746 337.39C766.703 337.381 766.67 337.347 766.66 337.305L766.161 335.089Z" fill="#FFE8AC"/>
<path d="M962.161 156.089C962.134 155.971 961.966 155.971 961.939 156.089L961.439 158.305C961.43 158.347 961.396 158.381 961.354 158.39L959.136 158.889C959.017 158.916 959.017 159.084 959.136 159.111L961.354 159.61C961.396 159.62 961.43 159.653 961.439 159.696L961.939 161.912C961.966 162.03 962.134 162.03 962.161 161.912L962.66 159.696C962.67 159.653 962.703 159.62 962.746 159.61L964.964 159.111C965.082 159.084 965.082 158.916 964.964 158.889L962.746 158.39C962.703 158.381 962.67 158.347 962.66 158.305L962.161 156.089Z" fill="#FFE8AC"/>
<path d="M900.161 94.0886C900.134 93.9706 899.966 93.9706 899.939 94.0886L899.439 96.3046C899.43 96.3473 899.396 96.3807 899.354 96.3903L897.136 96.8895C897.017 96.9161 897.017 97.0842 897.136 97.1108L899.354 97.6099C899.396 97.6196 899.43 97.6529 899.439 97.6957L899.939 99.9116C899.966 100.03 900.134 100.03 900.161 99.9116L900.66 97.6957C900.67 97.6529 900.703 97.6196 900.746 97.6099L902.964 97.1108C903.082 97.0842 903.082 96.9161 902.964 96.8895L900.746 96.3903C900.703 96.3807 900.67 96.3473 900.66 96.3046L900.161 94.0886Z" fill="#FFE8AC"/>
<path d="M488.161 82.0884C488.134 81.9704 487.966 81.9704 487.939 82.0884L487.439 84.3043C487.43 84.3471 487.396 84.3804 487.354 84.3901L485.136 84.8892C485.017 84.9158 485.017 85.0839 485.136 85.1105L487.354 85.6097C487.396 85.6193 487.43 85.6527 487.439 85.6954L487.939 87.9114C487.966 88.0294 488.134 88.0294 488.161 87.9114L488.66 85.6954C488.67 85.6527 488.703 85.6193 488.746 85.6097L490.964 85.1105C491.082 85.0839 491.082 84.9158 490.964 84.8892L488.746 84.3901C488.703 84.3804 488.67 84.3471 488.66 84.3043L488.161 82.0884Z" fill="#FFE8AC"/>
<path d="M146.161 52.0886C146.134 51.9706 145.966 51.9706 145.939 52.0886L145.439 54.3046C145.43 54.3473 145.396 54.3807 145.354 54.3903L143.136 54.8895C143.017 54.9161 143.017 55.0842 143.136 55.1108L145.354 55.6099C145.396 55.6196 145.43 55.6529 145.439 55.6957L145.939 57.9116C145.966 58.0296 146.134 58.0296 146.161 57.9116L146.66 55.6957C146.67 55.6529 146.703 55.6196 146.746 55.6099L148.964 55.1108C149.082 55.0842 149.082 54.9161 148.964 54.8895L146.746 54.3903C146.703 54.3807 146.67 54.3473 146.66 54.3046L146.161 52.0886Z" fill="#FFE8AC"/>
<path d="M634.161 162.088C634.134 161.97 633.966 161.97 633.939 162.088L633.439 164.304C633.43 164.347 633.396 164.38 633.354 164.39L631.136 164.889C631.017 164.916 631.017 165.084 631.136 165.111L633.354 165.61C633.396 165.619 633.43 165.653 633.439 165.695L633.939 167.911C633.966 168.029 634.134 168.029 634.161 167.911L634.66 165.695C634.67 165.653 634.703 165.619 634.746 165.61L636.964 165.111C637.082 165.084 637.082 164.916 636.964 164.889L634.746 164.39C634.703 164.38 634.67 164.347 634.66 164.304L634.161 162.088Z" fill="#FFE8AC"/>
<path d="M758.161 121.089C758.134 120.971 757.966 120.971 757.939 121.089L757.439 123.305C757.43 123.347 757.396 123.381 757.354 123.39L755.136 123.889C755.017 123.916 755.017 124.084 755.136 124.111L757.354 124.61C757.396 124.62 757.43 124.653 757.439 124.696L757.939 126.912C757.966 127.03 758.134 127.03 758.161 126.912L758.66 124.696C758.67 124.653 758.703 124.62 758.746 124.61L760.964 124.111C761.082 124.084 761.082 123.916 760.964 123.889L758.746 123.39C758.703 123.381 758.67 123.347 758.66 123.305L758.161 121.089Z" fill="#FFE8AC"/>
<path d="M950.161 351.089C950.134 350.971 949.966 350.971 949.939 351.089L949.439 353.305C949.43 353.347 949.396 353.381 949.354 353.39L947.136 353.889C947.017 353.916 947.017 354.084 947.136 354.111L949.354 354.61C949.396 354.62 949.43 354.653 949.439 354.696L949.939 356.912C949.966 357.03 950.134 357.03 950.161 356.912L950.66 354.696C950.67 354.653 950.703 354.62 950.746 354.61L952.964 354.111C953.082 354.084 953.082 353.916 952.964 353.889L950.746 353.39C950.703 353.381 950.67 353.347 950.66 353.305L950.161 351.089Z" fill="#FFE8AC"/>
<path d="M940.161 229.089C940.134 228.971 939.966 228.971 939.939 229.089L939.439 231.305C939.43 231.347 939.396 231.381 939.354 231.39L937.136 231.889C937.017 231.916 937.017 232.084 937.136 232.111L939.354 232.61C939.396 232.62 939.43 232.653 939.439 232.696L939.939 234.912C939.966 235.03 940.134 235.03 940.161 234.912L940.66 232.696C940.67 232.653 940.703 232.62 940.746 232.61L942.964 232.111C943.082 232.084 943.082 231.916 942.964 231.889L940.746 231.39C940.703 231.381 940.67 231.347 940.66 231.305L940.161 229.089Z" fill="#FFE8AC"/>
<path d="M797.161 26.0886C797.134 25.9706 796.966 25.9706 796.939 26.0886L796.439 28.3046C796.43 28.3473 796.396 28.3807 796.354 28.3903L794.136 28.8895C794.017 28.9161 794.017 29.0842 794.136 29.1108L796.354 29.6099C796.396 29.6196 796.43 29.6529 796.439 29.6957L796.939 31.9116C796.966 32.0296 797.134 32.0296 797.161 31.9116L797.66 29.6957C797.67 29.6529 797.703 29.6196 797.746 29.6099L799.964 29.1108C800.082 29.0842 800.082 28.9161 799.964 28.8895L797.746 28.3903C797.703 28.3807 797.67 28.3473 797.66 28.3046L797.161 26.0886Z" fill="#FFE8AC"/>
<path d="M1081.16 133.089C1081.13 132.971 1080.97 132.971 1080.94 133.089L1080.44 135.305C1080.43 135.347 1080.4 135.381 1080.35 135.39L1078.14 135.889C1078.02 135.916 1078.02 136.084 1078.14 136.111L1080.35 136.61C1080.4 136.62 1080.43 136.653 1080.44 136.696L1080.94 138.912C1080.97 139.03 1081.13 139.03 1081.16 138.912L1081.66 136.696C1081.67 136.653 1081.7 136.62 1081.75 136.61L1083.96 136.111C1084.08 136.084 1084.08 135.916 1083.96 135.889L1081.75 135.39C1081.7 135.381 1081.67 135.347 1081.66 135.305L1081.16 133.089Z" fill="#FFE8AC"/>
<path d="M1060.16 401.088C1060.13 400.971 1059.97 400.971 1059.94 401.088L1059.44 403.304C1059.43 403.347 1059.4 403.381 1059.35 403.39L1057.14 403.889C1057.02 403.916 1057.02 404.084 1057.14 404.111L1059.35 404.61C1059.4 404.619 1059.43 404.653 1059.44 404.696L1059.94 406.912C1059.97 407.029 1060.13 407.029 1060.16 406.912L1060.66 404.696C1060.67 404.653 1060.7 404.619 1060.75 404.61L1062.96 404.111C1063.08 404.084 1063.08 403.916 1062.96 403.889L1060.75 403.39C1060.7 403.381 1060.67 403.347 1060.66 403.304L1060.16 401.088Z" fill="#FFE8AC"/>
<path d="M971.161 423.088C971.134 422.971 970.966 422.971 970.939 423.088L970.439 425.304C970.43 425.347 970.396 425.381 970.354 425.39L968.136 425.889C968.017 425.916 968.017 426.084 968.136 426.111L970.354 426.61C970.396 426.619 970.43 426.653 970.439 426.696L970.939 428.912C970.966 429.029 971.134 429.029 971.161 428.912L971.66 426.696C971.67 426.653 971.703 426.619 971.746 426.61L973.964 426.111C974.082 426.084 974.082 425.916 973.964 425.889L971.746 425.39C971.703 425.381 971.67 425.347 971.66 425.304L971.161 423.088Z" fill="#FFE8AC"/>
<path d="M1065.16 516.089C1065.13 515.971 1064.97 515.971 1064.94 516.089L1064.44 518.305C1064.43 518.347 1064.4 518.381 1064.35 518.39L1062.14 518.889C1062.02 518.916 1062.02 519.084 1062.14 519.111L1064.35 519.61C1064.4 519.62 1064.43 519.653 1064.44 519.696L1064.94 521.912C1064.97 522.03 1065.13 522.03 1065.16 521.912L1065.66 519.696C1065.67 519.653 1065.7 519.62 1065.75 519.61L1067.96 519.111C1068.08 519.084 1068.08 518.916 1067.96 518.889L1065.75 518.39C1065.7 518.381 1065.67 518.347 1065.66 518.305L1065.16 516.089Z" fill="#FFE8AC"/>
<path d="M734.661 473.992C734.62 473.878 734.453 473.899 734.441 474.019L734.222 476.28C734.218 476.324 734.189 476.361 734.148 476.376L732.009 477.147C731.895 477.188 731.916 477.355 732.037 477.367L734.3 477.586C734.343 477.59 734.381 477.619 734.395 477.66L735.167 479.797C735.209 479.911 735.376 479.89 735.387 479.769L735.607 477.508C735.611 477.465 735.64 477.428 735.681 477.413L737.82 476.641C737.934 476.6 737.913 476.433 737.792 476.422L735.529 476.203C735.485 476.198 735.448 476.169 735.433 476.128L734.661 473.992Z" fill="#FFE8AC"/>
<path d="M892.001 509.806C891.996 509.685 891.831 509.655 891.783 509.766L890.888 511.854C890.871 511.894 890.832 511.921 890.788 511.923L888.516 512.01C888.395 512.015 888.364 512.18 888.476 512.228L890.566 513.122C890.606 513.139 890.633 513.178 890.634 513.222L890.722 515.492C890.727 515.612 890.892 515.643 890.94 515.532L891.835 513.444C891.852 513.404 891.891 513.377 891.935 513.375L894.207 513.288C894.328 513.283 894.358 513.118 894.247 513.07L892.157 512.176C892.117 512.159 892.09 512.12 892.088 512.076L892.001 509.806Z" fill="#FFE8AC"/>
<path d="M890.18 435.297C890.153 435.179 889.985 435.179 889.958 435.297L889.458 437.513C889.449 437.556 889.415 437.589 889.373 437.599L887.155 438.098C887.036 438.125 887.036 438.293 887.155 438.319L889.373 438.819C889.415 438.828 889.449 438.862 889.458 438.904L889.958 441.12C889.985 441.238 890.153 441.238 890.18 441.12L890.679 438.904C890.689 438.862 890.722 438.828 890.765 438.819L892.983 438.319C893.101 438.293 893.101 438.125 892.983 438.098L890.765 437.599C890.722 437.589 890.689 437.556 890.679 437.513L890.18 435.297Z" fill="#FFE8AC"/>
<path d="M517.126 414.289C517.134 414.169 516.973 414.12 516.914 414.225L515.795 416.203C515.773 416.241 515.732 416.263 515.688 416.26L513.42 416.098C513.299 416.089 513.251 416.25 513.356 416.31L515.335 417.427C515.373 417.449 515.396 417.491 515.393 417.534L515.231 419.8C515.222 419.92 515.383 419.969 515.443 419.864L516.561 417.886C516.583 417.848 516.625 417.826 516.668 417.829L518.936 417.991C519.057 418 519.105 417.839 519 417.779L517.021 416.662C516.983 416.64 516.96 416.598 516.963 416.555L517.126 414.289Z" fill="#FFE8AC"/>
<path d="M713.214 250.69C713.143 250.592 712.988 250.658 713.01 250.777L713.427 253.01C713.435 253.053 713.418 253.097 713.382 253.122L711.542 254.456C711.445 254.527 711.511 254.681 711.63 254.659L713.865 254.243C713.908 254.234 713.952 254.252 713.977 254.287L715.312 256.126C715.384 256.224 715.538 256.157 715.516 256.038L715.099 253.806C715.091 253.763 715.108 253.719 715.144 253.693L716.984 252.359C717.082 252.288 717.015 252.134 716.896 252.156L714.661 252.573C714.618 252.581 714.575 252.563 714.549 252.528L713.214 250.69Z" fill="#FFE8AC"/>
<path d="M454.026 462.827C453.999 462.709 453.831 462.709 453.804 462.827L453.305 465.043C453.295 465.086 453.262 465.119 453.219 465.129L451.001 465.628C450.883 465.655 450.883 465.823 451.001 465.849L453.219 466.349C453.262 466.358 453.295 466.392 453.305 466.434L453.804 468.65C453.831 468.768 453.999 468.768 454.026 468.65L454.525 466.434C454.535 466.392 454.568 466.358 454.611 466.349L456.829 465.849C456.947 465.823 456.947 465.655 456.829 465.628L454.611 465.129C454.568 465.119 454.535 465.086 454.525 465.043L454.026 462.827Z" fill="#FFE8AC"/>
<path d="M521.492 199.869C521.465 199.751 521.297 199.751 521.27 199.869L520.771 202.084C520.761 202.127 520.728 202.161 520.685 202.17L518.467 202.669C518.349 202.696 518.349 202.864 518.467 202.891L520.685 203.39C520.728 203.399 520.761 203.433 520.771 203.476L521.27 205.692C521.297 205.81 521.465 205.81 521.492 205.692L521.992 203.476C522.001 203.433 522.035 203.399 522.077 203.39L524.295 202.891C524.414 202.864 524.414 202.696 524.295 202.669L522.077 202.17C522.035 202.161 522.001 202.127 521.992 202.084L521.492 199.869Z" fill="#FFE8AC"/>
<path d="M446.424 227.398C446.397 227.28 446.229 227.28 446.203 227.398L445.703 229.614C445.693 229.657 445.66 229.69 445.617 229.7L443.399 230.199C443.281 230.226 443.281 230.394 443.399 230.42L445.617 230.92C445.66 230.929 445.693 230.963 445.703 231.005L446.203 233.221C446.229 233.339 446.397 233.339 446.424 233.221L446.924 231.005C446.933 230.963 446.967 230.929 447.009 230.92L449.228 230.42C449.346 230.394 449.346 230.226 449.228 230.199L447.009 229.7C446.967 229.69 446.933 229.657 446.924 229.614L446.424 227.398Z" fill="#FFE8AC"/>
<path d="M446.424 145.758C446.397 145.64 446.229 145.64 446.203 145.758L445.703 147.974C445.693 148.017 445.66 148.05 445.617 148.06L443.399 148.559C443.281 148.585 443.281 148.754 443.399 148.78L445.617 149.279C445.66 149.289 445.693 149.322 445.703 149.365L446.203 151.581C446.229 151.699 446.397 151.699 446.424 151.581L446.924 149.365C446.933 149.322 446.967 149.289 447.009 149.279L449.228 148.78C449.346 148.754 449.346 148.585 449.228 148.559L447.009 148.06C446.967 148.05 446.933 148.017 446.924 147.974L446.424 145.758Z" fill="#FFE8AC"/>
<path fill-rule="evenodd" clip-rule="evenodd" d="M519.156 205.249L443.759 150.768L443.87 150.614L519.558 205.304L443.847 232.896L443.782 232.717L519.156 205.249ZM647.856 203.659L589.826 210.311L589.848 210.5L647.745 203.862L671.448 251.223L642.93 300.608L713.302 366.162L713.431 366.023L643.17 300.572L671.664 251.229L647.856 203.659ZM532.823 355.486L488.814 382.292L513.689 418.612L532.823 355.486ZM532.498 356.897L513.623 418.18L489.086 382.353L532.498 356.897ZM806.839 409.21L733.093 479.558L733.224 479.695L806.763 409.545L831.458 474.546L887.478 440.398L888.9 514.278L889.09 514.275L887.662 440.063L831.555 474.265L806.839 409.21Z" fill="#FFF1CC"/>
<path fill-rule="evenodd" clip-rule="evenodd" d="M1503.02 25.6126L1495.5 161.037L1564.08 235.125L1669.87 177.968L1564.17 150.415L1503.02 25.6126ZM1503.18 26.3881L1564.03 150.586L1669.33 178.033L1564.12 234.875L1495.7 160.964L1503.18 26.3881ZM1348.23 91.891L1253.98 98.4081L1262.49 150.475L1222.52 203.94L1222.68 204.06L1262.66 150.592L1336.68 137.087L1348.23 91.891ZM1262.68 150.384L1254.22 98.5925L1347.97 92.1096L1336.52 136.913L1262.68 150.384ZM960.134 159.892L900.071 98.4304L899.928 98.5702L960.039 160.081L1064.67 217.383L1080.23 136.874L960.134 159.892ZM960.392 160.046L1079.97 137.126L1064.53 217.076L960.392 160.046Z" fill="#FFE8AC"/>
<path d="M1135 885.157C1135 886.587 1135.3 887.746 1136.73 887.746C1138.16 887.746 1139.32 886.587 1139.32 885.157C1139.32 883.728 1138.59 883 1137.16 883C1135.73 883 1135 883.728 1135 885.157Z" fill="#D29E60"/>
<path d="M1816.16 597.088C1816.13 596.97 1815.97 596.97 1815.94 597.088L1815.44 599.304C1815.43 599.347 1815.4 599.38 1815.35 599.39L1813.14 599.889C1813.02 599.916 1813.02 600.084 1813.14 600.111L1815.35 600.61C1815.4 600.619 1815.43 600.653 1815.44 600.695L1815.94 602.911C1815.97 603.029 1816.13 603.029 1816.16 602.911L1816.66 600.695C1816.67 600.653 1816.7 600.619 1816.75 600.61L1818.96 600.111C1819.08 600.084 1819.08 599.916 1818.96 599.889L1816.75 599.39C1816.7 599.38 1816.67 599.347 1816.66 599.304L1816.16 597.088Z" fill="#FFE8AC"/>
<path d="M1859.16 535.088C1859.13 534.97 1858.97 534.97 1858.94 535.088L1858.44 537.304C1858.43 537.347 1858.4 537.38 1858.35 537.39L1856.14 537.889C1856.02 537.916 1856.02 538.084 1856.14 538.111L1858.35 538.61C1858.4 538.619 1858.43 538.653 1858.44 538.695L1858.94 540.911C1858.97 541.029 1859.13 541.029 1859.16 540.911L1859.66 538.695C1859.67 538.653 1859.7 538.619 1859.75 538.61L1861.96 538.111C1862.08 538.084 1862.08 537.916 1861.96 537.889L1859.75 537.39C1859.7 537.38 1859.67 537.347 1859.66 537.304L1859.16 535.088Z" fill="#FFE8AC"/>
<path d="M1740.16 471.089C1740.13 470.971 1739.97 470.971 1739.94 471.089L1739.44 473.305C1739.43 473.347 1739.4 473.381 1739.35 473.39L1737.14 473.889C1737.02 473.916 1737.02 474.084 1737.14 474.111L1739.35 474.61C1739.4 474.62 1739.43 474.653 1739.44 474.696L1739.94 476.912C1739.97 477.03 1740.13 477.03 1740.16 476.912L1740.66 474.696C1740.67 474.653 1740.7 474.62 1740.75 474.61L1742.96 474.111C1743.08 474.084 1743.08 473.916 1742.96 473.889L1740.75 473.39C1740.7 473.381 1740.67 473.347 1740.66 473.305L1740.16 471.089Z" fill="#FFE8AC"/>
<path d="M1158 266.949C1158 267.473 1158.43 267.898 1158.95 267.898C1159.47 267.898 1159.9 267.473 1159.9 266.949C1159.9 266.425 1159.47 266 1158.95 266C1158.43 266 1158 266.425 1158 266.949Z" fill="#FFE8AC"/>
<path d="M1267.16 144.089C1267.13 143.971 1266.97 143.971 1266.94 144.089L1266.44 146.305C1266.43 146.347 1266.4 146.381 1266.35 146.39L1264.14 146.889C1264.02 146.916 1264.02 147.084 1264.14 147.111L1266.35 147.61C1266.4 147.62 1266.43 147.653 1266.44 147.696L1266.94 149.912C1266.97 150.03 1267.13 150.03 1267.16 149.912L1267.66 147.696C1267.67 147.653 1267.7 147.62 1267.75 147.61L1269.96 147.111C1270.08 147.084 1270.08 146.916 1269.96 146.889L1267.75 146.39C1267.7 146.381 1267.67 146.347 1267.66 146.305L1267.16 144.089Z" fill="#FFE8AC"/>
<path d="M1713.16 278.088C1713.13 277.97 1712.97 277.97 1712.94 278.088L1712.44 280.304C1712.43 280.347 1712.4 280.38 1712.35 280.39L1710.14 280.889C1710.02 280.916 1710.02 281.084 1710.14 281.111L1712.35 281.61C1712.4 281.619 1712.43 281.653 1712.44 281.695L1712.94 283.911C1712.97 284.029 1713.13 284.029 1713.16 283.911L1713.66 281.695C1713.67 281.653 1713.7 281.619 1713.75 281.61L1715.96 281.111C1716.08 281.084 1716.08 280.916 1715.96 280.889L1713.75 280.39C1713.7 280.38 1713.67 280.347 1713.66 280.304L1713.16 278.088Z" fill="#FFE8AC"/>
<path d="M1795.16 176.088C1795.13 175.97 1794.97 175.97 1794.94 176.088L1794.44 178.304C1794.43 178.347 1794.4 178.38 1794.35 178.39L1792.14 178.889C1792.02 178.916 1792.02 179.084 1792.14 179.111L1794.35 179.61C1794.4 179.619 1794.43 179.653 1794.44 179.695L1794.94 181.911C1794.97 182.029 1795.13 182.029 1795.16 181.911L1795.66 179.695C1795.67 179.653 1795.7 179.619 1795.75 179.61L1797.96 179.111C1798.08 179.084 1798.08 178.916 1797.96 178.889L1795.75 178.39C1795.7 178.38 1795.67 178.347 1795.66 178.304L1795.16 176.088Z" fill="#FFE8AC"/>
<path d="M1624.16 51.0886C1624.13 50.9706 1623.97 50.9706 1623.94 51.0886L1623.44 53.3046C1623.43 53.3473 1623.4 53.3807 1623.35 53.3903L1621.14 53.8895C1621.02 53.9161 1621.02 54.0842 1621.14 54.1108L1623.35 54.6099C1623.4 54.6196 1623.43 54.6529 1623.44 54.6957L1623.94 56.9116C1623.97 57.0296 1624.13 57.0296 1624.16 56.9116L1624.66 54.6957C1624.67 54.6529 1624.7 54.6196 1624.75 54.6099L1626.96 54.1108C1627.08 54.0842 1627.08 53.9161 1626.96 53.8895L1624.75 53.3903C1624.7 53.3807 1624.67 53.3473 1624.66 53.3046L1624.16 51.0886Z" fill="#FFE8AC"/>
<path d="M1849.16 20.0886C1849.13 19.9706 1848.97 19.9706 1848.94 20.0886L1848.44 22.3046C1848.43 22.3473 1848.4 22.3807 1848.35 22.3903L1846.14 22.8895C1846.02 22.9161 1846.02 23.0842 1846.14 23.1108L1848.35 23.6099C1848.4 23.6196 1848.43 23.6529 1848.44 23.6957L1848.94 25.9116C1848.97 26.0296 1849.13 26.0296 1849.16 25.9116L1849.66 23.6957C1849.67 23.6529 1849.7 23.6196 1849.75 23.6099L1851.96 23.1108C1852.08 23.0842 1852.08 22.9161 1851.96 22.8895L1849.75 22.3903C1849.7 22.3807 1849.67 22.3473 1849.66 22.3046L1849.16 20.0886Z" fill="#FFE8AC"/>
<path d="M1859.16 408.088C1859.13 407.97 1858.97 407.97 1858.94 408.088L1858.44 410.304C1858.43 410.347 1858.4 410.38 1858.35 410.39L1856.14 410.889C1856.02 410.916 1856.02 411.084 1856.14 411.111L1858.35 411.61C1858.4 411.619 1858.43 411.653 1858.44 411.695L1858.94 413.911C1858.97 414.029 1859.13 414.029 1859.16 413.911L1859.66 411.695C1859.67 411.653 1859.7 411.619 1859.75 411.61L1861.96 411.111C1862.08 411.084 1862.08 410.916 1861.96 410.889L1859.75 410.39C1859.7 410.38 1859.67 410.347 1859.66 410.304L1859.16 408.088Z" fill="#FFE8AC"/>
<path d="M1497.16 155.089C1497.13 154.971 1496.97 154.971 1496.94 155.089L1496.44 157.305C1496.43 157.347 1496.4 157.381 1496.35 157.39L1494.14 157.889C1494.02 157.916 1494.02 158.084 1494.14 158.111L1496.35 158.61C1496.4 158.62 1496.43 158.653 1496.44 158.696L1496.94 160.912C1496.97 161.03 1497.13 161.03 1497.16 160.912L1497.66 158.696C1497.67 158.653 1497.7 158.62 1497.75 158.61L1499.96 158.111C1500.08 158.084 1500.08 157.916 1499.96 157.889L1497.75 157.39C1497.7 157.381 1497.67 157.347 1497.66 157.305L1497.16 155.089Z" fill="#FFE8AC"/>
<path d="M1340.16 176.088C1340.13 175.97 1339.97 175.97 1339.94 176.088L1339.44 178.304C1339.43 178.347 1339.4 178.38 1339.35 178.39L1337.14 178.889C1337.02 178.916 1337.02 179.084 1337.14 179.111L1339.35 179.61C1339.4 179.619 1339.43 179.653 1339.44 179.695L1339.94 181.911C1339.97 182.029 1340.13 182.029 1340.16 181.911L1340.66 179.695C1340.67 179.653 1340.7 179.619 1340.75 179.61L1342.96 179.111C1343.08 179.084 1343.08 178.916 1342.96 178.889L1340.75 178.39C1340.7 178.38 1340.67 178.347 1340.66 178.304L1340.16 176.088Z" fill="#FFE8AC"/>
<path d="M1225.16 199.089C1225.13 198.971 1224.97 198.971 1224.94 199.089L1224.44 201.305C1224.43 201.347 1224.4 201.381 1224.35 201.39L1222.14 201.889C1222.02 201.916 1222.02 202.084 1222.14 202.111L1224.35 202.61C1224.4 202.62 1224.43 202.653 1224.44 202.696L1224.94 204.912C1224.97 205.03 1225.13 205.03 1225.16 204.912L1225.66 202.696C1225.67 202.653 1225.7 202.62 1225.75 202.61L1227.96 202.111C1228.08 202.084 1228.08 201.916 1227.96 201.889L1225.75 201.39C1225.7 201.381 1225.67 201.347 1225.66 201.305L1225.16 199.089Z" fill="#FFE8AC"/>
<path d="M1567.16 229.089C1567.13 228.971 1566.97 228.971 1566.94 229.089L1566.44 231.305C1566.43 231.347 1566.4 231.381 1566.35 231.39L1564.14 231.889C1564.02 231.916 1564.02 232.084 1564.14 232.111L1566.35 232.61C1566.4 232.62 1566.43 232.653 1566.44 232.696L1566.94 234.912C1566.97 235.03 1567.13 235.03 1567.16 234.912L1567.66 232.696C1567.67 232.653 1567.7 232.62 1567.75 232.61L1569.96 232.111C1570.08 232.084 1570.08 231.916 1569.96 231.889L1567.75 231.39C1567.7 231.381 1567.67 231.347 1567.66 231.305L1567.16 229.089Z" fill="#FFE8AC"/>
<path d="M1350.16 87.0886C1350.13 86.9706 1349.97 86.9706 1349.94 87.0886L1349.44 89.3046C1349.43 89.3473 1349.4 89.3807 1349.35 89.3903L1347.14 89.8895C1347.02 89.9161 1347.02 90.0842 1347.14 90.1108L1349.35 90.6099C1349.4 90.6196 1349.43 90.6529 1349.44 90.6957L1349.94 92.9116C1349.97 93.0296 1350.13 93.0296 1350.16 92.9116L1350.66 90.6957C1350.67 90.6529 1350.7 90.6196 1350.75 90.6099L1352.96 90.1108C1353.08 90.0842 1353.08 89.9161 1352.96 89.8895L1350.75 89.3903C1350.7 89.3807 1350.67 89.3473 1350.66 89.3046L1350.16 87.0886Z" fill="#FFE8AC"/>
<path d="M1670.16 176.089C1670.13 175.971 1669.97 175.971 1669.94 176.089L1669.44 178.305C1669.43 178.347 1669.4 178.381 1669.35 178.39L1667.14 178.889C1667.02 178.916 1667.02 179.084 1667.14 179.111L1669.35 179.61C1669.4 179.62 1669.43 179.653 1669.44 179.696L1669.94 181.912C1669.97 182.03 1670.13 182.03 1670.16 181.912L1670.66 179.696C1670.67 179.653 1670.7 179.62 1670.75 179.61L1672.96 179.111C1673.08 179.084 1673.08 178.916 1672.96 178.889L1670.75 178.39C1670.7 178.381 1670.67 178.347 1670.66 178.305L1670.16 176.089Z" fill="#FFE8AC"/>
<path d="M1507.26 20.0886C1507.23 19.9706 1507.07 19.9706 1507.04 20.0886L1506.54 22.3046C1506.53 22.3473 1506.5 22.3807 1506.45 22.3903L1504.24 22.8895C1504.12 22.9161 1504.12 23.0842 1504.24 23.1108L1506.45 23.6099C1506.5 23.6196 1506.53 23.6529 1506.54 23.6957L1507.04 25.9116C1507.07 26.0296 1507.23 26.0296 1507.26 25.9116L1507.76 23.6957C1507.77 23.6529 1507.8 23.6196 1507.85 23.6099L1510.06 23.1108C1510.18 23.0842 1510.18 22.9161 1510.06 22.8895L1507.85 22.3903C1507.8 22.3807 1507.77 22.3473 1507.76 22.3046L1507.26 20.0886Z" fill="#FFE8AC"/>
<path d="M1393.16 90.0886C1393.13 89.9706 1392.97 89.9706 1392.94 90.0886L1392.44 92.3046C1392.43 92.3473 1392.4 92.3807 1392.35 92.3903L1390.14 92.8895C1390.02 92.9161 1390.02 93.0842 1390.14 93.1108L1392.35 93.6099C1392.4 93.6196 1392.43 93.6529 1392.44 93.6957L1392.94 95.9116C1392.97 96.0296 1393.13 96.0296 1393.16 95.9116L1393.66 93.6957C1393.67 93.6529 1393.7 93.6196 1393.75 93.6099L1395.96 93.1108C1396.08 93.0842 1396.08 92.9161 1395.96 92.8895L1393.75 92.3903C1393.7 92.3807 1393.67 92.3473 1393.66 92.3046L1393.16 90.0886Z" fill="#FFE8AC"/>
<path d="M851 298.378C851 315.155 864.614 328.756 881.407 328.756C898.201 328.756 911.814 315.155 911.814 298.378C911.814 281.601 898.201 268 881.407 268C864.614 268 851 281.601 851 298.378Z" fill="#FFE8AC"/>
<path d="M853.85 292.682C853.85 305.789 864.486 316.415 877.606 316.415C890.726 316.415 901.361 305.789 901.361 292.682C901.361 279.575 890.726 268.949 877.606 268.949C864.486 268.949 853.85 279.575 853.85 292.682Z" fill="#B37DEA"/>
<defs>
<linearGradient id="paint0_linear_753_3" x1="625.501" y1="546.817" x2="677.082" y2="129.981" gradientUnits="userSpaceOnUse">
<stop stop-color="#E09EFF"/>
<stop offset="1" stop-color="#D261FA" stop-opacity="0"/>
</linearGradient>
</defs>
</svg>
