<svg width="1241" height="564" viewBox="0 0 1241 564" fill="none" xmlns="http://www.w3.org/2000/svg">
<path d="M983.609 169.576C983.754 169.448 983.99 169.588 983.919 169.76L982.589 172.996C982.563 173.058 982.579 173.128 982.631 173.176L985.282 175.654C985.423 175.786 985.269 176 985.079 175.936L981.513 174.729C981.444 174.705 981.367 174.72 981.314 174.766L978.583 177.172C978.438 177.3 978.202 177.16 978.273 176.988L979.603 173.752C979.629 173.69 979.613 173.62 979.562 173.572L976.91 171.094C976.769 170.962 976.923 170.748 977.113 170.813L980.679 172.02C980.748 172.043 980.825 172.028 980.878 171.982L983.609 169.576Z" fill="#FFE8AC"/>
<path d="M958.774 284.382C958.779 284.198 959.055 284.148 959.138 284.315L960.695 287.466C960.725 287.527 960.791 287.567 960.864 287.568L964.669 287.643C964.872 287.647 964.928 287.897 964.743 287.973L961.27 289.386C961.203 289.413 961.159 289.473 961.158 289.539L961.075 292.992C961.071 293.175 960.795 293.226 960.712 293.058L959.155 289.907C959.125 289.847 959.059 289.807 958.986 289.806L955.18 289.731C954.978 289.727 954.922 289.476 955.107 289.401L958.58 287.988C958.647 287.961 958.69 287.901 958.692 287.835L958.774 284.382Z" fill="#FFE8AC"/>
<path d="M1218.84 301.61C1218.89 301.43 1219.17 301.43 1219.21 301.61L1220.05 304.979C1220.06 305.043 1220.12 305.094 1220.19 305.109L1223.91 305.868C1224.1 305.908 1224.1 306.164 1223.91 306.204L1220.19 306.963C1220.12 306.978 1220.06 307.028 1220.05 307.093L1219.21 310.462C1219.17 310.642 1218.89 310.642 1218.84 310.462L1218 307.093C1217.99 307.028 1217.93 306.978 1217.86 306.963L1214.15 306.204C1213.95 306.164 1213.95 305.908 1214.15 305.868L1217.86 305.109C1217.93 305.094 1217.99 305.043 1218 304.979L1218.84 301.61Z" fill="#FFE8AC"/>
<path d="M916.025 361.615C916.069 361.436 916.351 361.436 916.396 361.615L917.232 364.984C917.248 365.049 917.304 365.099 917.376 365.114L921.089 365.873C921.286 365.913 921.286 366.169 921.089 366.209L917.376 366.968C917.304 366.983 917.248 367.034 917.232 367.099L916.396 370.467C916.351 370.647 916.069 370.647 916.025 370.467L915.188 367.099C915.172 367.034 915.116 366.983 915.045 366.968L911.332 366.209C911.134 366.169 911.134 365.913 911.332 365.873L915.045 365.114C915.116 365.099 915.172 365.049 915.188 364.984L916.025 361.615Z" fill="#FFE8AC"/>
<path d="M802.766 409.758C802.769 409.575 803.044 409.521 803.129 409.688L804.718 412.826C804.749 412.886 804.815 412.925 804.889 412.926L808.694 412.967C808.897 412.969 808.955 413.219 808.771 413.296L805.313 414.74C805.246 414.767 805.203 414.828 805.202 414.894L805.156 418.347C805.153 418.531 804.877 418.584 804.793 418.417L803.203 415.28C803.173 415.22 803.107 415.181 803.033 415.18L799.228 415.139C799.025 415.136 798.966 414.886 799.151 414.809L802.609 413.366C802.675 413.338 802.718 413.278 802.719 413.212L802.766 409.758Z" fill="#FFE8AC"/>
<path d="M737.841 287.078C737.886 286.899 738.167 286.899 738.212 287.078L739.048 290.447C739.065 290.512 739.12 290.563 739.192 290.577L742.905 291.336C743.103 291.377 743.103 291.632 742.905 291.673L739.192 292.432C739.12 292.446 739.065 292.497 739.048 292.562L738.212 295.931C738.167 296.11 737.886 296.11 737.841 295.931L737.005 292.562C736.989 292.497 736.933 292.446 736.861 292.432L733.148 291.673C732.951 291.632 732.951 291.377 733.148 291.336L736.861 290.577C736.933 290.563 736.989 290.512 737.005 290.447L737.841 287.078Z" fill="#FFE8AC"/>
<path d="M538.841 395.154C538.886 394.975 539.167 394.975 539.212 395.154L540.048 398.523C540.065 398.588 540.12 398.639 540.192 398.653L543.905 399.412C544.103 399.452 544.103 399.708 543.905 399.748L540.192 400.507C540.12 400.522 540.065 400.573 540.048 400.638L539.212 404.006C539.167 404.186 538.886 404.186 538.841 404.006L538.005 400.638C537.989 400.573 537.933 400.522 537.861 400.507L534.148 399.748C533.951 399.708 533.951 399.452 534.148 399.412L537.861 398.653C537.933 398.639 537.989 398.588 538.005 398.523L538.841 395.154Z" fill="#FFE8AC"/>
<path d="M867.608 209.305C867.727 209.157 867.985 209.258 867.948 209.438L867.25 212.833C867.236 212.898 867.266 212.965 867.325 213.004L870.405 215.032C870.569 215.14 870.458 215.375 870.259 215.341L866.518 214.707C866.446 214.695 866.372 214.722 866.329 214.776L864.094 217.571C863.975 217.72 863.716 217.619 863.753 217.438L864.452 214.043C864.465 213.978 864.436 213.911 864.376 213.872L861.296 211.844C861.132 211.736 861.243 211.501 861.442 211.535L865.184 212.169C865.256 212.181 865.329 212.154 865.372 212.1L867.608 209.305Z" fill="#FFE8AC"/>
<path d="M1126.98 401.274C1127.02 401.095 1127.3 401.095 1127.35 401.274L1128.18 404.643C1128.2 404.708 1128.26 404.759 1128.33 404.773L1132.04 405.532C1132.24 405.573 1132.24 405.828 1132.04 405.869L1128.33 406.627C1128.26 406.642 1128.2 406.693 1128.18 406.758L1127.35 410.127C1127.3 410.306 1127.02 410.306 1126.98 410.127L1126.14 406.758C1126.12 406.693 1126.07 406.642 1126 406.627L1122.28 405.869C1122.09 405.828 1122.09 405.573 1122.28 405.532L1126 404.773C1126.07 404.759 1126.12 404.708 1126.14 404.643L1126.98 401.274Z" fill="#FFE8AC"/>
<path d="M1134.58 187.458C1134.62 187.278 1134.9 187.278 1134.95 187.458L1135.78 190.827C1135.8 190.892 1135.86 190.942 1135.93 190.957L1139.64 191.716C1139.84 191.756 1139.84 192.012 1139.64 192.052L1135.93 192.811C1135.86 192.826 1135.8 192.876 1135.78 192.941L1134.95 196.31C1134.9 196.49 1134.62 196.49 1134.58 196.31L1133.74 192.941C1133.73 192.876 1133.67 192.826 1133.6 192.811L1129.88 192.052C1129.69 192.012 1129.69 191.756 1129.88 191.716L1133.6 190.957C1133.67 190.942 1133.73 190.892 1133.74 190.827L1134.58 187.458Z" fill="#FFE8AC"/>
<path d="M1218.84 75.468C1218.89 75.2886 1219.17 75.2886 1219.21 75.468L1220.05 78.8369C1220.06 78.9018 1220.12 78.9526 1220.19 78.9672L1223.9 79.7261C1224.1 79.7665 1224.1 80.0221 1223.9 80.0625L1220.19 80.8214C1220.12 80.836 1220.06 80.8867 1220.05 80.9517L1219.21 84.3205C1219.17 84.4999 1218.89 84.4999 1218.84 84.3205L1218 80.9517C1217.99 80.8867 1217.93 80.836 1217.86 80.8214L1214.15 80.0625C1213.95 80.0221 1213.95 79.7665 1214.15 79.7261L1217.86 78.9672C1217.93 78.9526 1217.99 78.9018 1218 78.8369L1218.84 75.468Z" fill="#FFE8AC"/>
<path d="M988.428 307.415C988.428 307.891 988.002 308.277 987.478 308.277C986.953 308.277 986.527 307.891 986.527 307.415C986.527 306.938 986.953 306.552 987.478 306.552C988.002 306.552 988.428 306.938 988.428 307.415Z" fill="#FFE8AC"/>
<path d="M1040.69 254.823C1040.69 255.299 1040.26 255.686 1039.74 255.686C1039.21 255.686 1038.79 255.299 1038.79 254.823C1038.79 254.346 1039.21 253.96 1039.74 253.96C1040.26 253.96 1040.69 254.346 1040.69 254.823Z" fill="#FFE8AC"/>
<path d="M1014.08 366.042C1014.08 366.518 1013.66 366.904 1013.13 366.904C1012.61 366.904 1012.18 366.518 1012.18 366.042C1012.18 365.565 1012.61 365.179 1013.13 365.179C1013.66 365.179 1014.08 365.565 1014.08 366.042Z" fill="#FFE8AC"/>
<path d="M923.813 317.761C923.813 318.237 923.387 318.624 922.862 318.624C922.338 318.624 921.912 318.237 921.912 317.761C921.912 317.284 922.338 316.898 922.862 316.898C923.387 316.898 923.813 317.284 923.813 317.761Z" fill="#FFE8AC"/>
<path d="M962.053 210.61C962.053 211.086 961.627 211.473 961.103 211.473C960.578 211.473 960.152 211.086 960.152 210.61C960.152 210.133 960.578 209.747 961.103 209.747C961.627 209.747 962.053 210.133 962.053 210.61Z" fill="#FFE8AC"/>
<path d="M1126.9 253.295C1126.9 253.772 1126.48 254.158 1125.95 254.158C1125.43 254.158 1125 253.772 1125 253.295C1125 252.818 1125.43 252.432 1125.95 252.432C1126.48 252.432 1126.9 252.818 1126.9 253.295Z" fill="#FFE8AC"/>
<path d="M1193.9 1.72418C1193.9 2.20072 1193.47 2.58704 1192.95 2.58704C1192.43 2.58704 1192 2.20072 1192 1.72418C1192 1.24764 1192.43 0.861328 1192.95 0.861328C1193.47 0.861328 1193.9 1.24764 1193.9 1.72418Z" fill="#FFE8AC"/>
<path d="M1105.31 113.428C1105.31 113.905 1104.88 114.291 1104.36 114.291C1103.83 114.291 1103.41 113.905 1103.41 113.428C1103.41 112.952 1103.83 112.565 1104.36 112.565C1104.88 112.565 1105.31 112.952 1105.31 113.428Z" fill="#FFE8AC"/>
<path d="M955.9 96.8702C955.9 97.3467 955.475 97.733 954.95 97.733C954.425 97.733 954 97.3467 954 96.8702C954 96.3936 954.425 96.0073 954.95 96.0073C955.475 96.0073 955.9 96.3936 955.9 96.8702Z" fill="#FFE8AC"/>
<path d="M1083.45 197.92C1083.45 198.397 1083.03 198.783 1082.5 198.783C1081.98 198.783 1081.55 198.397 1081.55 197.92C1081.55 197.443 1081.98 197.057 1082.5 197.057C1083.03 197.057 1083.45 197.443 1083.45 197.92Z" fill="#FFE8AC"/>
<path d="M1195.9 220.6C1195.9 221.077 1195.48 221.463 1194.95 221.463C1194.43 221.463 1194 221.077 1194 220.6C1194 220.124 1194.43 219.737 1194.95 219.737C1195.48 219.737 1195.9 220.124 1195.9 220.6Z" fill="#FFE8AC"/>
<path d="M1180.37 123.774C1180.37 124.251 1179.95 124.637 1179.42 124.637C1178.9 124.637 1178.47 124.251 1178.47 123.774C1178.47 123.298 1178.9 122.911 1179.42 122.911C1179.95 122.911 1180.37 123.298 1180.37 123.774Z" fill="#FFE8AC"/>
<path d="M1091.05 328.106C1091.05 328.583 1090.63 328.969 1090.1 328.969C1089.58 328.969 1089.15 328.583 1089.15 328.106C1089.15 327.63 1089.58 327.244 1090.1 327.244C1090.63 327.244 1091.05 327.63 1091.05 328.106Z" fill="#FFE8AC"/>
<path d="M1081.9 311.42C1081.9 311.896 1081.47 312.283 1080.95 312.283C1080.43 312.283 1080 311.896 1080 311.42C1080 310.943 1080.43 310.557 1080.95 310.557C1081.47 310.557 1081.9 310.943 1081.9 311.42Z" fill="#FFE8AC"/>
<path d="M735.901 456.732C735.901 457.209 735.475 457.595 734.95 457.595C734.425 457.595 734 457.209 734 456.732C734 456.255 734.425 455.869 734.95 455.869C735.475 455.869 735.901 456.255 735.901 456.732Z" fill="#FFE8AC"/>
<path d="M885.9 438.568C885.9 439.044 885.475 439.431 884.95 439.431C884.425 439.431 884 439.044 884 438.568C884 438.091 884.425 437.705 884.95 437.705C885.475 437.705 885.9 438.091 885.9 438.568Z" fill="#FFE8AC"/>
<path d="M921.9 470.355C921.9 470.831 921.475 471.218 920.95 471.218C920.425 471.218 920 470.831 920 470.355C920 469.878 920.425 469.492 920.95 469.492C921.475 469.492 921.9 469.878 921.9 470.355Z" fill="#FFE8AC"/>
<path d="M1034.04 185.85C1034.04 186.326 1033.61 186.712 1033.09 186.712C1032.56 186.712 1032.14 186.326 1032.14 185.85C1032.14 185.373 1032.56 184.987 1033.09 184.987C1033.61 184.987 1034.04 185.373 1034.04 185.85Z" fill="#FFE8AC"/>
<path d="M1177.9 295.072C1177.9 295.549 1177.48 295.935 1176.95 295.935C1176.43 295.935 1176 295.549 1176 295.072C1176 294.596 1176.43 294.209 1176.95 294.209C1177.48 294.209 1177.9 294.596 1177.9 295.072Z" fill="#FFE8AC"/>
<path d="M1112.91 375.525C1112.91 376.002 1112.48 376.388 1111.96 376.388C1111.43 376.388 1111.01 376.002 1111.01 375.525C1111.01 375.049 1111.43 374.663 1111.96 374.663C1112.48 374.663 1112.91 375.049 1112.91 375.525Z" fill="#FFE8AC"/>
<path d="M1092.95 427.255C1092.95 427.732 1092.53 428.118 1092 428.118C1091.48 428.118 1091.05 427.732 1091.05 427.255C1091.05 426.779 1091.48 426.393 1092 426.393C1092.53 426.393 1092.95 426.779 1092.95 427.255Z" fill="#FFE8AC"/>
<path d="M727.115 353.971C727.115 354.448 726.69 354.834 726.165 354.834C725.64 354.834 725.215 354.448 725.215 353.971C725.215 353.495 725.64 353.108 726.165 353.108C726.69 353.108 727.115 353.495 727.115 353.971Z" fill="#FFE8AC"/>
<path d="M695.9 393.158C695.9 393.634 695.475 394.021 694.95 394.021C694.425 394.021 694 393.634 694 393.158C694 392.681 694.425 392.295 694.95 392.295C695.475 392.295 695.9 392.681 695.9 393.158Z" fill="#FFE8AC"/>
<path d="M613.9 374.085C613.9 374.562 613.475 374.948 612.95 374.948C612.425 374.948 612 374.562 612 374.085C612 373.609 612.425 373.223 612.95 373.223C613.475 373.223 613.9 373.609 613.9 374.085Z" fill="#FFE8AC"/>
<path d="M829.9 315.961C829.9 316.437 829.475 316.824 828.95 316.824C828.425 316.824 828 316.437 828 315.961C828 315.484 828.425 315.098 828.95 315.098C829.475 315.098 829.9 315.484 829.9 315.961Z" fill="#FFE8AC"/>
<path d="M515.053 177.915C515.053 178.391 514.627 178.777 514.103 178.777C513.578 178.777 513.152 178.391 513.152 177.915C513.152 177.438 513.578 177.052 514.103 177.052C514.627 177.052 515.053 177.438 515.053 177.915Z" fill="#FFE8AC"/>
<path d="M635.9 425.853C635.9 426.33 635.475 426.716 634.95 426.716C634.425 426.716 634 426.33 634 425.853C634 425.377 634.425 424.99 634.95 424.99C635.475 424.99 635.9 425.377 635.9 425.853Z" fill="#FFE8AC"/>
<path d="M483.9 454.916C483.9 455.392 483.475 455.778 482.95 455.778C482.425 455.778 482 455.392 482 454.916C482 454.439 482.425 454.053 482.95 454.053C483.475 454.053 483.9 454.439 483.9 454.916Z" fill="#FFE8AC"/>
<path d="M430.9 455.68C430.9 456.157 430.475 456.543 429.95 456.543C429.425 456.543 429 456.157 429 455.68C429 455.204 429.425 454.817 429.95 454.817C430.475 454.817 430.9 455.204 430.9 455.68Z" fill="#FFE8AC"/>
<path d="M1.90045 456.732C1.90045 457.209 1.47502 457.595 0.950226 457.595C0.425431 457.595 0 457.209 0 456.732C0 456.255 0.425431 455.869 0.950226 455.869C1.47502 455.869 1.90045 456.255 1.90045 456.732Z" fill="#FFE8AC"/>
<path d="M361.9 470.355C361.9 470.831 361.475 471.218 360.95 471.218C360.425 471.218 360 470.831 360 470.355C360 469.878 360.425 469.492 360.95 469.492C361.475 469.492 361.9 469.878 361.9 470.355Z" fill="#FFE8AC"/>
<path d="M568.053 468.538C568.053 469.015 567.627 469.401 567.103 469.401C566.578 469.401 566.152 469.015 566.152 468.538C566.152 468.062 566.578 467.675 567.103 467.675C567.627 467.675 568.053 468.062 568.053 468.538Z" fill="#FFE8AC"/>
<path d="M801.234 218.612C801.234 219.088 800.809 219.475 800.284 219.475C799.759 219.475 799.334 219.088 799.334 218.612C799.334 218.135 799.759 217.749 800.284 217.749C800.809 217.749 801.234 218.135 801.234 218.612Z" fill="#FFE8AC"/>
<path d="M846.9 164.753C846.9 165.23 846.475 165.616 845.95 165.616C845.425 165.616 845 165.23 845 164.753C845 164.276 845.425 163.89 845.95 163.89C846.475 163.89 846.9 164.276 846.9 164.753Z" fill="#FFE8AC"/>
<path d="M917.9 172.511C917.9 172.988 917.475 173.374 916.95 173.374C916.425 173.374 916 172.988 916 172.511C916 172.035 916.425 171.648 916.95 171.648C917.475 171.648 917.9 172.035 917.9 172.511Z" fill="#FFE8AC"/>
<path d="M883.9 277.245C883.9 277.721 883.475 278.107 882.95 278.107C882.425 278.107 882 277.721 882 277.245C882 276.768 882.425 276.382 882.95 276.382C883.475 276.382 883.9 276.768 883.9 277.245Z" fill="#FFE8AC"/>
<path d="M792.9 370.452C792.9 370.929 792.475 371.315 791.95 371.315C791.425 371.315 791 370.929 791 370.452C791 369.976 791.425 369.59 791.95 369.59C792.475 369.59 792.9 369.976 792.9 370.452Z" fill="#FFE8AC"/>
<path d="M1040.9 124.023C1040.9 124.5 1040.47 124.886 1039.95 124.886C1039.43 124.886 1039 124.5 1039 124.023C1039 123.547 1039.43 123.161 1039.95 123.161C1040.47 123.161 1040.9 123.547 1040.9 124.023Z" fill="#FFE8AC"/>
<path d="M916 498L959 413L1176.5 418.5L1126 540L1091 563L1012 496L916 498Z" stroke="#FFE8AC" stroke-width="0.1"/>
</svg>
