<?xml version="1.0" standalone="no"?>
<!DOCTYPE svg PUBLIC "-//W3C//DTD SVG 20010904//EN"
 "http://www.w3.org/TR/2001/REC-SVG-20010904/DTD/svg10.dtd">
<svg version="1.0" xmlns="http://www.w3.org/2000/svg"
 width="80.000000pt" height="80.000000pt" viewBox="0 0 80.000000 80.000000"
 preserveAspectRatio="xMidYMid meet">
<metadata>
Created by potrace 1.14, written by Peter Selinger 2001-2017
</metadata>
<g transform="translate(0.000000,80.000000) scale(0.100000,-0.100000)"
fill="#000000" stroke="none">
<path d="M232 691 c-9 -10 -25 -21 -34 -24 -11 -4 -17 -16 -17 -29 l2 -23 4
23 c4 22 27 30 37 13 8 -13 42 -20 56 -11 7 4 14 21 16 36 3 25 -1 29 -22 30
-14 1 -33 -6 -42 -15z m48 -22 c0 -12 -7 -19 -20 -19 -22 0 -29 35 -7 43 18 6
27 -2 27 -24z"/>
<path d="M250 670 c0 -5 5 -10 10 -10 6 0 10 5 10 10 0 6 -4 10 -10 10 -5 0
-10 -4 -10 -10z"/>
<path d="M312 660 c2 -6 -15 -20 -37 -33 -24 -13 -48 -39 -61 -62 -21 -40 -21
-40 -1 -60 l20 -20 -6 20 c-7 19 -6 19 7 3 16 -22 26 -23 26 -4 0 8 7 16 15
20 27 10 18 37 -11 34 -19 -2 -28 2 -29 14 -3 14 0 15 22 5 22 -10 27 -8 45
16 11 15 23 25 28 22 4 -3 17 -2 29 2 18 7 17 10 -15 31 -19 12 -33 18 -32 12z"/>
<path d="M123 555 c0 -8 4 -12 9 -9 4 3 8 9 8 15 0 5 -4 9 -8 9 -5 0 -9 -7 -9
-15z"/>
<path d="M140 516 c0 -8 4 -17 9 -20 5 -4 7 3 4 14 -6 23 -13 26 -13 6z"/>
<path d="M190 463 c0 -30 21 -50 41 -37 5 3 9 -1 9 -10 0 -8 -6 -16 -12 -19
-10 -3 -10 -7 -1 -17 15 -16 33 -4 33 23 0 18 2 19 10 7 6 -9 10 -10 10 -3 0
15 28 43 43 43 7 0 4 -5 -5 -11 -22 -12 -23 -52 -4 -69 36 -29 92 11 69 49
-12 19 -11 19 22 5 19 -8 52 -14 73 -14 27 0 39 -4 39 -15 0 -8 -4 -12 -9 -9
-4 3 -8 1 -8 -5 0 -5 6 -12 13 -14 6 -3 -4 -6 -23 -7 -29 -1 -32 -3 -15 -10
l20 -9 -20 -1 c-31 -1 1 -17 50 -24 l40 -6 -30 15 c-25 13 -26 15 -6 11 13 -3
34 2 47 10 13 9 28 13 34 9 5 -3 10 2 10 11 0 14 3 15 12 6 9 -9 8 -16 -5 -30
-19 -20 -23 -57 -7 -67 5 -3 7 -13 4 -23 -5 -13 -4 -14 4 -3 12 17 42 7 42
-13 0 -21 -19 -30 -35 -16 -11 9 -18 9 -30 -3 -13 -14 -13 -16 5 -22 22 -7 25
-22 10 -45 -13 -20 -45 -1 -45 27 0 23 -20 50 -49 65 -16 8 -14 4 7 -16 29
-28 37 -59 13 -50 -11 4 -13 0 -9 -16 3 -11 8 -19 10 -16 2 2 16 -2 30 -9 18
-9 32 -11 44 -5 19 11 32 38 23 51 -3 5 5 18 18 29 19 15 21 22 12 38 -8 13
-9 24 -1 37 8 15 5 22 -12 36 -11 9 -19 24 -16 32 3 7 -1 19 -9 26 -8 7 -12
19 -9 27 6 17 3 17 -34 4 -26 -9 -26 -9 -9 5 10 8 24 16 30 18 6 2 8 7 4 11
-3 4 -16 3 -27 -3 -18 -10 -20 -9 -14 6 3 10 3 15 -2 11 -4 -4 -16 -3 -25 2
-12 7 -21 6 -29 -4 -13 -15 -5 -27 14 -20 7 3 15 1 19 -4 3 -5 -19 -10 -48
-11 -52 -2 -170 33 -202 60 -10 8 -18 7 -29 -5 -21 -21 -44 -20 -67 1 -17 15
-18 15 -18 -14z m178 -61 c4 -28 -24 -41 -44 -20 -20 20 -7 50 20 46 13 -2 22
-12 24 -26z m296 -97 c3 -9 -1 -18 -10 -22 -19 -7 -39 11 -30 26 10 16 33 13
40 -4z"/>
<path d="M330 400 c0 -5 5 -10 10 -10 6 0 10 5 10 10 0 6 -4 10 -10 10 -5 0
-10 -4 -10 -10z"/>
<path d="M260 352 c0 -10 22 -32 32 -32 5 0 3 9 -4 20 -13 20 -28 27 -28 12z"/>
<path d="M388 313 c6 -2 18 -2 25 0 6 3 1 5 -13 5 -14 0 -19 -2 -12 -5z"/>
<path d="M489 303 c-1 -5 -1 -12 0 -16 1 -4 -8 -3 -20 4 -19 10 -21 9 -16 -5
7 -17 -8 -22 -18 -6 -3 6 -11 10 -17 10 -7 0 -6 -6 2 -15 7 -8 9 -15 6 -15 -4
0 0 -7 9 -16 12 -12 19 -13 29 -5 10 8 16 9 21 1 8 -12 -16 -23 -56 -24 -25
-1 -27 -3 -13 -13 9 -6 13 -16 10 -21 -13 -22 6 -44 36 -40 16 3 33 -1 39 -9
6 -7 17 -13 23 -13 6 0 3 5 -6 11 -10 5 -18 18 -18 27 0 10 -6 24 -12 30 -10
10 -10 17 0 33 7 11 10 24 7 29 -3 5 5 7 19 4 35 -6 44 34 10 47 -30 11 -34
11 -35 2z m-11 -130 c5 -17 -26 -29 -40 -15 -6 6 -7 15 -3 22 9 14 37 9 43 -7z"/>
<path d="M590 170 c0 -5 5 -10 10 -10 6 0 10 5 10 10 0 6 -4 10 -10 10 -5 0
-10 -4 -10 -10z"/>
</g>
</svg>
