<svg width="262" height="262" viewBox="0 0 262 262" fill="none" xmlns="http://www.w3.org/2000/svg">
<g clip-path="url(#clip0_443_2)">
<path d="M111.389 209.017C124.012 200.284 120.809 225.611 111.389 252.235C102.218 231.665 53.3891 227.258 91.4032 220.173C52.1059 216.721 54.7274 206.98 82.0314 202.347C44.2472 202.347 34.9317 184.273 58.8041 180.489C25.6173 176.704 28.4708 152.027 54.7274 161.566C35.806 154.692 29.8905 136.168 38.1349 129.253C47.1595 121.684 58.8039 134.493 68.1189 161.566C60.5494 116.735 74.2316 120.811 85.0032 164.477C98.9763 133.62 117.026 149.631 107.418 186.311C116.152 173.502 129.834 181.392 111.389 209.017Z" fill="#C1A9F4"/>
<path fill-rule="evenodd" clip-rule="evenodd" d="M168.659 62.8847C169.299 62.943 169.771 63.5094 169.713 64.1498C167.603 87.3548 157.518 123.326 145.817 158.773C134.105 194.255 120.733 229.329 111.991 250.795L109.749 250.389C109.462 240.414 107.09 229.15 103.8 217.196C101.51 208.876 98.7903 200.273 96.0386 191.569C94.8352 187.762 93.6256 183.935 92.4431 180.105C88.5652 167.543 84.989 154.964 82.9513 143.05C80.9146 131.141 80.3999 119.816 82.7044 109.779C82.8483 109.153 83.4731 108.761 84.0999 108.905C84.7267 109.049 85.1182 109.674 84.9742 110.301C82.767 119.914 83.2352 130.895 85.2469 142.657C87.2576 154.414 90.7954 166.871 94.6683 179.418C95.8402 183.214 97.0436 187.021 98.2439 190.818C101.002 199.543 103.743 208.214 106.045 216.578C108.805 226.605 110.956 236.263 111.762 245.149C120.449 223.513 132.743 190.95 143.605 158.043C155.31 122.585 165.311 86.846 167.394 63.939C167.452 63.2985 168.018 62.8265 168.659 62.8847Z" fill="#8858C2"/>
<path d="M161.857 97.8133C152.251 92.2822 149.631 81.8022 153.124 79.4733C155.919 77.6102 160.111 90.9237 161.857 97.8133Z" fill="#8858C2"/>
<path d="M101.881 205.953C88.2712 203.837 80.5473 192.86 83.5554 188.598C85.9619 185.188 96.7753 198.747 101.881 205.953Z" fill="#8858C2"/>
<path d="M93.7676 178.657C79.9968 178.926 70.4913 169.45 72.7172 164.732C74.498 160.958 87.4928 172.443 93.7676 178.657Z" fill="#8858C2"/>
<path d="M96.9652 189.72C106.358 179.914 105.945 172.299 101.09 173.475C97.2064 174.415 96.722 184.696 96.9652 189.72Z" fill="#8858C2"/>
<path d="M82.7993 130.423C75.5338 129.149 73.1594 125.414 75.6113 124.239C77.5728 123.298 81.2206 127.97 82.7993 130.423Z" fill="#8858C2"/>
<path d="M159.529 108.618C170.499 107.024 176.802 98.2507 174.415 94.7968C172.506 92.0338 163.695 102.86 159.529 108.618Z" fill="#8858C2"/>
<path d="M165.933 85.0065C173.165 83.6608 177.114 77.6784 175.44 75.4511C174.101 73.6693 168.942 77.5308 165.933 85.0065Z" fill="#8858C2"/>
<path d="M126.199 203.805C96.7863 177.171 113.609 219.696 111.562 252.789C126.423 227.853 189.586 229.626 142.009 214.787C192.828 216.335 201.951 205.802 156.71 193.396C222.413 190.444 230.96 173.702 174.881 168.354C239.094 153.076 230.453 131.81 195.4 140.032C224.364 115.657 248.737 92.2237 241.204 80.58C231.788 66.0252 201.562 100.035 184.658 133.63C192.266 90.3358 169.353 86.0375 160.688 159.895C144.428 104.66 122.926 107.236 142.308 186.372C121.452 152.768 101.672 154.401 126.199 203.805Z" fill="#AD86FF"/>
<path fill-rule="evenodd" clip-rule="evenodd" d="M228.423 90.7005C228.213 90.457 227.845 90.4298 227.602 90.6398C214.787 101.689 194.477 127.859 173.678 157.019C173.596 151.256 174.442 136.621 178.53 112.311C178.583 111.993 178.369 111.693 178.052 111.64C177.735 111.587 177.435 111.8 177.381 112.117C172.876 138.912 172.286 154.06 172.568 158.578C166.967 166.452 161.337 174.532 155.814 182.583C152.201 175.428 149.006 165.571 146.459 156.019C143.811 146.087 141.875 136.526 140.903 130.763C140.85 130.446 140.549 130.232 140.232 130.286C139.915 130.339 139.702 130.64 139.755 130.957C140.732 136.753 142.676 146.349 145.334 156.319C147.952 166.139 151.274 176.363 155.064 183.675C150.392 190.495 145.8 197.287 141.371 203.908C130.135 192.131 122.969 176.202 120.777 169.642C120.675 169.337 120.345 169.172 120.041 169.274C119.736 169.376 119.571 169.706 119.673 170.011C121.909 176.706 129.212 192.94 140.708 204.9C133.811 215.222 127.323 225.11 121.558 234.021C120.615 218.667 117.742 208.315 116.349 204.925C116.227 204.628 115.887 204.486 115.589 204.608C115.292 204.73 115.15 205.071 115.272 205.368C116.65 208.72 119.656 219.539 120.485 235.68C116.809 241.374 113.445 246.643 110.478 251.339C110.306 251.611 110.387 251.971 110.659 252.143C110.931 252.314 111.291 252.233 111.462 251.961C114.447 247.237 117.834 241.932 121.537 236.198C125.449 232.019 130.603 228.959 135.483 226.832C140.376 224.699 144.958 223.521 147.661 223.09C147.979 223.039 148.195 222.741 148.145 222.423C148.094 222.106 147.796 221.889 147.478 221.94C144.676 222.386 140 223.593 135.018 225.764C131.35 227.363 127.495 229.494 124.096 232.245C129.475 223.955 135.433 214.889 141.732 205.463C147.127 206.264 160.961 207.806 176.315 208.001C176.637 208.005 176.901 207.747 176.905 207.426C176.909 207.104 176.651 206.84 176.33 206.836C161.527 206.649 148.144 205.204 142.449 204.391C146.842 197.825 151.394 191.093 156.025 184.334C160.766 184.862 168.485 185.395 176.709 185.327C185.127 185.257 194.122 184.558 200.995 182.554C201.304 182.464 201.481 182.141 201.391 181.832C201.301 181.524 200.978 181.346 200.669 181.436C193.952 183.394 185.086 184.093 176.699 184.163C168.874 184.228 161.509 183.744 156.772 183.244C162.292 175.199 167.916 167.128 173.511 159.262C179.93 157.719 196.497 153.043 213.351 146.195C213.649 146.074 213.793 145.735 213.671 145.437C213.55 145.139 213.211 144.995 212.913 145.116C197.168 151.514 181.67 156.008 174.547 157.807C195.39 128.578 215.656 102.478 228.362 91.5217C228.606 91.3117 228.633 90.944 228.423 90.7005Z" fill="#D5C1FF"/>
<path d="M165.357 59.0495C166.723 60.356 168.1 61.5591 169.455 62.6371C168.514 62.9895 167.374 63.4114 166.09 63.9069C156.847 66.1483 139.248 62.6715 126.359 48.3946C142.439 43.1026 157.441 52.6061 165.357 59.0495Z" fill="#FA9E7E"/>
<path d="M150.358 19.6365C168.473 31.8249 167.742 52.3002 169.455 62.6371C168.466 61.7087 167.079 60.4515 165.357 59.0495C154.62 48.7833 144.515 32.1297 150.358 19.6365Z" fill="#FA9E7E"/>
<path d="M169.455 62.6371C178.179 53.0775 195.836 39.3247 187.591 22.315C171.16 29.995 167.897 49.1901 169.455 62.6371Z" fill="#FA9E7E"/>
<path d="M169.455 62.6371C185.829 69.521 206.223 60.9369 215.258 54.0667C191.516 47.4595 177.157 55.696 169.455 62.6371Z" fill="#FA9E7E"/>
<path fill-rule="evenodd" clip-rule="evenodd" d="M164.222 58.1443C158.206 54.896 144.692 48.622 138.759 49.513C141.831 50.0722 143.866 51.5978 144.5 52.2908C144.519 53.1909 142.782 54.5132 135.689 52.6018C136.931 53.4873 137.5 54.5094 138.109 55.6025C139.032 57.2588 140.046 59.0783 143.627 60.8329C137.679 58.2589 131.626 54.2284 126.359 48.3946C141.7 43.3456 156.061 51.7646 164.222 58.1443Z" fill="#FAC87E"/>
<path fill-rule="evenodd" clip-rule="evenodd" d="M164.975 38.5172C162.463 31.6678 158.157 24.8841 150.358 19.6365C146.294 28.3275 149.946 39.0319 156.161 48.1987C149.952 37.8717 151.009 31.7622 151.683 30.6178C153.418 35.5898 156.085 37.8581 157.202 38.3707C155.962 35.5003 153.393 29.087 153.044 26.3971C153.942 27.0496 154.767 27.6337 155.529 28.1734C160.164 31.457 162.478 33.0964 164.975 38.5172Z" fill="#FAC87E"/>
<path fill-rule="evenodd" clip-rule="evenodd" d="M187.591 22.315C191.454 30.2847 189.631 37.5394 185.705 43.9828C185.924 43.3194 186.165 42.6429 186.408 41.9627C187.688 38.3782 189.004 34.6906 187.268 32.2625C187.083 33.7791 185.056 37.149 181.464 40.0973C182.311 38.1996 183.817 34.6892 182.903 30.1912C179.167 32.4292 177.088 34.3306 170.324 45.3214C172.439 35.9797 177.562 27.0025 187.591 22.315Z" fill="#FAC87E"/>
<path fill-rule="evenodd" clip-rule="evenodd" d="M215.258 54.0667C210.781 57.4711 203.514 61.2964 195.33 63.4518C196.145 63.0205 197.366 62.5747 198.647 62.1072C201.917 60.914 205.574 59.5796 203.833 57.985C201.41 55.7657 195.536 55.973 189.311 56.2517C192.082 54.7027 196.857 53.983 202.072 55.3846C200.386 54.3662 195.855 51.7176 184.27 53.9081C192.089 51.28 202.269 50.452 215.258 54.0667Z" fill="#FAC87E"/>
<path d="M163.573 62.4451C164.24 65.7257 167.43 67.8468 170.698 67.1827C173.967 66.5186 176.076 63.3208 175.41 60.0403C174.743 56.7597 170.768 55.8291 167.499 56.4932C164.231 57.1572 162.907 59.1646 163.573 62.4451Z" fill="#8858C2"/>
<path d="M78.2897 106.745C79.972 108.693 81.6817 110.502 83.3787 112.139C82.0569 112.495 80.4578 112.918 78.6525 113.423C65.8356 115.261 42.4366 108.266 26.8218 87.2446C49.3001 82.1596 68.3986 96.9859 78.2897 106.745Z" fill="#FA9E7E"/>
<path d="M63.0784 51.3857C86.0458 70.2546 82.3983 97.9081 83.3787 112.139C82.1584 110.753 80.442 108.869 78.2897 106.745C65.0709 91.439 53.5385 67.5585 63.0784 51.3857Z" fill="#FA9E7E"/>
<path d="M83.3787 112.139C96.4417 100.316 122.156 83.9695 113.189 59.8476C89.9249 68.1233 83.0121 93.7134 83.3787 112.139Z" fill="#FA9E7E"/>
<path d="M83.3787 112.139C104.675 123.593 133.427 114.607 146.564 106.469C115.245 94.4332 94.7166 103.732 83.3787 112.139Z" fill="#FA9E7E"/>
<path d="M83.3787 112.139C84.0228 124.483 87.2714 144.229 118.588 152.55C116.238 128.602 94.3228 118.982 83.3787 112.139Z" fill="#FA9E7E"/>
<path fill-rule="evenodd" clip-rule="evenodd" d="M76.8696 105.371C69.1384 100.188 51.6371 89.932 43.4818 90.3696C47.5721 91.526 50.1327 93.8578 50.9017 94.8791C50.81 96.1013 48.2853 97.6681 38.9203 94.1571C40.4883 95.5183 41.1273 96.9773 41.8107 98.5378C42.8462 100.902 43.9838 103.5 48.6092 106.342C40.8824 102.082 33.2022 95.8342 26.8218 87.2446C48.268 82.3931 66.6377 95.6664 76.8696 105.371Z" fill="#FAC87E"/>
<path fill-rule="evenodd" clip-rule="evenodd" d="M80.4366 78.8701C77.9217 69.2618 72.9668 59.5095 63.0784 51.3857C56.4419 62.6365 60.0032 77.6173 67.2358 90.8468C60.1614 76.0456 62.3867 67.9031 63.4485 66.4396C65.1548 73.403 68.4752 76.8232 69.9221 77.6629C68.6135 73.6119 65.9651 64.5871 65.8408 60.8964C66.9735 61.8973 68.015 62.7958 68.9774 63.626C74.8332 68.6777 77.7567 71.1997 80.4366 78.8701Z" fill="#FAC87E"/>
<path fill-rule="evenodd" clip-rule="evenodd" d="M113.189 59.8476C117.39 71.1497 113.978 80.7448 107.821 88.9675C108.204 88.0968 108.619 87.2113 109.036 86.321C111.236 81.6293 113.498 76.8026 111.46 73.2867C111.013 75.318 107.829 79.6219 102.578 83.1514C103.973 80.6896 106.468 76.1275 105.814 69.9131C100.46 72.4614 97.3962 74.7684 86.8025 88.7854C90.8818 76.3999 98.9897 64.8987 113.189 59.8476Z" fill="#FAC87E"/>
<path fill-rule="evenodd" clip-rule="evenodd" d="M146.564 106.469C140.054 110.501 129.71 114.742 118.339 116.601C119.498 116.122 121.212 115.677 123.009 115.21C127.595 114.017 132.724 112.683 130.572 110.296C127.576 106.974 119.588 106.493 111.116 106.062C115.073 104.323 121.637 103.967 128.523 106.544C126.37 104.944 120.573 100.767 104.589 102.232C115.526 99.6852 129.43 99.8843 146.564 106.469Z" fill="#FAC87E"/>
<path fill-rule="evenodd" clip-rule="evenodd" d="M118.588 152.55C103.114 148.439 94.4927 141.538 89.6525 134.119C94.7804 139.862 99.6742 141.992 108.196 142.747C107.848 139.449 104.641 135.456 101.154 131.116C100.147 129.861 99.1157 128.578 98.1236 127.273C101.032 127.431 103.552 130.717 106.08 134.015C107.158 135.42 108.237 136.828 109.349 137.996C110.089 135.603 108.898 130.582 97.4345 120.732C107.16 127.368 117.052 136.899 118.588 152.55Z" fill="#FAC87E"/>
<path d="M75.4313 111.115C75.9088 115.647 79.9568 118.936 84.4727 118.46C88.9887 117.984 92.2624 113.924 91.7849 109.392C91.3074 104.859 86.0408 103.082 81.5249 103.558C77.0089 104.034 74.9538 106.582 75.4313 111.115Z" fill="#8858C2"/>
</g>
<defs>
<clipPath id="clip0_443_2">
<rect width="262" height="262" fill="white"/>
</clipPath>
</defs>
</svg>
