<svg width="206" height="254" viewBox="0 0 206 254" fill="none" xmlns="http://www.w3.org/2000/svg">
<path d="M131.816 219.727C125.355 212.097 100.227 196.703 51.4059 196.164C33.4571 195.241 24.1238 212.321 47.0982 225.113C65.4777 235.346 107.406 241.494 126.073 243.29L131.816 219.727Z" fill="#674094"/>
<path d="M131.816 219.727C125.355 212.097 100.227 196.703 51.4059 196.164C33.4571 195.241 24.1238 212.321 47.0982 225.113C65.4777 235.346 107.406 241.494 126.073 243.29L131.816 219.727Z" fill="url(#paint0_linear_443_26)" fill-opacity="0.5"/>
<path d="M134.687 221.284L137.309 193.95C139.932 187.737 155.724 193.835 165.559 198.184C175.395 202.533 206.812 223.769 201.566 231.845C192.649 228.863 153.264 223.562 134.687 221.284Z" fill="#7584C4"/>
<path d="M110.277 241.942L113.149 212.32C116.021 205.588 134.688 202.895 145.457 207.608C156.226 212.32 189.252 244.635 183.508 253.387C173.744 250.155 130.619 244.41 110.277 241.942Z" fill="#7584C4"/>
<path fill-rule="evenodd" clip-rule="evenodd" d="M145.457 207.608C156.226 212.32 189.252 244.635 183.508 253.387L123.897 212.32C124.375 210.158 129.358 206.187 145.457 207.608Z" fill="#5969AB"/>
<path d="M61.4581 205.589C90.1761 209.628 147.611 217.034 160.534 205.589C169.541 197.613 171.922 182.443 164.032 157.117C160.601 146.103 160.534 130.186 153.599 116.437C138.887 87.2697 130.678 50.6811 113.447 60.3755C91.9086 72.4934 89.962 98.2547 86.5528 126.664L89.962 169.847C84.0589 171.12 65.4728 174.105 61.4581 175.294C34.176 183.373 32.7401 201.55 61.4581 205.589Z" fill="#7852A5"/>
<path fill-rule="evenodd" clip-rule="evenodd" d="M61.4557 205.589C72.8221 207.188 88.6871 209.314 104.51 210.59C161.228 208.185 158.357 187.412 154.049 158.495C157.726 157.975 161.088 157.512 164.029 157.117C160.598 146.103 158.939 124.339 151.323 109.24C139.478 85.7547 131.626 61.1332 114.202 63.0271C92.6106 67.1939 76.6395 114.97 82.3831 136.513L88.4438 169.163C112.484 151.92 110.321 119.148 140.408 160.48C119.845 163.551 94.6758 167.664 76.5326 171.579C70.6296 172.853 65.4704 174.105 61.4557 175.294C34.1736 183.373 32.7377 201.55 61.4557 205.589Z" fill="#5E3B86"/>
<path fill-rule="evenodd" clip-rule="evenodd" d="M61.4557 205.589C72.8221 207.188 88.6871 209.314 104.51 210.59C161.228 208.185 158.357 187.412 154.049 158.495C157.726 157.975 161.088 157.512 164.029 157.117C160.598 146.103 158.939 124.339 151.323 109.24C139.478 85.7547 131.626 61.1332 114.202 63.0271C92.6106 67.1939 76.6395 114.97 82.3831 136.513L88.4438 169.163C112.484 151.92 110.321 119.148 140.408 160.48C119.845 163.551 94.6758 167.664 76.5326 171.579C70.6296 172.853 65.4704 174.105 61.4557 175.294C34.1736 183.373 32.7377 201.55 61.4557 205.589Z" fill="url(#paint1_linear_443_26)" fill-opacity="0.2"/>
<path d="M54.2754 207.609C61.4549 196.164 61.4549 184.72 51.4036 174.621C42.5489 178.436 25.2704 190.375 26.9935 207.609C28.7165 224.844 50.6858 233.192 61.4551 235.211C56.6687 229.825 48.5318 216.765 54.2754 207.609Z" fill="#6573AD"/>
<path d="M51.4048 174.621C42.5501 178.436 25.2716 190.375 26.9947 207.609C27.5251 212.915 29.9741 217.378 33.4244 221.074C22.6457 191.452 47.0749 188.086 59.1934 189.432C58.5745 184.295 56.0743 179.313 51.4048 174.621Z" fill="#A7B5F4"/>
<path d="M84.1846 43.2021C84.8684 39.9061 89.1654 29.7967 96.5671 22.394C102.171 28.3695 113.191 41.9316 112.441 48.3765C111.503 56.4326 89.1823 57.99 89.4558 56.6717C89.6222 55.8699 87.0357 50.6691 88.1297 45.3956C88.1297 45.3956 85.2329 43.689 84.1846 43.2021Z" fill="#FFD2D2"/>
<path d="M119.167 19.7629C136.52 31.414 133.411 53.4581 149.188 69.1738C128.217 60.1387 98.94 63.1408 86.9227 65.7711C86.4616 63.3468 85.872 59.8596 85.3189 55.9234L101.78 50.2893C102.756 49.1168 104.021 44.4333 101.269 35.0794C95.946 26.8067 89.5855 23.695 87.0706 23.1733C92.9903 15.2171 105.962 10.8974 119.167 19.7629Z" fill="#7484CA"/>
<path d="M83.7892 55.606L84.1616 67.9485L90.7427 64.5009L86.6011 56.1894L83.7892 55.606Z" fill="#A3B2F3"/>
<path d="M83.7892 55.606L84.1616 67.9485L90.7427 64.5009L86.6011 56.1894L83.7892 55.606Z" fill="url(#paint2_linear_443_26)" fill-opacity="0.4"/>
<path d="M126.852 63.7385C134.59 64.5529 142.333 66.2202 149.189 69.1737C141.835 61.8492 138.584 53.1499 135.452 44.7689C131.864 35.1675 128.432 25.9838 119.167 19.7629C111.302 14.4826 103.52 13.8796 97.2614 15.9365L98.4993 20.0438C104.67 18.5738 110.743 24.6465 110.743 24.6465C122.662 36.6177 128.052 57.9563 126.852 63.7385Z" fill="#A3B2F3"/>
<path d="M126.852 63.7385C134.59 64.5529 142.333 66.2202 149.189 69.1737C141.835 61.8492 138.584 53.1499 135.452 44.7689C131.864 35.1675 128.432 25.9838 119.167 19.7629C111.302 14.4826 103.52 13.8796 97.2614 15.9365L98.4993 20.0438C104.67 18.5738 110.743 24.6465 110.743 24.6465C122.662 36.6177 128.052 57.9563 126.852 63.7385Z" fill="url(#paint3_linear_443_26)" fill-opacity="0.4"/>
<path d="M95.2541 11.18L107.309 38.0571C107.829 39.2161 106.562 40.3265 105.37 39.7568L78.352 26.8427C78.352 26.8427 81.8221 20.604 85.1647 17.4982C89.9142 13.0854 95.2541 11.18 95.2541 11.18Z" fill="#5664A0"/>
<path d="M95.2541 11.18L107.309 38.0571C107.829 39.2161 106.562 40.3265 105.37 39.7568L78.352 26.8427C78.352 26.8427 81.8221 20.604 85.1647 17.4982C89.9142 13.0854 95.2541 11.18 95.2541 11.18Z" fill="url(#paint4_linear_443_26)" fill-opacity="0.2"/>
<path fill-rule="evenodd" clip-rule="evenodd" d="M94.817 27.0121C95.8771 25.6263 97.1036 24.2952 98.3201 23.4492L97.4133 20.8448C95.8599 21.925 93.6053 23.9234 92.4788 25.396C91.3422 26.8818 90.4432 28.3421 89.9525 29.2552L92.5148 30.5242C92.9424 29.7285 93.767 28.3847 94.817 27.0121ZM88.8526 21.655C90.5282 19.8565 93.1012 17.9133 95.0674 16.613L94.1879 13.9924C92.0588 15.4004 88.5126 17.8761 86.6793 19.8439C84.8902 21.7642 83.3498 23.9593 83.0053 26.0075L85.723 27.1596C85.9369 25.888 87.1329 23.501 88.8526 21.655Z" fill="#AFBAEA"/>
<path d="M47.9642 75.4643C48.6955 74.2546 57.2152 79.3499 60.3751 73.0009C56.5203 67.0315 43.2363 56.0682 40.3619 56.8216C39.2906 56.2035 36.5973 52.8389 36.1799 58.5609C36.1799 58.5609 36.3961 63.8777 38.5863 67.2695C43.4924 74.8671 45.091 73.8776 47.9642 75.4643Z" fill="#FFD2D2"/>
<path d="M176.754 173.102C176.697 162.777 163.7 73.4484 132.749 63.5896C115.19 57.7467 104.838 61.4661 101.856 64.0562L133.17 164.06C143.545 169.421 166.787 178.735 176.754 173.102Z" fill="#7484CA"/>
<path d="M176.754 173.102C176.697 162.777 163.7 73.4484 132.749 63.5896C115.19 57.7467 104.838 61.4661 101.856 64.0562L133.17 164.06C143.545 169.421 166.787 178.735 176.754 173.102Z" fill="url(#paint5_linear_443_26)" fill-opacity="0.5"/>
<path d="M94.2484 164.237L96.6738 120.736L77.5159 135.326L81.0697 164.253L94.2484 164.237Z" fill="#7484CA"/>
<path d="M94.2484 164.237L96.6738 120.736L77.5159 135.326L81.0697 164.253L94.2484 164.237Z" fill="url(#paint6_linear_443_26)" fill-opacity="0.5"/>
<path d="M176.754 173.102C176.697 162.777 163.7 73.4483 132.749 63.5896C122.273 60.1036 114.362 60.0214 109.052 61.0723C138.39 71.6353 142.123 78.5983 148.349 90.8908C153.33 100.725 166.71 150.722 172.777 174.491C174.255 174.211 175.595 173.758 176.754 173.102Z" fill="#A6B4F3"/>
<path d="M86.4217 141.986C100.287 135.236 113.9 108.496 116.577 84.9869C120.407 66.5298 105.494 70.0824 97.559 74.1658C90.4955 83.4721 79.5007 99.7091 70.7832 107.801C70.7371 99.5411 62.7792 82.764 59.6364 73.174C54.8523 71.4939 49.1643 76.1539 44.884 74.1658C41.6019 89.9862 48.657 119.025 56.7405 133.078C62.3033 142.749 72.5565 148.735 86.4217 141.986Z" fill="#674094"/>
<path d="M120.418 87.5932C123.242 111.22 100.291 135.238 86.4257 141.987C72.5605 148.736 62.3073 142.75 56.7445 133.079C52.1698 125.126 49.035 115.016 46.0216 101.286C50.2873 117.46 64.6277 144.893 80.6048 134.592C98.354 123.148 114.256 74.88 103.924 71.6702C111.432 69.6234 118.006 67.4069 120.418 87.5932Z" fill="#9972C6"/>
<path d="M80.8483 105.377C100.239 107.337 126.057 78.3154 120.22 64.0407C106.277 57.0228 93.8193 64.0641 87.9596 71.0992C82.0999 78.1343 78.7808 87.0716 80.8483 105.377Z" fill="#7484CA"/>
<path d="M87.9596 71.0992C82.0999 78.1343 78.7808 87.0716 80.8483 105.377C80.2694 95.1728 82.9546 73.9114 98.3271 70.4999C117.543 66.2357 113.949 76.4909 105.94 94.7688C116.379 85.4935 123.597 72.2991 120.22 64.0407C106.277 57.0228 93.8193 64.0641 87.9596 71.0992Z" fill="#A7B5F4"/>
<path fill-rule="evenodd" clip-rule="evenodd" d="M42.2109 47.2456C41.8147 47.2305 41.4805 47.5194 41.4643 47.8909C41.3521 50.4695 41.9845 53.838 42.7955 56.9577C43.6103 60.0922 44.623 63.0397 45.3099 64.8033C45.4459 65.1525 45.8581 65.3322 46.2306 65.2047C46.603 65.0771 46.7947 64.6906 46.6586 64.3413C45.9881 62.62 44.9916 59.7203 44.1905 56.6389C43.3857 53.5427 42.7954 50.3267 42.899 47.9457C42.9152 47.5742 42.6071 47.2608 42.2109 47.2456Z" fill="#6A276B"/>
<path d="M42.3124 46.455C38.2497 46.9663 31.4406 40.7858 32.9969 34.695C39.2497 36.0124 41.8308 41.9925 42.3124 46.455Z" fill="#FFF3B6"/>
<path d="M45.6435 31.1815C38.3094 37.5555 42.1201 42.9879 42.3124 46.455C42.5834 46.0842 42.9668 45.5788 43.4549 45.0026C46.3823 40.917 50.3982 37.1249 45.6435 31.1815Z" fill="#FFF3B6"/>
<path d="M43.4549 45.0026C43.0824 45.5226 42.6984 46.0098 42.3124 46.455C42.6641 46.5021 42.5739 46.5858 43.0548 46.6549C49.6825 49.2432 54.3824 45.0821 56.1062 38.7823C50.1556 38.2127 45.6983 42.3547 43.4549 45.0026Z" fill="#FFF3B6"/>
<path d="M45.0306 46.4256C45.0528 47.7411 43.9197 48.8247 42.4998 48.8457C41.08 48.8667 39.911 47.8172 39.8889 46.5017C39.8667 45.1861 41.435 44.4932 42.8548 44.4722C44.2747 44.4512 45.0085 45.11 45.0306 46.4256Z" fill="#FFAFE4"/>
<path d="M21.5721 200.002C13.9568 197.449 11.5296 192.088 13.562 184.672C21.7747 187.819 24.0711 194.524 21.5721 200.002Z" fill="#FFC786"/>
<path d="M26.1754 205.203C22.8951 198.374 26.4882 192.346 27.9201 186.645C33.9156 193.765 32.0826 201.605 26.1754 205.203Z" fill="#FFC786"/>
<path d="M4.00983 198.742C8.8011 206.71 17.2368 208.848 24.1205 206.755C20.2826 201.642 13.1174 199.418 4.00983 198.742Z" fill="#FFC786"/>
<path d="M6.93526 214.139C13.0058 220.683 21.5957 219.815 28.8795 217.168C24.3199 211.829 17.2363 210.065 6.93526 214.139Z" fill="#FFC786"/>
<path d="M10.0993 225.807C16.0764 233.723 26.4764 232.093 33.806 228.955C28.6724 223.66 20.4393 221.028 10.0993 225.807Z" fill="#FFC786"/>
<path d="M30.7753 216.25C29.9867 208.435 34.1153 203.462 40.9981 200.32C43.4969 206.424 40.8299 212.002 30.7753 216.25Z" fill="#FFC786"/>
<path d="M37.5547 231.878C32.5089 223.086 42.324 214.304 49.8729 210.871C52.5989 217.563 48.5816 227.237 37.5547 231.878Z" fill="#FFC786"/>
<path d="M21.5721 200.002C26.308 206.57 36.4856 230.462 41.8607 242.771L39.3424 240.862C34.2139 227.741 25.9931 208.317 21.5721 200.002Z" fill="#FFC786"/>
<path d="M39.3424 240.862C31.3184 233.977 21.1855 232.631 18.0216 234.825C22.7409 242.555 34.3143 242.885 39.3424 240.862Z" fill="#FFC786"/>
<defs>
<linearGradient id="paint0_linear_443_26" x1="78.6656" y1="237.23" x2="82.4589" y2="200.823" gradientUnits="userSpaceOnUse">
<stop stop-color="#3E1F62"/>
<stop offset="1" stop-color="#3F2161" stop-opacity="0"/>
</linearGradient>
<linearGradient id="paint1_linear_443_26" x1="89.4325" y1="210.301" x2="91.9578" y2="101.905" gradientUnits="userSpaceOnUse">
<stop stop-color="#260D45"/>
<stop offset="0.330105" stop-color="#562793" stop-opacity="0"/>
</linearGradient>
<linearGradient id="paint2_linear_443_26" x1="125.537" y1="18.7774" x2="119.135" y2="51.14" gradientUnits="userSpaceOnUse">
<stop stop-color="white"/>
<stop offset="1" stop-color="white" stop-opacity="0"/>
</linearGradient>
<linearGradient id="paint3_linear_443_26" x1="125.537" y1="18.7774" x2="119.135" y2="51.14" gradientUnits="userSpaceOnUse">
<stop stop-color="white"/>
<stop offset="1" stop-color="white" stop-opacity="0"/>
</linearGradient>
<linearGradient id="paint4_linear_443_26" x1="84.7921" y1="15.3837" x2="100.527" y2="32.0474" gradientUnits="userSpaceOnUse">
<stop stop-color="#3F4B7C"/>
<stop offset="1" stop-color="#414E82" stop-opacity="0"/>
</linearGradient>
<linearGradient id="paint5_linear_443_26" x1="82.6718" y1="128.145" x2="158.715" y2="122.231" gradientUnits="userSpaceOnUse">
<stop stop-color="#495795"/>
<stop offset="1" stop-color="#5260A0" stop-opacity="0"/>
</linearGradient>
<linearGradient id="paint6_linear_443_26" x1="82.6718" y1="128.145" x2="158.715" y2="122.231" gradientUnits="userSpaceOnUse">
<stop stop-color="#495795"/>
<stop offset="1" stop-color="#5260A0" stop-opacity="0"/>
</linearGradient>
</defs>
</svg>
