<svg width="482" height="296" viewBox="0 0 482 296" fill="none" xmlns="http://www.w3.org/2000/svg">
<mask id="mask0_443_437" style="mask-type:alpha" maskUnits="userSpaceOnUse" x="10" y="18" width="462" height="260">
<rect x="10.0879" y="18.0005" width="461.907" height="259.782" rx="25.9134" fill="url(#paint0_linear_443_437)"/>
</mask>
<g mask="url(#mask0_443_437)">
<path d="M460.045 254.599C382.292 241.231 160.278 190.491 7.49916 220.501C-26.5 302.5 26.4992 290.065 362.649 290.065C416.776 296.395 540.345 269.058 595.363 254.599C576.175 259.055 522.248 265.293 460.045 254.599Z" fill="#4B2083"/>
<path d="M460.045 254.599C382.292 241.231 160.278 190.491 7.49916 220.501C-26.5 302.5 26.4992 290.065 362.649 290.065C416.776 296.395 540.345 269.058 595.363 254.599C576.175 259.055 522.248 265.293 460.045 254.599Z" fill="url(#paint1_linear_443_437)"/>
</g>
<path d="M391.664 100.43C388.351 94.051 380.229 80.4276 374.244 76.968C377.806 79.4351 378.212 100.668 377.969 110.976L384.659 115.872L391.664 100.43Z" fill="#526095"/>
<path d="M471.946 195.233C471.087 186.864 455.67 173.354 435.25 170.874C433.01 173.759 427.868 180.639 425.217 185.075C431.355 189.722 446.404 193.489 456.249 195.827C453.349 205.151 444.393 211.994 438.613 216.82C439.015 227.429 445.107 235.637 448.103 238.414C456.337 226.81 472.633 201.929 471.946 195.233Z" fill="#A46CD0"/>
<path d="M438.615 216.82C439.016 227.429 445.108 235.637 448.104 238.414C449.411 236.573 450.92 234.397 452.533 232.013C443.918 226.485 439.665 219.581 438.615 216.82Z" fill="#D3ACF1"/>
<path d="M300.895 187.066C305.291 181.479 303.891 173.13 299.984 162.979C301.843 164.355 307.063 168.132 313.072 172.241C319.081 176.35 316.115 188.207 313.88 193.621C316.691 198.665 322.833 211.062 324.917 220.306C327.001 229.551 324.915 239.368 323.612 243.121C319.312 239.309 310.142 230.947 307.863 227.998C308.862 211.428 301.488 202.763 299.4 197.692C297.311 192.622 296.499 192.652 300.895 187.066Z" fill="#A46CD0"/>
<path d="M323.612 243.12C319.312 239.308 310.143 230.946 307.863 227.997C309.355 229.657 314.937 233.475 325.331 235.467C324.875 238.785 324.171 241.51 323.612 243.12Z" fill="#D3ACF1"/>
<path d="M384.505 111.813C382.453 114.872 379.547 116.879 383.705 126.478C388.531 132.258 401.724 101.297 410.163 95.1235C418.602 88.9503 432.236 91.127 437.998 92.987L449.576 119.651C450.935 114.993 452.679 104.248 448.777 98.5423C443.9 91.4095 440.882 90.4387 440.229 87.4822C439.575 84.5257 435.954 81.9533 431.384 82.9384C429.066 78.9607 423.872 77.802 417.822 82.6388C412.536 80.4542 408.477 83.9857 407.109 86.0246C405.919 85.6179 402.929 85.8574 400.486 90.0694C398.04 89.8908 392.511 94.1652 389.779 100.773C385.74 101.468 383.519 107.243 384.505 111.813Z" fill="#B35EAA"/>
<path fill-rule="evenodd" clip-rule="evenodd" d="M383.705 126.478C380.021 117.972 381.882 115.428 383.782 112.831C384.026 112.497 384.271 112.162 384.505 111.813C385.752 116.102 388.441 121.601 389.63 123.815C387.171 126.765 385.092 128.14 383.705 126.478ZM391.636 121.198C390.197 116.588 387.811 106.051 389.779 100.773C392.511 94.1652 398.04 89.8908 400.486 90.0694C398.215 94.4912 397.942 101.548 402.904 103.8C401.244 106.263 399.547 108.971 397.871 111.644C395.714 115.086 393.593 118.47 391.636 121.198ZM404.445 101.573C406.477 98.7279 408.421 96.3977 410.163 95.1235C410.432 92.6741 412.34 86.7481 417.822 82.6388C412.535 80.4542 408.477 83.9857 407.109 86.0246C404.442 90.0278 404.222 98.0583 404.445 101.573ZM437.998 92.987C435.236 92.0956 430.667 91.1316 425.729 91.0485C425.476 89.1488 426.254 84.867 431.384 82.9384C435.954 81.9533 439.575 84.5257 440.229 87.4822C440.564 88.997 441.519 89.9905 443.028 91.5587C444.463 93.0512 446.399 95.0641 448.777 98.5423C452.679 104.248 450.935 114.993 449.576 119.651C449.766 115.127 450.763 106.597 449.774 103.383C448.537 99.364 445.116 94.886 437.998 92.987ZM437.998 92.987C444.345 95.9992 447.788 101.018 448.462 104.516C449.001 107.314 449.429 115.772 449.576 119.651L437.998 92.987Z" fill="#994090"/>
<path d="M452.247 125.784C452.022 119.83 443.391 106.606 439.964 94.8102C444.221 92.6981 448.917 87.8767 450.733 85.73C447.409 86.217 439.144 87.4691 432.682 88.581C425.574 86.9526 404.454 87.4801 392.68 105.813C383.261 120.479 384.641 132.135 386.509 136.129C382.946 135.09 373.236 132.024 362.897 128.078C349.972 123.147 326.508 111.838 311.711 121.883C296.914 131.928 295.322 147.166 300.245 162.699C304.309 155.499 325.849 166.067 341.485 178.214C357.122 190.361 374.095 194.868 392.259 194.995C410.422 195.121 422.998 190.851 431.203 185.662C439.409 180.474 441.333 166.85 439.704 159.594C438.074 152.338 433.927 143.009 427.646 134.574C422.621 127.826 422 119.068 422.318 115.533C422.262 116.438 423.482 119.066 428.809 122.334C435.468 126.419 439.732 131.678 441.52 135.947C442.95 139.362 447.215 138.441 449.169 137.555C450.27 135.616 452.427 130.547 452.247 125.784Z" fill="#D7B7FF"/>
<path d="M436.704 94.662C437.151 90.8954 445.36 87.7133 449.408 86.5931C447.053 89.2117 441.214 94.4915 436.704 94.662Z" fill="#B35EAA"/>
<path fill-rule="evenodd" clip-rule="evenodd" d="M427.645 134.574C422.62 127.825 421.999 119.068 422.317 115.533C420.572 109.527 423.145 101.589 424.649 98.3697C419.402 100.555 409.902 108.304 413.882 121.814C416.137 129.469 421.119 134.738 426.184 140.093C432.29 146.55 438.516 153.134 440.225 164.181C440.184 162.496 440.004 160.936 439.703 159.594C438.073 152.338 433.926 143.009 427.645 134.574Z" fill="#B885E0"/>
<path d="M392.679 105.812C383.26 120.478 384.64 132.134 386.508 136.129C386.555 137.392 387.355 139.891 390.169 139.785C387.349 122.546 401.379 96.2686 417.248 88.9947C408.871 90.8268 399.298 95.5057 392.679 105.812Z" fill="#B885E0"/>
<path d="M392.257 194.994C410.42 195.121 422.997 190.851 431.202 185.662C434.992 183.266 437.442 179.07 438.821 174.533C430.187 185.159 408.591 189.769 395.534 181.319C358.477 183.262 325.167 155.251 316.71 146.627C308.253 138.003 309.336 123.627 325.379 117.866C320.437 117.989 315.75 119.14 311.71 121.883C296.912 131.928 295.32 147.165 300.244 162.699C304.308 155.498 325.847 166.067 341.484 178.214C357.12 190.36 374.094 194.868 392.257 194.994Z" fill="#B885E0"/>
<path d="M452.246 125.784C452.426 130.547 450.269 135.615 449.168 137.554C447.214 138.441 442.948 139.361 441.518 135.946C440.492 133.495 438.649 130.718 436.006 128.024C440.906 128.99 443.07 128.721 444.918 125.519C446.997 121.917 447.248 116.274 448.005 113.97C450.303 118.866 452.144 123.077 452.246 125.784Z" fill="#B885E0"/>
<path d="M449.27 125.896C447.176 127.872 447.059 131.942 448.693 132.151C450.001 132.319 449.622 128.051 449.27 125.896Z" fill="#522C70"/>
<path fill-rule="evenodd" clip-rule="evenodd" d="M446.943 111.722C449.712 117.568 452.128 122.67 452.246 125.784C452.315 127.602 452.043 129.465 451.619 131.181C451.825 130.165 451.531 129.197 451.162 127.983C450.784 126.738 450.328 125.233 450.249 123.149C450.118 119.685 442.618 110.067 440.464 108.071C441.883 102.597 439.963 94.8096 439.963 94.8096C439.963 94.8096 445.286 108.224 446.943 111.722Z" fill="#E7C9FF"/>
<path fill-rule="evenodd" clip-rule="evenodd" d="M431.568 87.8095C432.119 88.0597 432.863 88.2353 432.69 88.6496C430.098 94.8744 426.332 102.806 429.089 109.578C430.483 113.002 432.457 115.853 434.284 117.926C435.198 118.962 436.068 119.797 436.802 120.408C437.239 120.772 437.61 121.042 437.902 121.227C440.664 118.148 444.024 114.762 447.695 112.946C448.098 112.747 448.762 113.58 448.961 113.983C449.16 114.385 449.422 115.337 449.02 115.535C445.437 117.307 441.246 119.555 438.74 122.754L438.737 122.758L438.734 122.762C437.435 124.38 436.749 125.706 436.41 126.679C436.059 127.684 436.103 128.24 436.139 128.363C436.264 128.794 436.016 129.245 435.586 129.37C435.155 129.496 434.704 129.248 434.579 128.817C434.407 128.225 434.476 127.29 434.875 126.144C435.225 125.141 435.848 123.916 436.884 122.503C436.537 122.273 436.158 121.987 435.762 121.657C434.958 120.988 434.028 120.093 433.065 119.001C431.14 116.816 429.058 113.813 427.584 110.19C424.639 102.956 427.175 94.8141 429.954 88.1415C430.127 87.7273 431.026 87.8299 431.568 87.8095Z" fill="#6E3DAD"/>
<path fill-rule="evenodd" clip-rule="evenodd" d="M283.832 112.866C272.444 109.557 264.107 107.134 250.969 113.881C240.81 119.098 238.107 131.727 234.961 146.429C232.179 159.429 229.049 174.049 220.112 186.597C201.067 213.335 182.196 230.31 156.756 231.272C131.17 232.239 110.231 212.162 109.586 195.112C108.697 171.598 128.942 169.446 136.449 181.63C130.474 166.949 112.704 170.06 105.597 182.796C98.4899 195.532 98.6046 227.237 132.736 241.124C142.47 245.084 152.884 246.66 163.296 246.544C180.426 248.015 212.569 245.152 224.482 237.655C236.394 230.158 243.895 220.659 261.755 185.022C268.368 172.462 273.771 159.324 277.749 148.372C285.015 128.367 301.334 124.624 308.585 125.253C311.299 122.982 317.865 118.398 322.412 118.226C304.595 118.9 293.185 115.584 283.832 112.866ZM181.117 244.798C200.789 241.259 217.369 233.221 229.153 225.011C232.512 222.671 241.469 213.337 244.578 210.064C229.552 235.566 214.415 241.83 181.117 244.798Z" fill="#B35EAA"/>
<path d="M430.187 273.51C435.347 278.085 448.184 278.792 453.957 278.574C452.667 276.297 451.017 273.292 449.172 269.811C442.033 272.683 433.54 273.474 430.187 273.51Z" fill="#ECD3FF"/>
<path d="M335.621 137.782C324.462 122.214 310.742 124.901 302.251 136.875C297.6 143.433 297.547 154.822 299.684 162.178C302.488 171.829 310.623 179.11 311.951 185.564C313.279 192.019 308.592 197.074 309.527 200.291C310.462 203.508 318.515 208.624 327.181 215.614C334.113 221.206 335.364 228.946 335.122 232.117C337.858 235.176 345.366 242.137 353.516 245.515C356.701 229.404 342.591 207.443 336.494 203.879C330.396 200.315 328.42 198.222 332.076 194.56C345.535 177.79 346.779 153.351 335.621 137.782Z" fill="#C99AF9"/>
<path d="M335.121 232.116C337.857 235.175 345.365 242.136 353.515 245.514C354.045 242.834 354.096 239.993 353.785 237.101C345.138 236.778 337.739 233.643 335.121 232.116Z" fill="#ECD3FF"/>
<path fill-rule="evenodd" clip-rule="evenodd" d="M332.515 205.765C338.389 208.799 344.702 212.06 348.853 220.756C344.917 212.453 339.639 205.718 336.493 203.879C330.396 200.315 328.419 198.222 332.075 194.56C339.173 185.717 342.873 174.741 343.15 164.057C341.939 173.86 336.655 180.206 329.542 184.899C322.428 189.592 317.888 193.079 321.914 198.196C324.688 201.723 328.499 203.691 332.515 205.765Z" fill="#B885E0"/>
<path d="M338.75 117.066L355.133 123.493C365.362 126.059 375.817 125.68 384.66 123.974C387.773 126.714 396.16 157.537 390.312 162.043C384.464 166.55 366.337 164.664 352.888 159.173C339.44 153.682 335.264 146.698 338.073 133.45C339.586 126.312 338.739 121.457 337.486 118.603C337.238 118.039 338.177 116.841 338.75 117.066Z" fill="#6E3DAD"/>
<path d="M341.389 118.322L347.986 120.782C357.203 123.234 377.628 127.738 385.59 126.136C388.398 128.74 396.009 157.994 390.75 162.258C385.49 166.522 369.16 164.7 357.038 159.467C344.915 154.234 341.141 147.601 343.647 135.039C345.652 124.99 342.977 119.707 341.389 118.322Z" fill="#A46CD0"/>
<path d="M347.961 124.113C345.151 117.409 342.583 109.606 347.385 108.88C351.922 108.709 357.167 119.679 368.564 120.61C379.961 121.541 380.575 115.252 382.462 120.084C384.349 124.916 391.215 156.255 387.296 157.765C369.318 163.076 349.041 152.674 347.711 147.549C346.382 142.423 350.771 130.817 347.961 124.113Z" fill="#593A81"/>
<path d="M433.796 103.716C436.242 103.894 436.855 105.768 436.386 107.683C433.409 107.796 431.953 105.141 433.796 103.716Z" fill="#B35EAA"/>
<path d="M433.751 103.988C432.98 105.101 433.031 106.455 435.457 106.092C435.608 104.352 434.383 103.964 433.751 103.988Z" fill="#522C70"/>
<path d="M323.6 135.255C323.679 137.348 323.64 138.235 321.547 138.314C319.454 138.393 316.851 135.98 316.772 133.887C316.693 131.795 317.825 131.137 319.918 131.058C322.01 130.979 323.52 133.163 323.6 135.255Z" fill="#ECD3FF"/>
<path d="M312.519 147.866C311.511 149.12 311.041 149.615 309.787 148.606C308.534 147.598 308.24 144.886 309.249 143.633C310.257 142.379 311.245 142.568 312.498 143.577C313.752 144.585 313.527 146.613 312.519 147.866Z" fill="#ECD3FF"/>
<path d="M329.873 140.09C329.195 140.933 328.879 141.266 328.036 140.588C327.193 139.91 326.995 138.086 327.674 137.243C328.352 136.4 329.016 136.527 329.859 137.205C330.702 137.883 330.552 139.247 329.873 140.09Z" fill="#ECD3FF"/>
<path d="M325.368 124.251C324.296 124.105 323.848 124.006 323.994 122.934C324.14 121.862 325.6 120.751 326.672 120.897C327.744 121.043 327.978 121.678 327.832 122.75C327.686 123.822 326.44 124.397 325.368 124.251Z" fill="#ECD3FF"/>
<path d="M333.892 129.509C333.768 130.102 333.695 130.348 333.102 130.224C332.51 130.101 331.947 129.242 332.071 128.649C332.194 128.056 332.558 127.951 333.151 128.074C333.743 128.198 334.015 128.916 333.892 129.509Z" fill="#ECD3FF"/>
<path d="M311.364 135.781C311.241 136.374 311.168 136.62 310.575 136.497C309.982 136.373 309.42 135.514 309.543 134.921C309.667 134.329 310.03 134.223 310.623 134.347C311.216 134.47 311.488 135.188 311.364 135.781Z" fill="#ECD3FF"/>
<path d="M181.117 244.798C200.789 241.259 217.369 233.221 229.153 225.011C232.512 222.671 241.469 213.337 244.578 210.064C248.097 206.183 251.327 197.616 255.195 187.355C262.236 168.675 271.392 144.385 288.262 132.541C293.663 127.892 299.629 125.917 304.251 125.362C304.882 125.287 305.489 125.237 306.066 125.211C294.935 125.707 270.527 132.874 261.297 157.667C249.734 188.729 244.511 201.123 226.63 215.621C236.826 205.75 242.744 197.395 245.898 180.473C246.775 175.767 247.054 171.294 247.334 166.78C248.063 155.059 248.81 143.061 260.1 126.002C248.572 130.775 243.608 143.791 242.567 149.702C242.471 142.388 244.017 124.984 250.969 113.881C240.81 119.098 238.107 131.727 234.961 146.429C233.156 154.861 231.205 163.975 227.619 172.762C228.408 171.012 229.131 169.42 229.794 167.96L229.795 167.958C234.456 157.686 236.154 153.946 237.343 147.732C234.673 168.864 231.466 183.458 230.197 188.113C234.066 181.2 241.864 166.531 242.933 161.721L242.954 161.61L242.984 161.454L243.007 161.339C242.988 161.459 242.963 161.586 242.933 161.721C242.266 165.185 241.761 168.444 241.277 171.565C238.705 188.165 236.74 200.843 214.313 219.61C192.876 237.549 171.54 242.367 143.291 240.725C161.941 246.549 177.013 245.199 181.117 244.798Z" fill="#D985D0"/>
<path fill-rule="evenodd" clip-rule="evenodd" d="M242.933 161.721C242.963 161.586 242.988 161.459 243.007 161.339L242.984 161.454L242.954 161.61L242.933 161.721Z" fill="#D985D0"/>
<path d="M319.888 118.681C320.77 118.419 321.621 118.256 322.412 118.226C304.595 118.9 293.184 115.584 283.832 112.866C274.922 110.277 267.879 108.23 258.944 110.694C278.89 106.863 267.11 117.878 287.771 119.536C301.934 120.673 313.839 119.626 319.888 118.681Z" fill="#D985D0"/>
<path d="M421.968 170.835C419.777 163.058 408.986 142.868 390.685 146.27C384.251 148.14 386.627 168.376 389.405 176.944C394.007 191.134 406.508 206.38 417.081 227.933C427.113 248.387 429.767 262.415 430.187 273.511C435.347 278.086 448.184 278.793 453.957 278.575C448.246 268.492 435.473 244.15 430.071 227.442C423.319 206.558 424.159 178.611 421.968 170.835Z" fill="#C99AF9"/>
<path fill-rule="evenodd" clip-rule="evenodd" d="M401.042 193.345C397.508 188.395 389.305 174.237 387.252 162.932C385.859 176.265 396.985 193.08 402.751 202.547C407.337 210.076 412.399 218.386 417.083 227.933C427.115 248.387 429.769 262.415 430.189 273.511C430.58 269.522 430.906 258.09 429.083 244.283C427.195 229.984 418.111 217.259 401.042 193.345Z" fill="#B885E0"/>
<path fill-rule="evenodd" clip-rule="evenodd" d="M156.756 231.272C180.473 230.375 198.482 215.561 216.244 191.893C211.733 199.2 200.186 215.808 190.08 223.779C177.447 233.742 153.545 239.524 134.365 234.016C115.186 228.508 104.808 212.097 106.283 200.929C106.661 210.942 125.363 232.459 156.756 231.272Z" fill="#994090"/>
<path d="M110.14 199.329C109.826 197.912 109.639 196.502 109.586 195.113C108.697 171.599 128.942 169.447 136.449 181.63C130.474 166.95 112.704 170.061 105.597 182.796C102.519 188.312 100.796 197.387 102.604 207.031C100.804 197.125 105.145 185.162 106.981 183.557C107.901 187.39 106.213 197.365 110.14 199.329Z" fill="#994090"/>
<path d="M387.318 157.509C384.028 158.518 380.655 158.951 377.345 158.955C380.787 149.626 387.629 148.554 386.957 139.365C388.434 148.18 389.233 156.742 387.318 157.509Z" fill="#492D6D"/>
<path d="M378.487 67.3219C377.958 65.2641 376.166 60.4178 374.36 58.5347C369.105 55.7522 365.087 56.9882 363.346 61.1193C361.954 64.4242 363.767 69.8664 364.848 72.1744L369.588 82.8356L371.165 74.3747L371.104 72.7509C372.644 72.8734 375.769 72.8456 375.944 71.7548C376.12 70.6641 376.464 68.7536 376.603 67.6642L378.487 67.3219Z" fill="#FFD1B8"/>
<path d="M371.166 74.3746L371.105 72.7508C368.924 72.3993 367.054 70.7354 366.392 69.9474L364.849 72.1743L369.589 82.8355L371.166 74.3746Z" fill="#C6967C"/>
<path fill-rule="evenodd" clip-rule="evenodd" d="M374.911 58.7838C376.473 57.0989 371.77 54.5663 367.47 55.5419C363.171 56.5175 361.088 58.7648 361.461 61.4609C361.834 64.157 361.614 65.5204 359.49 66.6848C357.366 67.8492 357.478 70.8262 359.695 72.0975C361.911 73.3688 368.406 73.1232 370.459 70.0644C371.528 68.4713 371.237 67.3707 370.802 66.2571C370.759 66.1482 370.715 66.0391 370.671 65.9294C370.583 65.7112 370.494 65.4907 370.414 65.2641C370.449 64.6155 370.66 62.7053 372.317 61.8635C375.082 60.4581 374.67 59.6063 374.911 58.7838ZM370.182 62.7573C370.578 60.8747 371.059 59.8423 372.766 59.4073C372.897 60.0046 371.734 60.8014 371.214 61.3632C370.539 62.0907 370.377 64.105 370.226 64.6528C370.085 64.0887 370.032 63.4729 370.182 62.7573Z" fill="#9B7763"/>
<path fill-rule="evenodd" clip-rule="evenodd" d="M375.203 58.2313C375.169 58.4214 375.074 58.6072 374.911 58.7838C372.944 56.9616 370.228 56.7933 367.823 57.6973C365.418 58.6013 364.126 60.2762 364.729 61.8796C364.885 62.2948 365.095 62.6899 365.302 63.0809C365.897 64.1998 366.474 65.2862 365.725 66.7203C365.199 67.7277 363.77 68.1818 362.529 68.5764C361.385 68.94 360.4 69.2531 360.425 69.9019C360.466 70.9845 361.779 72.2749 362.431 72.7849C361.432 72.6494 359.31 71.9496 358.811 70.234C358.453 69.0015 359.463 68.4334 360.578 67.8057C361.404 67.3412 362.287 66.8441 362.717 66.021C363.374 64.7627 363.006 63.6578 362.651 62.5924C362.461 62.0191 362.273 61.4572 362.252 60.8891C362.191 59.2653 364.189 56.7506 368.032 56.0632C371.875 55.3759 373.746 56.6602 375.203 58.2313ZM364.868 72.7376C365.268 72.3957 365.775 72.0874 366.33 71.7498C367.476 71.0531 368.827 70.2316 369.866 68.7319C370.467 67.8643 369.856 65.9696 369.268 64.1449C368.89 62.9711 368.521 61.8262 368.49 61.0024C368.456 60.1125 370.372 58.0254 372.766 59.4073C372.746 58.8948 372.962 58.6378 373.275 58.5349C370.474 57.597 367.292 57.9884 366.531 59.3722C365.77 60.7561 366.651 62.5437 367.517 63.9423C368.383 65.3409 367.379 67.4708 364.443 68.6659C362.094 69.622 363.027 71.8297 363.787 72.8141C364.143 72.8032 364.505 72.778 364.868 72.7376Z" fill="#7C5D4B"/>
<path d="M370.414 65.2641C370.449 64.6155 370.66 62.7053 372.317 61.8635C374.598 60.7041 374.717 59.9216 374.824 59.2213C374.847 59.0727 374.869 58.9278 374.911 58.7838C374.466 58.5819 373.755 58.377 373.275 58.5349C372.962 58.6378 372.746 58.8948 372.766 59.4073C372.863 59.8479 372.256 60.3969 371.721 60.8802C370.761 61.7493 370.304 62.8792 369.963 64.1187C369.761 65.2106 370.34 66.9384 371.181 67.6589C371.17 67.5473 371.154 67.4374 371.133 67.3289C370.527 66.5387 370.439 65.9382 370.414 65.2641Z" fill="#7C5D4B"/>
<path d="M327.793 52.4354C328.083 54.3758 331.144 57.4581 332.639 58.7567L337.541 59.3844C338.021 57.7401 338.634 53.8685 337.244 51.536C335.855 49.2036 334.204 47.5857 333.552 47.0683C331.511 48.0488 327.502 50.4951 327.793 52.4354Z" fill="#DCB29F"/>
<path d="M338.779 78.0378C343.497 73.7941 353.256 72.8826 361.937 73.0964C361.631 74.5536 360.979 79.3124 360.825 86.69C360.631 95.912 357.833 101.709 352.421 101.914C351.898 99.5487 348.929 94.638 348.861 92.8338C342.397 93.8913 331.169 93.2317 329.829 92.1983C328.154 90.9065 325.662 82.3276 326.718 74.428C327.563 68.1084 329.269 63.0395 330.726 58.5577L339.115 58.2405C339.504 63.7366 340.082 72.3517 338.779 78.0378Z" fill="#6C79AE"/>
<path d="M326.718 74.428C325.662 82.3276 328.154 90.9065 329.829 92.1983C331.169 93.2317 342.397 93.8913 348.861 92.8338C348.898 93.8002 349.766 95.6578 350.645 97.5381C351.408 99.1683 352.178 100.816 352.421 101.914C355.982 101.779 358.412 99.223 359.712 94.8627C358.854 91.0188 356.226 83.5619 352.575 84.486C345.797 85.8279 338.642 85.799 334.997 85.4984C333.039 81.5071 329.714 70.5209 332.079 58.5066L330.726 58.5577C330.662 58.7538 330.598 58.951 330.533 59.1493C329.122 63.4854 327.526 68.3848 326.718 74.428Z" fill="#525F95"/>
<path d="M375.877 77.1769C377.854 79.2704 378.778 82.2166 379.928 91.1169C380.847 98.2371 380.094 107.462 379.602 111.185C373.933 111.76 360.951 112.486 354.382 110.783C352.777 108.459 349.365 99.9514 348.958 96.3532C351.634 95.4389 357.538 91.0419 357.75 85.1799C357.962 79.3178 355.928 75.2214 355.115 72.813C358.217 71.9493 364.761 72.164 368.409 73.1981L369.995 79.2965L370.051 73.6029C370.895 73.9124 370.928 73.6904 371.695 74.0828C372.122 74.301 371.812 74.8544 372.558 75.4053L375.085 76.7542C375.495 76.9469 375.801 77.0963 375.877 77.1769Z" fill="#7C447C"/>
<path fill-rule="evenodd" clip-rule="evenodd" d="M375.877 77.1769C375.801 77.0963 375.495 76.9469 375.085 76.7542L372.558 75.4053C373.167 75.8553 374.151 76.3161 374.892 76.6637C374.959 76.6948 375.023 76.725 375.085 76.7542L375.877 77.1769ZM379.602 111.185C380.094 107.462 380.847 98.2371 379.928 91.1169C380.271 98.0424 377.332 107.592 375.82 111.501C377.271 111.401 378.56 111.291 379.602 111.185ZM369.868 111.791C364.352 111.947 358.253 111.787 354.382 110.783C352.777 108.459 349.365 99.9514 348.958 96.3532C350.862 95.7028 354.399 93.2896 356.359 89.8403C353.983 100.229 356.703 107.649 369.868 111.791Z" fill="#6D346D"/>
<path fill-rule="evenodd" clip-rule="evenodd" d="M375.877 77.1769C375.801 77.0963 375.495 76.9469 375.085 76.7542L372.558 75.4053C373.167 75.8553 374.151 76.3161 374.892 76.6637C374.959 76.6948 375.023 76.725 375.085 76.7542L375.877 77.1769ZM348.958 96.3532C349.033 97.0164 349.21 97.8465 349.459 98.7738C351.277 97.8919 355.509 95.3056 357.485 92.5079C360.83 87.7741 360.365 82.6423 359.711 79.6853C359.188 77.3198 357.865 73.8625 357.268 72.4296C356.451 72.5179 355.718 72.645 355.115 72.813C355.25 73.2139 355.419 73.6617 355.607 74.1565C356.543 76.6343 357.927 80.2937 357.75 85.1799C357.538 91.0419 351.634 95.4389 348.958 96.3532Z" fill="#9D639B"/>
<path d="M379.928 91.1169C378.778 82.2166 377.854 79.2704 375.877 77.1769L375.085 76.7542C375.023 76.725 374.959 76.6948 374.892 76.6637C377.466 79.5565 378.671 86.5575 379.928 91.1169Z" fill="#9D639B"/>
<path d="M370.051 73.6029L369.995 79.2965L368.409 73.1981C366.728 72.7217 364.433 72.4192 362.142 72.3159C365.974 73.2902 366.824 74.2753 367.416 75.5997C367.89 76.6592 368.666 79.9766 368.994 81.5029L371.701 81.4006L371.695 74.0828C370.928 73.6904 370.895 73.9124 370.051 73.6029Z" fill="#9D639B"/>
<path d="M360.982 141.972C353.327 133.047 350.078 118.806 354.101 110.523C359.812 112.475 373.128 111.972 379.072 111.476L377.193 119.136L384.232 147.598C382.771 147.201 379.358 147.728 377.39 153.006C375.421 158.284 370.412 159.594 368.153 159.589C368.314 156.692 367.106 149.113 360.982 141.972Z" fill="#282455"/>
<path fill-rule="evenodd" clip-rule="evenodd" d="M384.231 147.598C384.231 147.598 379.905 126.351 377.086 123.476C374.267 120.601 370.137 117.451 361.726 118.636C359.019 118.739 356.655 120.725 364.825 121.772C371.361 122.609 379.604 139.913 381.055 149.615C381.055 149.615 382.771 147.201 384.231 147.598Z" fill="#34306A"/>
<path d="M370.79 186.321C369.618 179.228 366.476 158.243 367.386 153.655C368.649 153.608 372.552 154.111 374.652 152.296C377.276 150.029 379.61 147.23 382.566 146.576C384.931 146.053 384.827 149.021 384.865 150.014L380.317 180.269C381.888 181.203 386.204 184.003 390.898 187.728C384.403 187.974 379.297 186.722 377.555 186.065L377.606 187.418L370.79 186.321Z" fill="#895FB3"/>
<path fill-rule="evenodd" clip-rule="evenodd" d="M390.899 187.729L375.717 180.443C374.617 175.245 372.864 162.338 374.653 152.297C372.918 153.795 369.953 153.713 368.262 153.665C367.906 153.656 367.607 153.647 367.387 153.655C366.477 158.243 369.619 179.228 370.79 186.321L377.607 187.418L377.556 186.065C379.297 186.722 384.404 187.974 390.899 187.729Z" fill="#745097"/>
<path d="M374.623 151.484C371.673 153.764 368.39 153.888 367.116 153.665L367.168 155.019C371.518 155.396 373.949 153.733 375.215 152.817C376.798 151.673 380.714 147.731 383.15 147.639C384.232 147.598 384.755 149.475 384.886 150.555L385.095 148.921C385.061 148.018 384.612 146.174 383.088 146.015C381.184 145.816 378.309 148.635 374.623 151.484Z" fill="#BA9E73"/>
<path d="M406.655 8.67614L392.417 15.749L381.936 29.0341L364.994 31.3742L353.46 43.1799L338.911 52.6169L336.281 48.2683L351.395 39.7653L363.449 28.8205L380.903 27.3268L391.9 14.8954L406.655 8.67614Z" fill="#515F99"/>
<path fill-rule="evenodd" clip-rule="evenodd" d="M336.279 48.2689L337.594 50.4432L352.304 41.4813L364.073 30.1954L381.343 28.1874L391.899 14.896L380.901 27.3274L363.447 28.8211L351.393 39.7659L336.279 48.2689Z" fill="#CEA669"/>
<path d="M331.472 40.6689C331.985 40.3606 332.65 40.5262 332.959 41.039L342.991 57.72C343.299 58.2328 343.134 58.8984 342.621 59.2067L342.16 59.4837C341.648 59.792 340.982 59.6264 340.674 59.1136L330.641 42.4325C330.333 41.9198 330.499 41.2542 331.012 40.9459L331.472 40.6689Z" fill="#515F99"/>
<path d="M374.807 64.1785C374.729 64.4674 374.315 64.6068 373.882 64.4901C373.448 64.3733 373.16 64.0445 373.238 63.7557C373.316 63.4668 373.73 63.3273 374.163 63.4441C374.597 63.5609 374.885 63.8897 374.807 64.1785Z" fill="#534A87"/>
<path d="M334.962 49.6154L336.356 51.9326L324.77 58.9006L324.908 59.1309C325.217 59.6436 325.051 60.3092 324.538 60.6175L324.078 60.8945C323.565 61.2029 322.899 61.0372 322.591 60.5245L320.921 57.7467C320.612 57.234 320.778 56.5684 321.291 56.2601L321.751 55.9831C322.264 55.6747 322.929 55.8404 323.238 56.3531L323.376 56.5834L334.962 49.6154Z" fill="#515F99"/>
<path d="M333.336 48.7025C332.486 49.1683 333.132 52.8655 333.571 54.9267L332.35 58.4961L337.763 58.2915L338.171 54.7528L337.017 52.8997C336.144 51.3066 334.185 48.2368 333.336 48.7025Z" fill="#FFD1B8"/>
<defs>
<linearGradient id="paint0_linear_443_437" x1="18.1858" y1="24.8028" x2="460.334" y2="271.628" gradientUnits="userSpaceOnUse">
<stop stop-color="#82278A"/>
<stop offset="1" stop-color="#6D2BD7"/>
</linearGradient>
<linearGradient id="paint1_linear_443_437" x1="554.714" y1="264.147" x2="321.181" y2="291.001" gradientUnits="userSpaceOnUse">
<stop stop-color="#4A2180"/>
<stop offset="1" stop-color="#694FB5" stop-opacity="0"/>
</linearGradient>
</defs>
</svg>
