<svg width="259" height="234" viewBox="0 0 259 234" fill="none" xmlns="http://www.w3.org/2000/svg">
<path d="M211.395 202.035C196.022 204.458 182.494 196.581 185.568 172.95C186.507 165.733 190.285 157.52 195.189 149.54L194.467 146.946L205.802 134.496L204.323 133.458L217.292 121.208L215.217 120.489L222.464 113.745L226.63 105.445C228.808 102.776 232.034 98.2937 233.893 95.5885C237.001 91.0655 239.054 88.4342 239.599 85.2132C241.075 76.4878 240.094 63.6802 237.224 58.4288C237.839 55.1972 239.684 48.1279 242.144 45.7042C243.989 48.7339 251.368 74.789 253.212 83.272C255.057 91.7551 260.591 92.9669 262.436 102.056C264.281 111.145 261.206 131.747 251.368 151.742C241.529 171.738 226.768 199.611 211.395 202.035Z" fill="#CA8F6D"/>
<path d="M251.368 151.742C258.918 136.397 262.485 120.695 262.902 110.113C257.957 123.47 252.997 126.411 248.699 128.96C245.819 130.668 243.237 132.199 241.155 136.57C237.005 145.285 237.963 165.794 238.961 174.959C243.605 167.241 247.808 158.976 251.368 151.742Z" fill="#986447"/>
<path d="M209.552 73.5771L226.155 62.0644C226.77 57.015 228.616 46.0678 231.073 42.6746C233.531 43.6441 236.198 53.5813 237.225 58.4288C239.626 62.822 243.776 72.417 244.205 80.5443C244.378 84.2794 240.861 90.055 239.082 92.4759L240.646 92.9947L231.819 101.295L234.181 102.332L226.113 109.076H228.647L220.558 115.82C220.642 113.842 221.1 110.87 222.464 107.509C224.924 101.45 235.993 89.9373 231.073 85.6957C226.154 81.4542 215.701 86.3017 211.397 83.272C207.953 80.8483 208.732 75.7988 209.552 73.5771Z" fill="#ECB393"/>
<path d="M248.363 161.42C249.57 141.553 231.453 139.145 217.564 153.594C201.258 170.45 202.466 193.327 210.921 199.949C217.685 205.247 237.09 194.932 245.947 189.113C246.35 186.504 247.396 177.313 248.363 161.42Z" fill="#ECB393"/>
<path fill-rule="evenodd" clip-rule="evenodd" d="M217.564 153.594C201.258 170.45 202.466 193.327 210.921 199.949C217.685 205.247 237.09 194.932 245.947 189.112L231.819 191.56L232.857 185.853L220.925 194.153L222.482 187.41C221.963 188.966 219.369 191.975 213.144 191.56C205.363 191.041 208.475 175.478 217.564 153.594Z" fill="#986447"/>
<path d="M262.004 154.851C261.4 137.374 268.036 104.227 257.177 106.035C249.335 107.843 248.732 124.718 249.938 140.99C250.903 154.007 256.373 174.538 258.987 183.779L265.02 183.176C264.216 179.56 262.486 168.833 262.004 154.851Z" fill="#ECB393"/>
<path d="M210.053 238.474C206.99 213.506 192.903 209.243 186.166 187.928C187.799 189.349 194.006 193.896 205.766 200.717C217.525 207.538 218.015 212.491 216.79 214.115C226.59 223.371 226.182 226.091 224.753 226.294C226.59 227.918 230.755 233.967 232.715 245.173C234.675 256.378 215.565 267.705 205.766 271.968C208.215 269.126 212.503 258.449 210.053 238.474Z" fill="#CA8F6D"/>
<path fill-rule="evenodd" clip-rule="evenodd" d="M208.754 231.285C208.679 231.013 208.61 230.74 208.546 230.467C207.446 226.267 205.979 222.742 204.299 219.573C207.624 224.711 213.395 228.632 218.904 232.374C225.39 236.779 231.513 240.938 232.852 246.549C232.914 249.003 232.026 251.449 230.505 253.811C231.115 247.171 225.409 243.761 222.48 242.886C223.69 245.49 225.643 252.774 223.77 261.074C222.056 262.501 220.209 263.852 218.329 265.101C222.469 257.49 218.364 250.259 214.177 242.886C212.017 239.081 209.835 235.238 208.754 231.285ZM224.753 226.294C226.182 226.091 226.59 223.371 216.79 214.115C204.299 205.047 189.279 193.635 186.166 187.928C188.592 195.604 191.972 201.069 195.446 206.085C198.886 209.37 209.563 218.012 224.753 226.294Z" fill="#986447"/>
<path fill-rule="evenodd" clip-rule="evenodd" d="M188.106 79.7553C188.106 79.7553 188.748 78.4704 190.511 79.7553C192.275 81.0403 192.917 79.7553 192.917 79.7553C192.917 79.4396 192.931 79.1704 192.948 78.8412C192.963 78.5532 192.98 78.2192 192.992 77.7681C193.013 77.0185 193.013 75.9804 192.775 75.0344C192.543 74.1106 191.859 72.4953 189.965 72.0461C188.4 71.6749 186.9 72.3764 185.774 73.0799C185.053 73.5306 184.657 74.2075 184.475 74.5412C184.245 74.9652 184.047 75.4494 183.874 75.9389C183.525 76.9262 183.176 78.2158 182.827 79.7243C182.126 82.7577 181.361 86.9437 180.556 91.9642C178.944 102.02 177.141 115.608 175.336 130.43C171.724 160.085 168.093 194.792 165.951 216.319L169.793 214.005C171.933 192.495 176.832 160.653 180.437 131.051C182.239 116.246 184.033 102.735 185.63 92.7778C186.429 87.7919 187.172 83.7429 187.834 80.8823C187.928 80.4778 188.018 80.1022 188.106 79.7553Z" fill="#CA8F6D"/>
<path d="M186.494 100.787C186.494 96.8765 180.351 95.3122 177.279 94.53C174.975 96.6158 170.521 101.413 171.136 103.916C171.904 107.045 183.423 112.52 184.958 110.956C186.494 109.391 186.494 104.698 186.494 100.787Z" fill="#FFD1B8"/>
<path d="M99.1367 40.6665C100.371 38.3726 105.752 33.4788 112.267 32.2554C114.981 31.7456 122.187 31.0319 129.294 32.2554C136.401 33.4788 140.152 38.8823 141.139 41.4312L145.385 84.2517H100.421L99.1367 40.6665Z" fill="#7C447C"/>
<path fill-rule="evenodd" clip-rule="evenodd" d="M134.465 34.1001C126.757 48.2817 131.896 61.7708 137.677 71.4059C142.302 79.114 144.615 81.8975 145.194 82.3257L141.139 41.4322C140.427 39.5934 138.277 36.269 134.465 34.1001Z" fill="#ECB393"/>
<path d="M101.706 37.6806C100.451 38.8123 99.5552 39.8894 99.1367 40.6675L100.081 72.6906C103.919 59.8438 102.764 43.9978 101.706 37.6806Z" fill="#ECB393"/>
<path d="M111.983 30.2955C109.413 31.5801 106.202 26.4414 110.698 25.7991C117.121 26.0132 130.481 26.8268 132.537 28.3684C135.106 30.2955 132.537 32.8648 130.61 32.2225C129.582 36.3335 126.756 35.2201 125.471 34.1495C124.829 35.2201 123.03 36.8473 120.975 34.7918C119.048 36.7189 115.194 36.7189 113.267 33.5072C111.34 34.1495 110.698 31.5801 111.983 30.2955Z" fill="#381466"/>
<path d="M100.418 93.2442V84.2515H145.15L146.666 93.2442H100.418Z" fill="#ECB393"/>
<path d="M137.01 69.8352C134.026 61.5561 131.043 37.4716 138.502 36.719C142.082 37.3211 160.881 72.0931 178.784 93.1671L168.341 111.23C157.897 100.693 141.079 81.1248 137.01 69.8352Z" fill="#6C79AE"/>
<path d="M149.422 205.46V174.181L127.398 179.394L134.739 225.568H142.815C149.275 223.185 155.784 216.631 158.231 213.652C156.469 210.077 151.624 206.701 149.422 205.46Z" fill="#381466"/>
<path d="M148.277 205.069L151.806 181.246H148.278C148.278 192.457 144.593 202.725 145.482 209.068L156.946 215.29C156.946 212.079 157.891 213.953 158.23 213.363C157.01 209.833 149.802 206.294 148.277 205.069Z" fill="#8E6FB4"/>
<path d="M90.1426 104.759C90.1426 94.3101 91.1864 47.2908 99.1353 40.5737L101.705 118.939H90.1426V104.759Z" fill="#6C79AE"/>
<path d="M90.1426 104.759C90.1426 94.3101 91.1864 47.2908 99.1353 40.5737L101.705 118.939H90.1426V104.759Z" fill="url(#paint0_linear_443_355)" fill-opacity="0.6"/>
<path d="M94.1313 179.846C93.6268 155.749 94.2827 104.692 100.943 93.2451H146.581C149.104 117.845 156.947 169.605 156.947 179.846C141.205 185.871 108.511 182.357 94.1313 179.846Z" fill="#6C79AE"/>
<path fill-rule="evenodd" clip-rule="evenodd" d="M107.487 93.2451H114.553C112.497 110.717 112.804 159.89 113.215 182.292C109.341 181.948 105.66 181.53 102.348 181.092C101.064 165.941 100.293 127.161 107.487 93.2451ZM121.619 93.2451H130.611C134.465 115.727 138.32 177.729 138.32 183.02C134.778 183.19 131.095 183.21 127.4 183.12C126.757 162.154 124.702 114.828 121.619 93.2451Z" fill="#485795"/>
<path d="M156.947 179.846C156.947 169.605 152.451 118.939 146.581 93.2451H138.596C144.743 120.223 148.083 163.571 148.597 181.99C151.697 181.476 154.523 180.774 156.947 179.846Z" fill="#485795"/>
<path d="M109.412 25.4888L111.514 10.2077C111.514 7.05451 113.476 0.748047 121.325 0.748047C129.173 0.748047 132.069 7.05451 132.536 10.2077V28.3995C131.135 31.3102 126.93 33.3476 121.325 32.7655C115.719 32.1834 110.113 29.1272 109.412 25.4888Z" fill="#ECB393"/>
<path d="M131.253 8.45613C131.253 12.7132 127.227 16.1642 122.26 16.1642C117.294 16.1642 113.268 12.7132 113.268 8.45613C113.268 4.19907 117.294 0.748047 122.26 0.748047C127.227 0.748047 131.253 4.19907 131.253 8.45613Z" fill="#CA8F6D"/>
<path d="M109.228 38.554C109.228 39.5676 108.817 40.3893 108.31 40.3893C107.803 40.3893 107.393 39.5676 107.393 38.554C107.393 37.5404 107.803 36.7188 108.31 36.7188C108.817 36.7188 109.228 37.5404 109.228 38.554Z" fill="#ECB393"/>
<path d="M110.523 40.7679C110.183 41.143 109.754 41.3091 109.567 41.1387C109.379 40.9684 109.503 40.5262 109.844 40.151C110.185 39.7758 110.613 39.6098 110.801 39.7801C110.988 39.9505 110.864 40.3927 110.523 40.7679Z" fill="#ECB393"/>
<path d="M106.174 40.7679C106.515 41.143 106.943 41.3091 107.13 41.1387C107.318 40.9684 107.194 40.5262 106.853 40.151C106.513 39.7758 106.084 39.6098 105.897 39.7801C105.709 39.9505 105.833 40.3927 106.174 40.7679Z" fill="#ECB393"/>
<path d="M109.228 42.224C109.228 42.7308 108.817 43.1417 108.31 43.1417C107.803 43.1417 107.393 42.7308 107.393 42.224C107.393 41.7172 107.803 41.3064 108.31 41.3064C108.817 41.3064 109.228 41.7172 109.228 42.224Z" fill="#ECB393"/>
<path d="M116.937 47.5457C116.937 48.5593 116.526 49.381 116.019 49.381C115.512 49.381 115.102 48.5593 115.102 47.5457C115.102 46.5321 115.512 45.7104 116.019 45.7104C116.526 45.7104 116.937 46.5321 116.937 47.5457Z" fill="#ECB393"/>
<path d="M118.232 49.7594C117.892 50.1345 117.463 50.3006 117.276 50.1303C117.088 49.9599 117.212 49.5177 117.553 49.1425C117.894 48.7673 118.322 48.6012 118.51 48.7716C118.697 48.9419 118.573 49.3842 118.232 49.7594Z" fill="#ECB393"/>
<path d="M113.883 49.7594C114.224 50.1345 114.652 50.3006 114.839 50.1303C115.027 49.9599 114.903 49.5177 114.562 49.1425C114.222 48.7673 113.793 48.6012 113.606 48.7716C113.418 48.9419 113.542 49.3842 113.883 49.7594Z" fill="#ECB393"/>
<path d="M116.937 51.2155C116.937 51.7223 116.526 52.1331 116.019 52.1331C115.512 52.1331 115.102 51.7223 115.102 51.2155C115.102 50.7087 115.512 50.2979 116.019 50.2979C116.526 50.2979 116.937 50.7087 116.937 51.2155Z" fill="#ECB393"/>
<path d="M127.214 41.1236C127.214 42.1372 126.803 42.9588 126.297 42.9588C125.79 42.9588 125.379 42.1372 125.379 41.1236C125.379 40.11 125.79 39.2883 126.297 39.2883C126.803 39.2883 127.214 40.11 127.214 41.1236Z" fill="#ECB393"/>
<path d="M128.51 43.3375C128.169 43.7127 127.741 43.8787 127.553 43.7084C127.366 43.538 127.49 43.0958 127.83 42.7206C128.171 42.3454 128.599 42.1794 128.787 42.3497C128.975 42.5201 128.85 42.9623 128.51 43.3375Z" fill="#ECB393"/>
<path d="M124.16 43.3375C124.501 43.7127 124.929 43.8787 125.117 43.7084C125.304 43.538 125.18 43.0958 124.84 42.7206C124.499 42.3454 124.071 42.1794 123.883 42.3497C123.695 42.5201 123.82 42.9623 124.16 43.3375Z" fill="#ECB393"/>
<path d="M127.214 44.7936C127.214 45.3004 126.803 45.7112 126.297 45.7112C125.79 45.7112 125.379 45.3004 125.379 44.7936C125.379 44.2868 125.79 43.876 126.297 43.876C126.803 43.876 127.214 44.2868 127.214 44.7936Z" fill="#ECB393"/>
<path d="M127.214 56.5406C127.214 57.5542 126.803 58.3758 126.297 58.3758C125.79 58.3758 125.379 57.5542 125.379 56.5406C125.379 55.527 125.79 54.7053 126.297 54.7053C126.803 54.7053 127.214 55.527 127.214 56.5406Z" fill="#ECB393"/>
<path d="M128.51 58.7545C128.169 59.1297 127.741 59.2957 127.553 59.1254C127.366 58.955 127.49 58.5128 127.83 58.1376C128.171 57.7624 128.599 57.5963 128.787 57.7667C128.975 57.937 128.85 58.3793 128.51 58.7545Z" fill="#ECB393"/>
<path d="M124.16 58.7545C124.501 59.1297 124.929 59.2957 125.117 59.1254C125.304 58.955 125.18 58.5128 124.84 58.1376C124.499 57.7624 124.071 57.5963 123.883 57.7667C123.695 57.937 123.82 58.3793 124.16 58.7545Z" fill="#ECB393"/>
<path d="M127.214 60.2106C127.214 60.7174 126.803 61.1282 126.297 61.1282C125.79 61.1282 125.379 60.7174 125.379 60.2106C125.379 59.7038 125.79 59.293 126.297 59.293C126.803 59.293 127.214 59.7038 127.214 60.2106Z" fill="#ECB393"/>
<path d="M109.228 56.5396C109.228 57.5532 108.817 58.3749 108.31 58.3749C107.803 58.3749 107.393 57.5532 107.393 56.5396C107.393 55.526 107.803 54.7043 108.31 54.7043C108.817 54.7043 109.228 55.526 109.228 56.5396Z" fill="#ECB393"/>
<path d="M110.523 58.7535C110.183 59.1287 109.754 59.2947 109.567 59.1244C109.379 58.954 109.503 58.5118 109.844 58.1366C110.185 57.7614 110.613 57.5954 110.801 57.7657C110.988 57.9361 110.864 58.3783 110.523 58.7535Z" fill="#ECB393"/>
<path d="M106.174 58.7535C106.515 59.1287 106.943 59.2947 107.13 59.1244C107.318 58.954 107.194 58.5118 106.853 58.1366C106.513 57.7614 106.084 57.5954 105.897 57.7657C105.709 57.9361 105.833 58.3783 106.174 58.7535Z" fill="#ECB393"/>
<path d="M109.228 60.2096C109.228 60.7164 108.817 61.1273 108.31 61.1273C107.803 61.1273 107.393 60.7164 107.393 60.2096C107.393 59.7028 107.803 59.292 108.31 59.292C108.817 59.292 109.228 59.7028 109.228 60.2096Z" fill="#ECB393"/>
<path d="M118.222 65.5313C118.222 66.5449 117.811 67.3666 117.304 67.3666C116.798 67.3666 116.387 66.5449 116.387 65.5313C116.387 64.5177 116.798 63.696 117.304 63.696C117.811 63.696 118.222 64.5177 118.222 65.5313Z" fill="#ECB393"/>
<path d="M119.518 67.7452C119.177 68.1204 118.749 68.2864 118.561 68.1161C118.373 67.9457 118.497 67.5035 118.838 67.1283C119.179 66.7531 119.607 66.5871 119.795 66.7574C119.982 66.9278 119.858 67.37 119.518 67.7452Z" fill="#ECB393"/>
<path d="M115.168 67.7452C115.509 68.1204 115.937 68.2864 116.125 68.1161C116.312 67.9457 116.188 67.5035 115.847 67.1283C115.507 66.7531 115.078 66.5871 114.891 66.7574C114.703 66.9278 114.827 67.37 115.168 67.7452Z" fill="#ECB393"/>
<path d="M118.222 69.2013C118.222 69.7081 117.811 70.1189 117.304 70.1189C116.798 70.1189 116.387 69.7081 116.387 69.2013C116.387 68.6945 116.798 68.2837 117.304 68.2837C117.811 68.2837 118.222 68.6945 118.222 69.2013Z" fill="#ECB393"/>
<path d="M131.07 71.9556C131.07 72.9692 130.659 73.7909 130.152 73.7909C129.645 73.7909 129.234 72.9692 129.234 71.9556C129.234 70.942 129.645 70.1204 130.152 70.1204C130.659 70.1204 131.07 70.942 131.07 71.9556Z" fill="#ECB393"/>
<path d="M132.365 74.1695C132.024 74.5447 131.596 74.7108 131.409 74.5404C131.221 74.3701 131.345 73.9278 131.686 73.5526C132.027 73.1774 132.455 73.0114 132.642 73.1817C132.83 73.3521 132.706 73.7943 132.365 74.1695Z" fill="#ECB393"/>
<path d="M128.016 74.1695C128.356 74.5447 128.785 74.7108 128.972 74.5404C129.16 74.3701 129.036 73.9278 128.695 73.5526C128.354 73.1774 127.926 73.0114 127.738 73.1817C127.551 73.3521 127.675 73.7943 128.016 74.1695Z" fill="#ECB393"/>
<path d="M131.07 75.6256C131.07 76.1324 130.659 76.5433 130.152 76.5433C129.645 76.5433 129.234 76.1324 129.234 75.6256C129.234 75.1188 129.645 74.708 130.152 74.708C130.659 74.708 131.07 75.1188 131.07 75.6256Z" fill="#ECB393"/>
<path d="M107.945 73.2403C107.945 74.2539 107.534 75.0755 107.027 75.0755C106.52 75.0755 106.109 74.2539 106.109 73.2403C106.109 72.2267 106.52 71.405 107.027 71.405C107.534 71.405 107.945 72.2267 107.945 73.2403Z" fill="#ECB393"/>
<path d="M109.24 75.4541C108.899 75.8293 108.471 75.9954 108.284 75.825C108.096 75.6547 108.22 75.2124 108.561 74.8373C108.902 74.4621 109.33 74.296 109.517 74.4664C109.705 74.6367 109.581 75.079 109.24 75.4541Z" fill="#ECB393"/>
<path d="M104.891 75.4541C105.231 75.8293 105.66 75.9954 105.847 75.825C106.035 75.6547 105.911 75.2124 105.57 74.8373C105.229 74.4621 104.801 74.296 104.613 74.4664C104.426 74.6367 104.55 75.079 104.891 75.4541Z" fill="#ECB393"/>
<path d="M107.945 76.9103C107.945 77.4171 107.534 77.8279 107.027 77.8279C106.52 77.8279 106.109 77.4171 106.109 76.9103C106.109 76.4035 106.52 75.9927 107.027 75.9927C107.534 75.9927 107.945 76.4035 107.945 76.9103Z" fill="#ECB393"/>
<path d="M56.3677 94.8606C56.5698 90.2098 57.9447 79.8162 61.8265 75.4485C64.7379 86.6105 64.2527 94.6584 63.6461 97.2872C64.657 105.376 68.2558 123.615 74.5638 131.865C82.4488 142.178 100.645 159.77 107.923 174.936C115.202 190.101 123.087 216.187 124.3 224.073C125.27 230.382 123.087 233.577 121.874 234.385C113.989 237.419 85.4815 236.205 76.3834 228.319C67.2853 220.433 46.663 196.774 43.0238 180.395C40.1124 167.292 38.9802 149.457 38.778 142.178L36.3519 143.391C36.3519 127.874 36.0304 111.975 43.0238 97.2872C43.0238 91.2209 44.1156 77.875 48.4827 73.022C49.9383 76.4191 50.3023 88.9966 50.3023 94.8606H53.335H56.3677Z" fill="#E486AE"/>
<path fill-rule="evenodd" clip-rule="evenodd" d="M38.778 142.177C38.4854 136.08 43.2637 127.079 45.6894 123.341C43.0956 125.416 37.5967 132.331 36.3519 143.39L38.778 142.177Z" fill="#CE7198"/>
<path d="M43.0238 97.2861C37.6863 104.85 36.3519 108.816 36.3519 109.853C37.3404 108.917 39.2095 107.546 38.778 109.547C39.7522 105.391 41.1157 101.294 43.0238 97.2861Z" fill="#CE7198"/>
<path d="M40.5017 118.003C41.2744 115.098 42.058 111.103 42.058 109.547C39.7904 111.851 38.8091 115.897 37.2935 118.003C35.0552 121.113 33.7578 124.056 33.7578 126.972C34.5861 125.813 35.6333 125.024 36.7065 124.368C38.778 121.785 39.8444 120.474 40.5017 118.003Z" fill="#CE7198"/>
<path d="M49.6716 230.726C46.5034 216.957 37.1411 173.143 41.0195 160.693C44.898 148.242 56.0648 156.024 56.0648 171.068C56.0648 195.99 55.0273 230.726 55.0273 230.726H49.6716Z" fill="#CE7198"/>
<path d="M61.8275 75.448C57.9456 79.8157 56.5708 90.2093 56.3686 94.8601H53.3359C53.5617 95.1182 53.7798 95.3754 53.9905 95.632C59.8006 101.199 62.8491 107.779 63.6471 110.372H60.5634C64.4353 115.768 66.7867 121.612 67.4783 123.86L63.6471 122.903C67.5421 129.064 72.5485 136.484 74.5648 139.423H70.416L83.0413 150.317H78.6L92.8978 161.211L89.2664 161.936C94.2466 165.506 99.2959 169.857 101.198 171.587L98.6042 173.055C105.244 180.181 106.777 184.383 106.713 185.593C116.531 203.648 120.903 225.444 121.875 234.385C123.088 233.576 125.271 230.381 124.301 224.072C123.088 216.186 115.203 190.101 107.924 174.935C100.646 159.77 82.4498 142.177 74.5648 131.865C68.2568 123.614 64.658 105.375 63.6471 97.2867C64.2536 94.6579 64.7389 86.61 61.8275 75.448Z" fill="#FCA7CB"/>
<path d="M149.798 264.78C145.599 247.139 125.202 230.107 119.203 217.941C115.425 211.858 109.005 212.466 113.804 224.024C118.604 235.581 119.203 259.913 124.602 258.697C130.002 257.48 126.402 287.895 131.201 286.678C136 285.462 140.2 295.195 140.2 301.278C150.398 296.411 153.997 282.42 149.798 264.78Z" fill="#E486AE"/>
<path fill-rule="evenodd" clip-rule="evenodd" d="M140.2 301.278C150.398 296.411 153.997 282.42 149.798 264.78C148.438 259.067 145.379 253.418 141.661 247.977C138.942 243.999 135.87 240.131 132.852 236.432C141.145 259.11 135.207 279.379 131.201 286.678C139.569 276.777 141.661 256.752 141.661 247.977C147.368 264.78 146.001 279.49 140.2 301.278ZM123.807 225.151C124.057 225.463 124.298 225.784 124.53 226.112C131.401 235.856 130.021 252.588 128.969 265.353C128.598 269.854 128.267 273.861 128.354 276.896C128.283 275.736 128.221 274.533 128.159 273.324C127.776 265.819 127.381 258.071 124.602 258.697C121.444 251.061 122.674 245.649 123.869 240.395C124.94 235.684 125.983 231.099 123.807 225.151Z" fill="#BD658A"/>
<path d="M59.2331 222.919C59.8302 215.1 58.636 177.811 82.52 177.811C98.641 177.811 100.433 191.043 106.404 205.477C111.181 217.025 113.57 230.738 114.167 236.151C104.613 236.552 83.2365 237.474 74.1606 237.955C62.8157 238.557 58.636 230.738 59.2331 222.919Z" fill="#BD658A"/>
<path fill-rule="evenodd" clip-rule="evenodd" d="M59.7273 213.087C59.7321 212.999 59.7386 212.91 59.7467 212.818L59.7273 213.087ZM101.545 192.855C97.9772 184.158 93.685 177.811 82.52 177.811C64.5002 177.811 60.7556 199.037 59.7467 212.818C60.122 208.602 63.9929 200.909 65.9217 197.524L68.5155 201.155C68.1005 191.61 76.297 185.42 80.4471 183.517V191.299C83.7326 188.013 92.5518 183.725 101.545 192.855Z" fill="#FCA7CB"/>
<path d="M48.8016 72.5024C46.7266 76.1338 42.5765 83.3965 43.0952 97.4031C44.1328 94.1176 46.623 86.4053 48.283 81.8402C49.959 85.1603 50.3647 91.8696 50.3581 94.8093H52.4331C52.0873 89.7946 50.8768 78.3126 48.8016 72.5024Z" fill="#FCA7CB"/>
<path d="M48.4262 231.592C39.7134 218.911 41.4365 225.378 47.7506 240.834C58.6955 232.969 68.554 223.52 49.1549 231.976C74.1815 207.191 61.7874 215.403 52.0718 222.906C57.4064 214.27 67.9813 195.23 65.1018 192.903C61.5023 189.993 57.595 196.52 51.3429 222.522C52.0148 199.132 43.2547 201.583 48.4262 231.592Z" fill="#FFC786"/>
<path d="M25.4687 227.45C9.9783 226.726 22.0522 234.269 30.8891 238.558C35.3262 228.142 40.8805 219.251 29.6673 227.931C45.6089 200.26 41.0498 208.259 24.6297 218.834C35.3699 202.366 43.7858 184.321 21.8308 206.06C42.7698 159.167 30.2378 176.872 20.9815 192.199C23.6603 177.649 27.9485 146.197 22.7828 144.557C16.3255 142.508 14.4705 153.438 19.7828 192.061C8.25099 159.936 -2.39143 167.894 20.6322 205.923C2.0016 193.304 5.99154 200.97 22.8284 218.627C8.18695 213.675 5.79334 218.644 25.4687 227.45Z" fill="#C77AA7"/>
<defs>
<linearGradient id="paint0_linear_443_355" x1="106.201" y1="109.946" x2="98.493" y2="61.771" gradientUnits="userSpaceOnUse">
<stop stop-color="#485795"/>
<stop offset="1" stop-color="#485795" stop-opacity="0"/>
</linearGradient>
</defs>
</svg>
